<?xml version="1.0" encoding="utf-8"?>
<!-- Generator: Adobe Illustrator 27.5.0, SVG Export Plug-In . SVG Version: 6.00 Build 0)  -->
<svg version="1.1" id="Layer_1" xmlns="http://www.w3.org/2000/svg" xmlns:xlink="http://www.w3.org/1999/xlink" x="0px" y="0px"
	 viewBox="0 0 492 492" style="enable-background:new 0 0 492 492;" xml:space="preserve">
<g>
	<g>
		
			<linearGradient id="SVGID_1_" gradientUnits="userSpaceOnUse" x1="129.2737" y1="207.6237" x2="362.35" y2="440.7" gradientTransform="matrix(1 0 0 1 0 -66)">
			<stop  offset="0" style="stop-color:#D33230"/>
			<stop  offset="1" style="stop-color:#FD8F04"/>
		</linearGradient>
		<path style="fill-rule:evenodd;clip-rule:evenodd;fill:url(#SVGID_1_);" d="M341.2,254.6c-0.1-30.8-6.8-56.7-23.4-89.3
			c0-0.1-0.1-0.2-0.1-0.2L297,129.5h3.5c10.6,0,19.2-8.6,19.2-19.2v-3.4c0-10.6-8.6-19.2-19.2-19.2H191.2c-5.2,0-10.1,2-13.7,5.7
			c-3.6,3.6-5.5,8.4-5.5,13.5v3.4c0,10.6,8.6,19.2,19.2,19.2h3.5L174,165c0,0.1-0.1,0.2-0.1,0.2c-12.5,24.7-19.5,45.5-22.1,67.5
			c-0.1,0.4-0.2,0.8-0.2,1.2c0,0.1,0,0.1,0,0.2c-0.7,6.6-1.1,13.4-1.1,20.4v92.9c0,0.3-0.1,0.5-0.1,0.8s0,0.5,0.1,0.8v45
			c0,2.6,2.1,4.7,4.7,4.7h181.2c2.6,0,4.7-2.1,4.7-4.7L341.2,254.6z M160,254.6c0-5.4,0.2-10.7,0.7-15.9h170.4
			c0.5,5.2,0.7,10.4,0.7,15.9v89H160V254.6z M191.2,120.1c-5.4,0-9.8-4.4-9.8-9.8v-3.5c0-2.6,1-5,2.8-6.8c1.9-1.9,4.3-2.9,7-2.9
			h109.3c5.4,0,9.8,4.4,9.8,9.8v3.4c0,5.4-4.4,9.8-9.8,9.8h-11.7l0,0h-42.9H191.2z M182.2,169.7l23.4-40.1H286l23.4,40.1
			c11.1,21.8,17.5,40.4,20.5,59.7H161.8C164.7,210.1,171.1,191.5,182.2,169.7z M160,389.3v-36.2h171.8v36.2H160z M316.3,265.1
			c-0.6-0.3-15.5-7.9-35.6-12.7c-27-6.4-50.5-4.3-67.8,5.9c0,0-0.1,0-0.1,0.1c-0.6,0.4-15.5,9.8-23.7,26.1
			c-5.6,11.1-6.7,22.2-3,31.1c-3.8,2.7-7.8,5.7-11.8,8.9c-2,1.6-2.4,4.6-0.8,6.6c0.9,1.2,2.3,1.8,3.7,1.8c1,0,2.1-0.3,2.9-1
			c3.8-3,7.5-5.8,11-8.3c6.2,6.8,15.8,10.5,27.8,10.5c0.2,0,0.4,0,0.6,0c8.5-0.1,17.2-2.4,26-7c8.9-4.6,16.8-10.9,23.4-18.6
			c19.5-22.4,36.9-36,44.4-34.7c2.3,0.4,4.5-0.9,5.3-3.1C319.4,268.6,318.4,266.2,316.3,265.1z M285.7,278.4
			c-9.2,7.8-18,17.4-23.8,24.1c-5.8,6.8-12.8,12.3-20.6,16.3c-7.5,3.9-14.8,5.8-21.8,5.9c-0.2,0-0.4,0-0.5,0
			c-8.6,0-15.5-2.3-19.9-6.6c33.5-22.5,69-37.2,69.4-37.3c2.4-1,3.6-3.7,2.6-6.1s-3.7-3.6-6.1-2.6c-0.4,0.2-36.5,15-70.7,38
			c-1.7-6-0.6-13.4,3.4-21.3c6.9-13.6,19.5-21.9,20.3-22.4c26.6-15.7,63.2-5.4,82,1.8C295.6,270.6,290.9,273.9,285.7,278.4z"/>
	</g>
	<g id="Master_Layer_2">
	</g>
	<path style="fill:#DD4925;" d="M248.6,1c67.7,0,128.9,27.4,173.2,71.8c44.3,44.3,71.8,105.6,71.8,173.2s-27.4,128.9-71.8,173.2
		C377.5,463.6,316.3,491,248.6,491s-128.9-27.4-173.2-71.8C31.1,374.9,3.6,313.7,3.6,246S31.1,117.1,75.4,72.8
		C119.7,28.4,181,1,248.6,1L248.6,1z M414.1,80.5C371.8,38.1,313.3,12,248.6,12S125.5,38.1,83.1,80.5
		C40.8,122.9,14.6,181.4,14.6,246s26.2,123.1,68.6,165.5C125.5,453.9,184,480,248.6,480s123.1-26.2,165.5-68.6
		s68.6-100.9,68.6-165.5S456.5,122.9,414.1,80.5z"/>
</g>
</svg>
