<?xml version="1.0" encoding="utf-8"?>
<!-- Generator: Adobe Illustrator 27.5.0, SVG Export Plug-In . SVG Version: 6.00 Build 0)  -->
<svg version="1.1" id="Layer_1" xmlns="http://www.w3.org/2000/svg" xmlns:xlink="http://www.w3.org/1999/xlink" x="0px" y="0px"
	 viewBox="0 0 5000 5000" style="enable-background:new 0 0 5000 5000;" xml:space="preserve">
<path style="fill:#FEFEFE;" d="M0,0h4999.998v4999.998H0V0z"/>
<path style="fill:#232021;" d="M2495.409,1945.98c5.576-0.19,11.797-0.688,17.241,0.698c9.282,2.358,18.081,10.22,22.964,18.232
	c0.628,1.016,1.205,2.061,1.729,3.135c0.521,1.074,0.987,2.173,1.396,3.296c0.407,1.123,0.757,2.264,1.05,3.423
	c0.293,1.159,0.526,2.329,0.698,3.511s0.283,2.37,0.332,3.565c0.052,1.194,0.042,2.388-0.029,3.579
	c-0.072,1.191-0.205,2.378-0.401,3.559c-0.192,1.178-0.444,2.344-0.757,3.496c-3.379,12.373-11.396,18.096-21.963,24.312
	c-5.815,0.195-11.934,0.513-17.705-0.41c-9.565-1.533-18.716-7.544-24.082-15.562c-5.269-7.866-6.709-17.476-4.419-26.616
	C2475.072,1959.813,2483.29,1953.5,2495.409,1945.98z"/>
<path style="fill:#232021;" d="M957.793,3268.719c3.096,0.317,5.947,0.674,8.979,1.352c11.025,2.471,20.605,8.599,26.24,18.594
	c5.22,9.243,5.513,20.044,2.051,29.956c-4.478,12.813-14.214,18.965-25.962,24.395c-5.303-0.474-10.771-1.021-15.869-2.627
	c-9.287-2.925-17.783-9.6-22.271-18.286c-0.534-1.051-1.011-2.127-1.431-3.228s-0.783-2.219-1.089-3.354
	c-0.303-1.139-0.545-2.29-0.728-3.452c-0.186-1.166-0.308-2.336-0.366-3.511c-0.062-1.175-0.062-2.352,0-3.531
	c0.062-1.175,0.184-2.345,0.366-3.511c0.185-1.162,0.43-2.313,0.732-3.452c0.306-1.136,0.669-2.254,1.089-3.354
	C934.819,3280.711,944.853,3274.793,957.793,3268.719z"/>
<path style="fill:#232021;" d="M1974.354,2382.977c6.626-0.337,13.804-0.747,20.298,0.913c8.989,2.305,17.524,9.844,22.158,17.7
	c4.726,8.018,6.216,17.725,3.491,26.685c-4.087,13.457-12.861,19.771-24.844,25.962c-5.103,0.522-10.401,1.04-15.498,0.093
	c-8.975-1.665-17.734-7.476-22.827-15.015c-5.425-8.037-7.163-18.413-5.156-27.847
	C1954.906,2397.67,1962.841,2390.199,1974.354,2382.977z"/>
<path style="fill:#232021;" d="M1589.404,2734.584c5.835-0.474,12.378-0.933,18.149,0.405c9.6,2.217,19.688,8.614,25.01,17.012
	c5.063,7.988,6.016,17.852,3.828,26.929c-3.428,14.239-13.735,21.123-25.478,28.501c-5.42,0.015-11.079,0.005-16.431-0.864
	c-10.586-1.728-21.001-9.277-26.504-18.379c-5.117-8.471-6.035-18.628-3.179-28.042
	C1568.779,2747.025,1578.124,2741.176,1589.404,2734.584z"/>
<path style="fill:#232021;" d="M3029.657,1486.659c5.283-0.044,10.493,0.225,15.659,1.396c10.683,2.422,20.835,9.624,26.206,19.224
	c0.57,1.019,1.086,2.066,1.548,3.14c0.465,1.071,0.876,2.163,1.23,3.276c0.351,1.113,0.648,2.241,0.889,3.384
	s0.425,2.295,0.552,3.457c0.124,1.159,0.19,2.323,0.2,3.491c0.007,1.169-0.044,2.334-0.151,3.496
	c-0.111,1.162-0.278,2.318-0.503,3.467c-0.224,1.146-0.506,2.277-0.844,3.394c-4.199,14.126-13.184,20.908-25.557,27.803
	c-5.85,0.542-11.592,0.947-17.407-0.186c-9.448-1.841-17.817-8.491-22.622-16.714c-5.723-9.79-6.631-20.786-3.53-31.621
	C3009.291,1499.804,3017.445,1493.32,3029.657,1486.659z"/>
<path style="fill:#232021;" d="M3460.042,1127.651c6.064-0.239,11.538-0.127,17.397,1.704c10.738,3.354,19.707,12.041,24.316,22.183
	c0.57,1.23,1.075,2.489,1.514,3.774c0.443,1.286,0.816,2.59,1.118,3.911c0.303,1.325,0.537,2.661,0.703,4.009
	c0.166,1.344,0.26,2.695,0.283,4.053c0.023,1.358-0.024,2.713-0.142,4.068c-0.117,1.351-0.304,2.694-0.562,4.028
	c-0.257,1.335-0.583,2.651-0.977,3.95s-0.854,2.573-1.382,3.823c-5.122,12.109-13.892,16.333-25.508,21.079
	c-5.703-0.176-11.191-0.864-16.714-2.324c-10.835-2.871-20.332-9.702-25.61-19.707c-4.507-8.535-5.156-18.081-1.983-27.197
	C3437.357,1141.064,3447.381,1134.038,3460.042,1127.651z"/>
<path style="fill:#232021;" d="M1198.437,2547.245c9.497-1.719,19.951-1.011,29.604-1.113l0.078,4.131
	c1.162,75.854-30.469,153.325-83.511,207.3c-54.609,55.581-125.537,81.328-202.651,82.163l-31.528-0.454
	c13.096-59.917,33.272-117.534,69.722-167.568C1035.395,2595.868,1107.475,2561.224,1198.437,2547.245z"/>
<path style="fill:#FEFEFE;" d="M1063.857,2673.534l1.65,1.538c-17.507,19.886-34.331,40.335-50.474,61.348
	c-23.833,31.299-45.479,69.917-80.073,90.469l-1.426-1.597c0.068-0.815,0.054-1.645,0.215-2.451
	C940.717,2788.001,1032.714,2698.881,1063.857,2673.534z"/>
<path style="fill:#232021;" d="M2569.227,708.911c3.814-0.635,5.454-0.312,9.151,0.474c1.811,3.823,2.896,7.012,3.359,11.265
	c7.598,69.448-16.494,158.374-59.707,212.983c-44.585,56.348-134.189,110.439-205.874,118.35
	c18.096-46.694,40.054-95.068,66.323-137.773c15.142-24.614,38.911-49.272,49.521-75.869
	c-29.409,19.473-75.103,89.883-91.968,123.525c-10.762,21.475-18.296,44.77-27.368,67.007c-2.559,6.274-4.966,12.773-11.382,15.439
	c-1.275-2.91-1.636-3.359-2.251-6.973c-2.129-12.446,0.61-28.848,2.339-41.279c8.545-61.45,29.16-121.557,67.559-170.908
	C2418.124,761.919,2489.398,718.759,2569.227,708.911z"/>
<path style="fill:#232021;" d="M801.889,1442.778c3.745-0.527,7.246-0.737,11.05-0.557c11.943,0.571,18.823,10.161,26.006,18.452
	c-8.218,20.771-20.459,40.366-31.074,60c-15.667,28.818-30.417,58.099-44.248,87.842
	c-183.613,395.508-208.789,876.445-109.697,1297.66c24.927,105.947,60.342,207.002,97.676,309.053
	c-3.838,15.879-8.115,33.921-17.119,47.681c-12.783,19.531-29.712,24.907-51.382,29.106c-16.357-0.874-28.315-4.785-39.79-16.948
	c-25.942-27.515-36.611-78.159-48.301-113.765c-9.219-27.321-17.835-54.831-25.85-82.529c-8.011-27.698-15.412-55.558-22.202-83.579
	c-6.79-28.024-12.962-56.183-18.516-84.478c-5.553-28.294-10.483-56.696-14.79-85.205c-4.307-28.512-7.987-57.103-11.04-85.771
	c-3.053-28.672-5.475-57.397-7.266-86.177c-1.79-28.78-2.951-57.583-3.481-86.411c-0.527-28.828-0.422-57.655,0.317-86.479
	c11.147-317.578,80.395-613.808,225.703-897.27C737.231,1545.658,771.538,1471.054,801.889,1442.778z"/>
<path style="fill:#232021;" d="M2386.449,228.109c23.522-0.802,47.051-1.234,70.586-1.295c23.538-0.061,47.07,0.25,70.596,0.932
	c23.525,0.681,47.035,1.733,70.527,3.156c23.493,1.423,46.958,3.216,70.396,5.379c23.438,2.163,46.834,4.694,70.19,7.595
	c23.356,2.901,46.662,6.169,69.917,9.804c23.252,3.636,46.442,7.637,69.57,12.004c23.128,4.367,46.18,9.097,69.155,14.191
	c22.979,5.094,45.871,10.549,68.677,16.364c22.809,5.816,45.52,11.99,68.13,18.521c22.611,6.532,45.114,13.418,67.51,20.66
	c22.393,7.242,44.667,14.834,66.821,22.778c22.155,7.944,44.18,16.235,66.074,24.874c21.895,8.638,43.646,17.62,65.254,26.944
	c21.612,9.324,43.07,18.987,64.375,28.988c21.305,10.001,42.448,20.336,63.428,31.003
	c102.402,52.756,201.885,115.574,295.732,182.185c101.831,72.28,197.549,158.164,284.883,247.246
	c10.326,10.397,20.552,20.89,30.679,31.479c10.127,10.592,20.151,21.281,30.073,32.065c9.922,10.781,19.739,21.657,29.453,32.627
	c9.713,10.97,19.323,22.031,28.828,33.184c9.502,11.152,18.898,22.396,28.188,33.73c9.291,11.331,18.47,22.751,27.539,34.258
	c9.072,11.507,18.034,23.101,26.885,34.78c8.848,11.68,17.584,23.442,26.211,35.288c8.626,11.842,17.139,23.768,25.537,35.776
	s16.681,24.095,24.848,36.26c8.168,12.168,16.218,24.411,24.151,36.729c7.933,12.321,15.749,24.715,23.447,37.182
	c7.698,12.468,15.276,25.008,22.734,37.622c7.458,12.614,14.795,25.296,22.012,38.047c7.217,12.754,14.31,25.574,21.279,38.462
	c6.972,12.891,13.821,25.845,20.547,38.862c6.725,13.017,13.325,26.099,19.8,39.243c6.475,13.148,12.824,26.354,19.048,39.619
	c6.22,13.265,12.316,26.589,18.286,39.971c5.967,13.382,11.807,26.821,17.52,40.317c5.712,13.493,11.297,27.04,16.752,40.64
	c5.453,13.6,10.777,27.251,15.972,40.952c5.192,13.701,10.254,27.451,15.186,41.25c4.932,13.799,9.731,27.643,14.399,41.533
	c4.665,13.89,9.197,27.822,13.599,41.797c4.401,13.978,8.668,27.997,12.802,42.056c4.134,14.056,8.135,28.151,12.002,42.285
	c3.864,14.134,7.593,28.304,11.187,42.51c3.594,14.206,7.053,28.444,10.376,42.715c3.324,14.271,6.51,28.573,9.561,42.905
	c3.05,14.333,5.964,28.693,8.74,43.081c2.777,14.388,5.415,28.801,7.916,43.237c3.206,18.887,6.178,37.811,8.916,56.772
	c2.738,18.962,5.242,37.954,7.515,56.978c2.272,19.02,4.31,38.066,6.114,57.138c1.8,19.072,3.368,38.164,4.702,57.275
	c1.331,19.112,2.428,38.238,3.291,57.378c0.863,19.137,1.489,38.283,1.88,57.437c0.391,19.154,0.545,38.309,0.464,57.466
	c-0.082,19.157-0.397,38.31-0.948,57.461c-0.553,19.151-1.342,38.291-2.368,57.422c-1.022,19.131-2.28,38.246-3.774,57.344
	s-3.223,38.176-5.186,57.231s-4.16,38.086-6.592,57.09c-2.435,19.004-5.101,37.973-7.998,56.909
	c-2.9,18.939-6.032,37.839-9.395,56.699c-3.362,18.857-6.958,37.673-10.786,56.445c-3.828,18.77-7.886,37.49-12.173,56.162
	c-4.291,18.672-8.809,37.288-13.555,55.85c-4.746,18.561-9.72,37.061-14.922,55.498c-5.202,18.438-10.63,36.808-16.284,55.112
	c-5.651,18.304-11.528,36.536-17.631,54.697c-6.104,18.158-12.429,36.239-18.975,54.243c-6.549,18.005-13.318,35.926-20.308,53.765
	c-6.989,17.835-14.196,35.583-21.621,53.242c-7.425,17.663-15.066,35.229-22.925,52.7c-7.858,17.471-15.931,34.844-24.219,52.119
	c-8.284,17.272-16.78,34.44-25.488,51.504c-8.708,17.064-17.625,34.019-26.753,50.865c-9.124,16.842-18.456,33.571-27.993,50.185
	c-9.538,16.615-19.279,33.11-29.224,49.487c-9.941,16.374-20.084,32.624-30.43,48.75c-10.345,16.126-20.885,32.122-31.621,47.988
	c-10.735,15.866-21.667,31.597-32.792,47.192c-10.72,15.101-21.623,30.067-32.71,44.897c-11.087,14.834-22.357,29.527-33.809,44.077
	c-11.455,14.553-23.086,28.963-34.893,43.227c-11.81,14.264-23.794,28.381-35.952,42.349
	c-12.162,13.968-24.492,27.783-36.992,41.445c-12.5,13.662-25.168,27.167-38.003,40.513c-12.835,13.35-25.835,26.538-38.999,39.565
	c-13.161,13.024-26.481,25.885-39.961,38.584c-13.483,12.695-27.119,25.223-40.908,37.583
	c-13.792,12.36-27.734,24.546-41.826,36.558c-14.092,12.015-28.332,23.853-42.72,35.512c-14.385,11.66-28.913,23.142-43.584,34.444
	c-14.671,11.302-29.479,22.42-44.424,33.354c-14.945,10.935-30.022,21.682-45.234,32.242c-15.212,10.56-30.552,20.931-46.021,31.113
	c-15.469,10.179-31.061,20.166-46.777,29.961c-15.716,9.794-31.551,19.394-47.505,28.799c-15.954,9.401-32.021,18.604-48.203,27.607
	c-16.182,9.007-32.472,17.811-48.872,26.411c-16.399,8.6-32.903,16.997-49.511,25.19c-16.608,8.193-33.315,16.178-50.122,23.955
	c-16.803,7.78-33.703,15.35-50.698,22.71c-16.992,7.36-34.072,14.509-51.24,21.445c-17.171,6.937-34.425,13.661-51.763,20.171
	c-17.337,6.507-34.751,12.801-52.241,18.882c-17.493,6.077-35.059,11.938-52.695,17.583c-17.64,5.641-35.345,11.064-53.115,16.27
	c-17.773,5.205-35.607,10.19-53.501,14.956c-17.897,4.762-35.85,9.302-53.857,13.618c-18.008,4.32-36.066,8.415-54.175,12.285
	c-18.109,3.871-36.263,7.518-54.463,10.942c-18.2,3.421-36.439,6.616-54.717,9.585c-18.434,2.959-36.901,5.69-55.4,8.193
	c-18.503,2.5-37.031,4.774-55.586,6.821c-18.558,2.047-37.137,3.866-55.738,5.454c-18.604,1.588-37.223,2.948-55.859,4.077
	c-18.633,1.129-37.278,2.03-55.937,2.7c-18.656,0.67-37.318,1.111-55.986,1.323c-18.668,0.212-37.337,0.193-56.006-0.054
	c-18.668-0.25-37.331-0.729-55.986-1.436c-18.656-0.71-37.3-1.648-55.933-2.817c-18.633-1.166-37.248-2.562-55.844-4.189
	c-18.6-1.627-37.176-3.483-55.728-5.566c-18.551-2.083-37.075-4.395-55.571-6.934c-18.496-2.542-36.958-5.311-55.386-8.306
	c-18.428-2.995-36.816-6.216-55.166-9.663c-18.346-3.447-36.649-7.121-54.907-11.021c-18.259-3.899-36.465-8.022-54.619-12.368
	c-18.157-4.349-36.258-8.919-54.302-13.711c-18.044-4.795-36.025-9.81-53.945-15.044c-17.92-5.238-35.773-10.693-53.56-16.367
	c-17.783-5.677-35.495-11.572-53.135-17.686c-17.643-6.11-35.207-12.438-52.69-18.984c-17.484-6.546-34.885-13.306-52.202-20.278
	c-17.318-6.973-34.548-14.159-51.689-21.558c-17.142-7.396-34.189-15.003-51.143-22.822c-16.953-7.819-33.807-15.845-50.562-24.077
	c-16.758-8.232-33.41-16.67-49.956-25.313c-16.55-8.646-32.99-17.492-49.321-26.538c-16.328-9.049-32.544-18.297-48.647-27.744
	c-16.1-9.45-32.083-19.095-47.949-28.935c-15.866-9.84-31.606-19.876-47.222-30.107c-15.618-10.228-31.108-20.648-46.47-31.26
	c-15.361-10.609-30.589-21.406-45.684-32.393c-14.912-10.935-29.687-22.049-44.326-33.345
	c-14.639-11.296-29.139-22.767-43.501-34.414c-14.359-11.65-28.574-23.472-42.646-35.464c-14.072-11.996-27.996-24.16-41.772-36.494
	s-27.399-24.835-40.869-37.505c-13.473-12.666-26.789-25.495-39.946-38.486c-13.157-12.988-26.155-26.136-38.994-39.443
	c-12.839-13.311-25.513-26.774-38.022-40.391c-12.51-13.617-24.852-27.383-37.026-41.299c-12.171-13.916-24.173-27.98-36.006-42.192
	c-11.833-14.209-23.49-28.561-34.971-43.056c-11.481-14.492-22.783-29.123-33.906-43.892c-11.126-14.772-22.07-29.677-32.832-44.712
	c-10.762-15.036-21.338-30.2-31.729-45.493c-10.394-15.296-20.599-30.715-30.615-46.255c-10.016-15.543-19.842-31.206-29.478-46.987
	c-9.632-15.785-19.072-31.683-28.32-47.695c-9.247-16.012-18.297-32.136-27.151-48.369c-8.854-16.231-17.509-32.568-25.965-49.014
	c-8.456-16.445-16.71-32.99-24.762-49.634c-8.053-16.644-15.901-33.383-23.546-50.22c-7.644-16.839-15.082-33.767-22.314-50.781
	c-7.232-17.018-14.255-34.123-21.07-51.313c-6.815-17.188-13.42-34.457-19.813-51.807c-6.394-17.35-12.576-34.775-18.545-52.275
	c-5.969-17.5-11.725-35.071-17.266-52.715c-5.541-17.64-10.867-35.345-15.976-53.115c-5.11-17.77-10.002-35.6-14.677-53.491
	c-4.675-17.891-9.132-35.835-13.369-53.833c-4.237-17.998-8.255-36.045-12.053-54.141c-3.798-18.096-7.375-36.237-10.73-54.424
	c-3.355-18.184-6.489-36.405-9.4-54.663c-67.133-416.845-21.285-866.738,135.871-1259.15
	c26.881-67.119,74.548-182.134,117.043-238.633c6.637-8.823,18.07-22.021,30.204-22.139c5.991-0.059,11.313,2.998,14.824,7.764
	c11.88,16.118-8.047,42.583-15.859,56.997c-98.477,181.621-165.261,371.929-209.95,573.442c-3.139,14.388-6.141,28.805-9.006,43.252
	c-2.865,14.447-5.593,28.919-8.185,43.418c-2.591,14.496-5.045,29.015-7.36,43.56c-2.316,14.544-4.494,29.11-6.534,43.696
	c-2.04,14.586-3.941,29.189-5.704,43.808c-1.763,14.623-3.387,29.26-4.873,43.911c-1.485,14.652-2.832,29.318-4.04,43.999
	c-1.207,14.678-2.276,29.365-3.205,44.063s-1.719,29.403-2.369,44.116c-0.65,14.714-1.161,29.43-1.532,44.15
	c-0.371,14.723-0.603,29.45-0.695,44.18c-0.092,14.727-0.045,29.453,0.143,44.18s0.514,29.45,0.98,44.17
	c0.466,14.72,1.072,29.434,1.817,44.141c0.745,14.71,1.63,29.411,2.653,44.102c1.024,14.691,2.187,29.372,3.488,44.043
	c1.302,14.668,2.743,29.323,4.323,43.965c1.58,14.646,3.298,29.272,5.155,43.882s3.853,29.199,5.986,43.77
	c2.134,14.573,4.405,29.125,6.815,43.652c2.409,14.528,4.957,29.033,7.641,43.516c2.685,14.479,5.506,28.932,8.465,43.359
	c2.958,14.427,6.053,28.824,9.285,43.193c3.231,14.372,6.599,28.709,10.102,43.013c3.503,14.303,7.142,28.574,10.916,42.813
	c3.774,14.235,7.682,28.433,11.725,42.593c4.043,14.163,8.22,28.286,12.53,42.368c4.311,14.082,8.754,28.122,13.331,42.119
	c4.577,13.997,9.286,27.951,14.127,41.86c4.841,13.91,9.814,27.772,14.918,41.587c5.104,13.815,10.339,27.58,15.704,41.294
	c5.365,13.718,10.859,27.382,16.483,40.991c7.073,16.872,14.354,33.654,21.843,50.346c7.489,16.693,15.184,33.289,23.085,49.79
	c7.901,16.501,16.005,32.9,24.312,49.199c8.309,16.299,16.817,32.493,25.525,48.584c8.711,16.09,17.619,32.069,26.724,47.934
	c9.105,15.869,18.405,31.621,27.9,47.256c9.495,15.638,19.185,31.155,29.067,46.553c9.88,15.397,19.95,30.67,30.21,45.82
	c10.26,15.146,20.706,30.163,31.338,45.049c10.632,14.889,21.447,29.644,32.446,44.263c10.996,14.622,22.173,29.105,33.53,43.447
	c11.357,14.343,22.891,28.542,34.6,42.598c11.709,14.056,23.592,27.966,35.649,41.729c12.054,13.763,24.276,27.373,36.665,40.83
	c12.392,13.46,24.95,26.764,37.671,39.912c12.725,13.148,25.609,26.136,38.652,38.965c13.044,12.825,26.243,25.488,39.6,37.988
	c13.359,12.503,26.87,24.837,40.532,37.002c13.665,12.165,27.479,24.159,41.44,35.981c13.962,11.823,28.068,23.472,42.319,34.946
	c14.248,11.471,28.638,22.765,43.169,33.882c14.531,11.116,29.198,22.05,43.999,32.802c14.802,10.752,29.733,21.32,44.795,31.705
	c15.065,10.38,30.255,20.574,45.571,30.581c15.316,10.006,30.753,19.82,46.313,29.443s31.237,19.049,47.031,28.281
	c15.794,9.235,31.701,18.272,47.72,27.109c16.016,8.841,32.14,17.48,48.374,25.918c16.23,8.441,32.563,16.678,48.999,24.711
	c16.439,8.034,32.974,15.863,49.604,23.486c16.628,7.624,33.35,15.041,50.166,22.251c16.813,7.21,33.714,14.211,50.703,21.001
	c13.77,5.55,27.594,10.958,41.475,16.226c13.88,5.27,27.813,10.4,41.797,15.39c13.984,4.987,28.018,9.834,42.1,14.542
	c14.082,4.704,28.21,9.265,42.383,13.686s28.39,8.698,42.651,12.832c14.258,4.131,28.558,8.119,42.9,11.963
	c14.339,3.844,28.717,7.544,43.135,11.099c14.414,3.555,28.862,6.964,43.345,10.229c14.486,3.262,29.002,6.377,43.55,9.346
	c14.544,2.972,29.119,5.796,43.726,8.472c14.603,2.676,29.232,5.204,43.887,7.583s29.333,4.611,44.033,6.694
	c14.7,2.087,29.419,4.023,44.155,5.811c14.74,1.787,29.495,3.425,44.268,4.912c14.772,1.491,29.557,2.832,44.355,4.023
	c14.802,1.191,29.611,2.233,44.429,3.125c14.821,0.892,29.648,1.635,44.482,2.227c14.837,0.593,29.678,1.036,44.521,1.328
	c14.844,0.293,29.689,0.436,44.536,0.43s29.692-0.163,44.536-0.469c14.844-0.306,29.682-0.761,44.516-1.367
	c14.834-0.605,29.661-1.361,44.483-2.266c14.818-0.905,29.626-1.958,44.424-3.159c14.798-1.204,29.584-2.557,44.356-4.058
	c14.769-1.504,29.523-3.156,44.263-4.956c14.736-1.797,29.453-3.745,44.15-5.845c14.7-2.096,29.376-4.341,44.028-6.733
	c14.652-2.393,29.279-4.933,43.882-7.622c14.6-2.686,29.171-5.521,43.716-8.506c14.544-2.982,29.058-6.11,43.54-9.385
	c14.483-3.275,28.929-6.696,43.34-10.264c14.414-3.564,28.789-7.275,43.125-11.133c51.292-14.215,102.064-30.098,152.314-47.646
	c50.25-17.548,99.871-36.725,148.862-57.529c520.839-218.545,954.34-674.023,1166.615-1195.204
	c7.162-17.256,14.108-34.597,20.84-52.021c6.735-17.425,13.253-34.93,19.556-52.515c6.303-17.585,12.388-35.246,18.257-52.983
	c5.869-17.735,11.518-35.539,16.948-53.413c5.43-17.874,10.638-35.814,15.625-53.818c4.99-18.001,9.756-36.063,14.297-54.185
	c4.544-18.119,8.865-36.291,12.963-54.517c4.095-18.229,7.966-36.504,11.611-54.824c3.646-18.32,7.067-36.685,10.264-55.093
	c3.193-18.405,6.16-36.847,8.901-55.327c2.741-18.48,5.252-36.989,7.534-55.527c2.285-18.542,4.343-37.108,6.172-55.698
	c1.826-18.594,3.425-37.206,4.795-55.835c1.37-18.633,2.509-37.279,3.417-55.938c0.912-18.659,1.594-37.326,2.046-56.001
	c0.449-18.675,0.669-37.354,0.659-56.035c-0.006-18.682-0.244-37.36-0.713-56.035c-0.469-18.675-1.167-37.341-2.095-55.996
	c-0.928-18.659-2.085-37.303-3.472-55.933c-1.386-18.629-3.003-37.24-4.849-55.83c-1.846-18.591-3.919-37.155-6.221-55.693
	c-2.301-18.539-4.832-37.046-7.592-55.522c-2.757-18.477-5.741-36.916-8.951-55.318c-3.213-18.405-6.652-36.766-10.317-55.083
	c-3.662-18.317-7.551-36.587-11.665-54.81c-4.111-18.223-8.447-36.393-13.008-54.512c-4.56-18.115-9.344-36.172-14.351-54.17
	c-5.003-17.998-10.229-35.931-15.679-53.799c-5.446-17.871-11.11-35.672-16.992-53.403c-5.885-17.728-11.989-35.382-18.311-52.964
	c-6.318-17.578-12.853-35.076-19.604-52.495c-6.748-17.422-13.711-34.756-20.888-52.002
	C4275.34,1109.97,3831.136,656.792,3286.546,436.199c-14.47-5.898-28.999-11.64-43.589-17.226
	c-14.593-5.585-29.243-11.013-43.95-16.282c-14.71-5.27-29.474-10.38-44.292-15.332c-14.818-4.952-29.687-9.743-44.609-14.375
	c-14.922-4.631-29.892-9.101-44.912-13.41c-15.016-4.309-30.078-8.456-45.186-12.44c-15.107-3.984-30.257-7.806-45.449-11.464
	c-15.189-3.658-30.415-7.152-45.678-10.482c-15.267-3.33-30.567-6.495-45.899-9.496c-15.335-3.001-30.7-5.836-46.094-8.505
	s-30.815-5.173-46.264-7.511c-15.446-2.338-30.916-4.508-46.411-6.513s-31.011-3.841-46.548-5.511
	c-15.533-1.67-31.084-3.172-46.65-4.507c-15.566-1.335-31.146-2.503-46.738-3.502c-15.593-0.999-31.193-1.831-46.802-2.494
	c-15.612-0.663-31.227-1.159-46.846-1.486c-15.622-0.327-31.245-0.486-46.87-0.476c-15.625,0.009-31.247,0.187-46.865,0.533
	c-15.622,0.346-31.237,0.86-46.846,1.542c-15.609,0.682-31.208,1.533-46.797,2.551c-15.593,1.019-31.172,2.205-46.738,3.559
	c-15.563,1.354-31.112,2.875-46.646,4.564c-15.531,1.689-31.043,3.545-46.538,5.568c-15.492,2.023-30.96,4.212-46.406,6.569
	c-15.446,2.356-30.864,4.878-46.255,7.566c-15.391,2.688-30.75,5.542-46.079,8.561c-15.332,3.019-30.628,6.203-45.889,9.552
	c-15.261,3.349-30.484,6.861-45.669,10.538c-15.186,3.676-30.329,7.516-45.43,11.519c-15.104,4.003-30.163,8.168-45.176,12.495
	c-15.013,4.327-29.977,8.815-44.893,13.465c-80.708,25.03-158.886,57.032-236.611,89.992c-9.876-13.105-19.904-26.093-30.083-38.963
	C1815.102,301.004,2096.132,242.47,2386.449,228.109z"/>
<path style="fill:#232021;" d="M1045.795,418.749c2.866,0.543,4.312,0.713,7.197,1.774c14.775,5.432,61.147,85.39,75.766,103.9
	c29.087,36.836,62.627,72.192,97.153,103.96c63.74,58.638,138.687,107.1,172.729,190.825
	c34.854,85.723,22.661,160.752-12.246,244.282c24.359,16.211,48.285,33.039,71.777,50.483c-0.807-1.842-1.597-3.693-2.368-5.552
	c-41.787-101.309-24.863-171.709,15.313-268.34c27.104,11.66,54.951,23.062,80.479,37.92c3.763,2.171,7.471,4.434,11.123,6.787
	c3.652,2.354,7.243,4.795,10.771,7.324c3.532,2.533,6.999,5.15,10.4,7.852c3.402,2.702,6.733,5.487,9.995,8.354
	c3.265,2.868,6.457,5.814,9.575,8.838c3.119,3.024,6.16,6.123,9.126,9.297c2.966,3.177,5.851,6.424,8.657,9.741
	c2.803,3.317,5.522,6.702,8.159,10.156c2.64,3.451,5.192,6.964,7.656,10.542c2.464,3.578,4.837,7.214,7.119,10.908
	c2.285,3.698,4.478,7.448,6.577,11.25c2.1,3.805,4.103,7.658,6.011,11.558c1.908,3.903,3.719,7.852,5.435,11.846
	c1.712,3.991,3.325,8.023,4.839,12.095c1.517,4.072,2.931,8.179,4.243,12.319c1.309,4.141,2.516,8.312,3.623,12.515
	c1.169,4.385,2.227,8.796,3.174,13.232c0.947,4.437,1.782,8.895,2.505,13.374c0.723,4.479,1.333,8.973,1.831,13.481
	c0.495,4.508,0.877,9.027,1.148,13.555c0.27,4.531,0.426,9.064,0.469,13.599c0.039,4.538-0.034,9.074-0.22,13.608
	c-0.185,4.531-0.487,9.056-0.903,13.574c-0.413,4.518-0.941,9.024-1.582,13.516c-0.641,4.489-1.395,8.96-2.261,13.413
	c-0.866,4.456-1.842,8.887-2.93,13.291c-1.091,4.404-2.29,8.778-3.599,13.12c-1.309,4.346-2.725,8.654-4.248,12.925
	c-1.527,4.274-3.159,8.506-4.897,12.695c-1.738,4.189-3.581,8.333-5.527,12.432s-3.996,8.145-6.147,12.139
	c-2.149,3.997-4.398,7.936-6.748,11.816c30.117,23.94,61.348,46.636,92.104,69.756c-50.381-86.924-51.353-169.224-47.48-267.051
	c0.913-23.101,5.303-47.896,2.827-70.83c-3.169-29.429-14.077-63.652-24.985-91.143c-12.749-32.124-29.497-63.091-52.27-89.268
	c-18.14-20.85-40.039-37.109-60.943-54.985c-47.969-41.03-87.173-91.611-109.507-150.972c-8.687-23.081-23.677-64.761-12.954-88.32
	l4.028,0.308c17.485,19.292,21.401,54.858,30.903,79.116c8.151,20.804,18.229,40.63,30.234,59.478
	c23.686,37.031,53.901,64.316,87.065,92.51c85.781,72.915,110.098,136.25,136.352,243.662c19.497,8.364,38.257,19.019,55.986,30.64
	c78.203,51.245,138.276,128.105,156.748,220.874c11.021,55.347,4.092,105.542-12.012,158.926
	c-4.292,14.238-7.373,28.193-15.82,40.596l-2.51,3.638c2.002,11.953,80.273,68.936,95.342,81.235
	c-34.297-98.437-34.985-171.816-4.214-271.782c7.3-23.721,14.551-49.702,24.883-72.222c3.423-7.456,3.779-7.349,11.186-9.912
	c3.267-4.419-4.238-14.624-6.85-19.707c-27.363-53.237-82.148-173.013-78.247-231.055c0.405-6.035,0.918-8.193,5.815-12.07
	l4.888,1.333c5.469,5.679,7.949,11.196,10.474,18.667c7.099,21.065,10.283,44.297,16.235,65.889
	c9.248,33.521,24.263,69.438,39.6,100.64c15.371,31.269,32.612,60.825,52.954,89.121c44.336,61.66,98.096,117.949,127.354,189.018
	c41.709,101.304,26.274,208.354-15.103,306.987c30.254,26.616,60.786,52.847,90.322,80.268
	c-50.952-125.015-26.636-227.749,21.455-348.93c47.739,37.349,85.796,76.543,122.393,124.58
	c-15.913-63.643-14.712-130.449-36.826-193.223c-7.002-19.873-14.858-44.546-25.757-62.495
	c-8.203-13.501-30.728-35.674-33.154-50.376c-1.026-6.23,0.527-9.946,3.696-15.078l4.922-0.366
	c22.91,9.834,39.785,40.659,51.187,61.802c46.958,87.109,42.397,178.525,61.118,272.007c11.05,55.181,33.037,103.242,35.503,160.732
	c1.748,40.815-7.051,80.937-18.882,119.756c9.307-9.946,19.844-18.774,29.995-27.847c11.948-63.921,36.807-122.769,59.912-183.247
	c25.83,22.295,51.226,44.8,75.884,68.393c28.262-21.001,54.36-45.762,80.806-69.028c-7.066-20.967-13.159-41.382-17.065-63.208
	c-13.184-73.725-10.43-146.65,1.514-220.268c1.958-12.056,2.793-29.565,9.902-39.727l3.213,0.415
	c9.561,12.856,4.19,39.404,3.365,55.181c-4.507,86.391-1.128,165.825,18.691,250.664c65.61-59.126,135.127-114.463,202.397-171.758
	l336.855-289.751c47.624-40.465,95.032-81.182,142.227-122.148c30.19-26.387,61.738-52.666,88.291-82.788
	c15.156-17.192,22.813-36.533,30.327-57.793c-53.477-14.121-103.208-37.642-154.048-59.033
	c-74.204-31.23-148.178-62.212-224.565-87.842c-309.458-103.818-665.498-141.304-989.555-99.512
	c-100.142,12.915-196.299,35.234-294.072,59.399c-23.135-23.037-49.116-31.084-75.508-48.472
	c37.349-9.653,73.555-24.429,110.444-35.806c12.249-3.701,24.534-7.28,36.855-10.737c12.321-3.46,24.674-6.795,37.061-10.005
	c12.389-3.213,24.808-6.302,37.256-9.268c12.448-2.969,24.923-5.812,37.427-8.53c12.506-2.715,25.037-5.308,37.593-7.778
	c12.559-2.471,25.138-4.814,37.739-7.031c12.604-2.22,25.228-4.315,37.871-6.284c12.646-1.969,25.309-3.812,37.988-5.527
	c12.682-1.719,25.379-3.311,38.091-4.775c12.712-1.465,25.438-2.803,38.179-4.014c12.741-1.214,25.492-2.3,38.252-3.257
	c12.76-0.96,25.529-1.794,38.305-2.5c12.777-0.703,25.56-1.281,38.35-1.733c12.79-0.453,25.581-0.778,38.374-0.977
	c12.796-0.195,25.593-0.265,38.389-0.21s25.591,0.239,38.384,0.552c12.793,0.309,25.583,0.747,38.369,1.313
	c12.783,0.563,25.56,1.253,38.33,2.07c12.77,0.82,25.532,1.766,38.286,2.837c12.75,1.071,25.49,2.269,38.218,3.594
	c12.728,1.325,25.443,2.777,38.144,4.355c12.699,1.576,25.381,3.278,38.047,5.107c12.663,1.829,25.308,3.784,37.935,5.864
	c12.626,2.08,25.233,4.285,37.817,6.616c12.582,2.331,25.14,4.787,37.676,7.368c12.532,2.578,25.039,5.282,37.52,8.11
	c12.48,2.829,24.931,5.781,37.353,8.857c12.422,3.076,24.811,6.274,37.168,9.595c12.36,3.32,24.684,6.764,36.973,10.332
	c12.292,3.568,24.546,7.256,36.763,11.064s24.395,7.739,36.533,11.792c12.135,4.053,24.232,8.224,36.289,12.515
	c72.939,26.265,143.208,59.326,212.695,93.555c51.267,25.573,100.381,54.764,147.344,87.573
	c19.013,13.408,37.617,34.043,57.617,44.595l4.619-3.262c1.934-5.957,1.152-10.513-0.376-16.426
	c-4.814-18.608-17.851-43.159-34.834-53.276c-68.433-40.752-135.264-82.222-207.651-115.747
	c-12.432-5.856-24.924-11.579-37.476-17.168c-12.552-5.592-25.163-11.05-37.832-16.372c-12.669-5.322-25.392-10.509-38.169-15.562
	c-12.78-5.055-25.61-9.972-38.491-14.751c-12.884-4.782-25.817-9.427-38.799-13.936c-12.982-4.505-26.009-8.874-39.082-13.105
	c-13.073-4.229-26.19-8.32-39.351-12.275c-13.161-3.952-26.363-7.764-39.604-11.436c-13.239-3.672-26.517-7.204-39.834-10.596
	c-13.317-3.392-26.668-6.641-40.054-9.746c-13.385-3.109-26.802-6.074-40.249-8.896c-13.448-2.826-26.924-5.506-40.429-8.042
	c-13.506-2.539-27.036-4.933-40.591-7.183c-13.555-2.253-27.134-4.36-40.737-6.323c-13.597-1.963-27.215-3.781-40.854-5.454
	c-13.639-1.673-27.295-3.202-40.967-4.586c-13.672-1.384-27.357-2.623-41.054-3.718c-13.698-1.094-27.406-2.043-41.123-2.846
	c-13.717-0.803-27.442-1.461-41.172-1.974c-13.733-0.512-27.47-0.879-41.211-1.1c-13.737-0.221-27.477-0.297-41.221-0.227
	c-13.74,0.07-27.479,0.286-41.216,0.648c-13.737,0.361-27.468,0.868-41.191,1.521c-13.727,0.653-27.445,1.451-41.152,2.395
	c-13.708,0.944-27.406,2.033-41.094,3.267c-13.685,1.234-27.355,2.613-41.01,4.136c-13.656,1.523-27.295,3.192-40.918,5.005
	c-13.62,1.813-27.22,3.771-40.801,5.874c-13.581,2.103-27.137,4.349-40.669,6.738c-13.532,2.389-27.036,4.92-40.513,7.593
	c-13.48,2.676-26.929,5.495-40.347,8.457c-13.418,2.959-26.803,6.061-40.156,9.307c-99.595,24.517-194.629,60.522-290.688,95.825
	c-12.065-11.89-21.914-25.654-30.351-40.278c51.426-24.766,107.202-43.301,161.367-61.04c17.07-5.563,34.211-10.895,51.421-15.996
	c17.214-5.098,34.492-9.964,51.836-14.6c17.347-4.632,34.751-9.029,52.212-13.192c17.464-4.163,34.98-8.089,52.549-11.778
	c17.572-3.689,35.189-7.14,52.852-10.354c17.663-3.213,35.366-6.187,53.11-8.921c17.741-2.734,35.518-5.229,53.33-7.483
	c17.81-2.254,35.646-4.267,53.511-6.039c17.865-1.772,35.75-3.302,53.657-4.591c17.907-1.288,35.827-2.335,53.76-3.139
	c17.936-0.804,35.879-1.366,53.828-1.685c17.949-0.319,35.9-0.396,53.853-0.23c17.953,0.166,35.899,0.574,53.838,1.225
	c17.943,0.651,35.872,1.544,53.789,2.68c17.917,1.135,35.814,2.513,53.692,4.132c17.881,1.619,35.736,3.48,53.564,5.582
	c16.364,1.854,32.702,3.915,49.014,6.183c16.312,2.268,32.593,4.741,48.843,7.421s32.464,5.564,48.643,8.654
	c16.175,3.09,32.31,6.384,48.403,9.882c16.094,3.498,32.14,7.199,48.14,11.104c16,3.905,31.948,8.01,47.847,12.317
	c15.896,4.31,31.734,8.818,47.515,13.525c15.781,4.707,31.5,9.614,47.158,14.722c15.657,5.107,31.248,10.412,46.772,15.913
	c15.524,5.498,30.975,11.193,46.353,17.085c15.381,5.892,30.684,11.978,45.908,18.257c15.225,6.279,30.368,12.751,45.43,19.414
	c15.062,6.66,30.037,13.511,44.927,20.552c14.89,7.041,29.686,14.269,44.39,21.685c14.707,7.415,29.317,15.016,43.828,22.803
	c14.515,7.783,28.928,15.75,43.237,23.901c38.418,22.1,88.784,44.912,115.923,80.84c22.329,29.551,27.485,70,22.52,105.84
	c-5.513,39.741-25.078,73.149-53.14,101.226c-47.759,47.783-102.925,90.674-154.287,134.629l-291.079,249.673l-1131.879,965.468
	l-754.091,640.635l-286.963,245.693c-43.906,37.158-87.129,77.632-133.398,111.641c-37.417,27.5-76.592,37.583-122.314,30.234
	c-39.321-6.318-71.851-28.467-94.316-60.942c-23.579-34.087-41.177-103.921-54.302-145.151
	c-6.058-19.346-11.831-38.776-17.318-58.291c-5.489-19.511-10.69-39.101-15.605-58.77c-4.915-19.664-9.541-39.397-13.878-59.199
	c-4.338-19.802-8.384-39.663-12.141-59.585c-3.756-19.919-7.22-39.889-10.392-59.912c-3.172-20.023-6.049-40.086-8.634-60.19
	c-2.584-20.107-4.874-40.248-6.869-60.42c-1.995-20.172-3.694-40.369-5.098-60.591s-2.511-40.461-3.323-60.718
	c-0.811-20.254-1.326-40.516-1.544-60.786c-0.218-20.27-0.14-40.539,0.235-60.806c0.375-20.267,1.047-40.525,2.015-60.776
	c0.968-20.247,2.232-40.477,3.792-60.688c1.56-20.211,3.416-40.395,5.566-60.552c2.151-20.156,4.596-40.277,7.336-60.361
	c2.74-20.085,5.773-40.125,9.1-60.122c37.689-223.848,96.904-417.793,199.282-621.05c21.704-43.096,43.076-89.604,70.991-129.092
	c7.354-10.4,20.977-27.959,35.049-28.193c6.611-0.112,11.367,3.545,15.391,8.408c3.613,4.37,6.567,12.627,5.464,18.32
	c-3.53,18.198-29.57,54.927-39.419,72.3c-8.33,14.723-16.475,29.549-24.434,44.478c-7.956,14.928-15.724,29.954-23.306,45.078
	c-7.578,15.124-14.966,30.342-22.163,45.654c-7.197,15.309-14.201,30.707-21.011,46.191c-6.81,15.488-13.423,31.058-19.839,46.709
	c-6.419,15.651-12.64,31.382-18.662,47.192c-6.022,15.807-11.844,31.69-17.466,47.646c-5.622,15.954-11.043,31.977-16.265,48.071
	c-5.218,16.091-10.233,32.246-15.044,48.467c-4.814,16.217-9.424,32.492-13.828,48.823c-4.401,16.335-8.599,32.721-12.593,49.16
	c-3.991,16.442-7.773,32.93-11.348,49.463c-3.577,16.536-6.947,33.114-10.107,49.731c-3.158,16.621-6.107,33.278-8.848,49.971
	c-2.74,16.693-5.27,33.418-7.59,50.176c-2.319,16.758-4.428,33.542-6.325,50.352c-32.489,292.094-11.419,581.982,77.431,862.792
	c12.729,40.225,29.268,107.207,56.533,139.209c15.542,18.242,42.993,30.801,66.802,31.689c28.716,1.069,51.875-10.429,74.614-26.655
	c23.218-16.577,44.526-36.807,66.162-55.459l91.719-78.013l321.059-274.902l451.997-383.13
	c90.796-76.851,184.57-152.422,271.416-233.613c-19.658-11.865-52.93-17.109-68.262-32.334c-2.978-2.959-1.792-5.601-1.733-9.492
	c3.662-5.264,4.072-6.216,10.62-7.749c14.595-3.427,30.796-2.671,45.752-5.156c46.641-7.754,96.392-21.582,136.611-46.978
	c-121.216-6.787-225.034-79.092-344.751-92.622c-47.002-5.317-90.854,0.649-137.534,4.78c-3.501-2.505-5.293-3.696-7.036-7.813
	c-1.694-3.994-1.133-2.559,0.894-7.29c13.804-11.318,38.608-13.73,56.001-15.586c128.97-13.76,234.512,45.479,353.745,79.37
	c34.096,9.692,68.076,13.843,103.208,17.241c22.256-16.563,43.291-35.767,64.536-53.652
	c-124.59,19.077-233.813-52.222-340.815-102.754c65.195-36.738,159.668-96.011,231.963-109.917
	c65.596-12.622,139.106,5.01,195.625,39.458c18.599,11.333,35,25.806,53.276,37.554c6.465,4.155,11.533,7.309,19.229,5.684
	l0.527-1.738c-1.543-10.381-8.564-18.95-15.469-26.519c-20.84-22.847-47.031-42.939-70.18-63.662
	c-41.426-37.1-82.158-75.327-125.532-110.151c-113.564,129.419-252.07,172.109-416.953,124.624
	c-84.146-24.233-149.741-54.844-240.698-56.811c-64.565-1.396-94.15,10.186-152.837,28.77c-10.737,3.403-20.024,6.933-30.566,1.479
	c-0.42-6.904,1.841-9.365,5.078-15.361c16.65-12.627,44.878-19.214,64.961-25.102c206.27-60.483,339.673,79.834,524.912,57.944
	c11.042-1.24,21.982-3.076,32.822-5.508c10.843-2.428,21.522-5.439,32.036-9.033c42.412-14.634,128.73-56.255,156.899-92.183
	l-0.991-1.982c-14.16,9.351-27.129,20.273-41.455,29.453c-51.265,32.847-110.566,55.728-171.777,57.598
	c-121.685,3.706-240.815-54.727-327.993-137.3c153.794-80.737,322.304-110.981,473.564-9.194
	c13.779,9.273,49.927,45.298,62.852,47.158c3.174,0.459,7.7-5.108,10.078-7.236l-0.186-4.634
	c-29.888-30.405-64.702-57.388-97.358-84.849c-56.831-47.788-113.828-95.483-173.691-139.473c-0.434,0.723-0.845,1.465-1.304,2.178
	c-15.571,24.414-38.901,44.907-61.787,62.295c-96.069,72.998-220.644,94.658-338.32,74.351
	c-81.382-14.043-156.851-48.862-240.703-48.858c-41.851,0.005-80.039,7.915-118.735,23.687
	c-16.572,6.753-33.032,15.215-50.425,19.546c-6.226-2.173-7.593-1.943-11.167-7.344c0.474-4.624,1.44-7.285,4.458-10.766
	c12.036-13.901,40.601-22.529,57.632-28.687c146.421-52.944,231.211,6.431,367.915,27.729c42.749,6.66,85.146,5.381,128.086,2.075
	c-82.134-13.037-154.858-43.794-231.108-75.254c53.228-36.313,95.967-79.868,154.956-108.833
	c78.867-38.721,152.056-43.911,234.668-15.356c-53.662-37.373-102.768-81.016-156.352-118.53
	c-9.004,21.626-21.475,40.776-37.988,57.402c-21.084,21.23-46.494,38.169-72.187,53.257
	c-146.431,86.001-290.034,1.865-440.644-16.89c-25.313-3.149-53.975-3.335-79.263,0.098c-17.808,2.422-35.552,7.153-53.574,7.114
	c-6.074-3.765-6.704-4.683-9.995-11.065c1.162-4.985,0.952-6.597,5.752-9.326c7.134-4.063,18.076-5.469,26.147-7.241
	c75.019-16.436,156.401,1.802,229.336,19.927c-23.301-12.212-46.763-24.121-69.097-38.062
	c52.417-49.263,109.307-99.258,177.612-124.692c89.424-33.301,172.505-6.904,254.194,34.204
	c21.597,10.869,42.158,23.379,64.141,33.555c-54.556-60.942-188.467-144.629-260.366-191.816
	c-4.85,8.496-10.016,16.794-15.498,24.893c-5.479,8.102-11.26,15.983-17.344,23.642c-6.081,7.66-12.446,15.078-19.097,22.256
	c-6.647,7.175-13.558,14.085-20.732,20.732c-87.895,81.855-189.902,85.415-302.471,66.787
	c-37.09-6.138-74.199-14.775-111.636-18.438c-32.285-3.154-64.819-1.978-97.08,0.898c-28.511,2.539-57.666,6.597-85.239,14.468
	c-14.971,4.272-81.528,33.496-90.293,32.407c-3.774-0.474-2.983-1.064-5.635-4.531c0.112-4.644,0.615-6.812,3.105-10.903
	c12.168-19.961,59.258-33.726,81.675-39.712c67.549-18.037,135.107-20.762,204.614-20.43c18.984-23.218,35.952-47.646,56.406-69.731
	c62.188-67.153,130.415-97.744,221.367-101.421c-43.848-13.218-90.21-19.854-135.517-25.898
	c-166.499-22.202-361.201-25.376-519.008,40.498c-23.375,9.761-48.392,21.929-68.52,37.475
	c-9.725,7.515-18.667,16.616-28.909,23.369c-5.159,3.403-9.401,4.839-15.654,5.054l-3.431-3.462
	c-0.333-4.814-0.108-7.671,1.668-12.28c12.36-32.085,75.767-59.902,106.069-72.632c231.626-97.261,612.886-59.38,840.869,33.994
	c-79.531-57.627-170.62-122.046-258.603-165.044c-62.959,13.755-132.871,20.181-196.68,11.548
	c-138.726-18.774-238.52-115.254-319.492-222.212c161.87-17.402,318.794-19.292,448.491,95.962
	c31.899,28.345,55.396,69.273,86.714,94.731c21.309,17.319,49.927,29.761,73.516,44.023c48.203,29.16,94.976,59.087,140.493,92.324
	c-32.847-34.341-50.908-78.608-72.266-120.391c-52.896-103.467-117.519-193.55-210.752-264.834
	c-75.557-57.773-155.371-92.266-245.742-120.054c-27.012-8.306-54.326-12.759-82.27-16.602c-12.373-1.704-25.601-2.007-37.705-4.99
	c-6.714-1.65-10.938-3.94-15.962-8.604l-0.147-5.159c0.728-0.577,1.396-1.239,2.188-1.732c16.284-10.199,49.897-3.832,68.144-1.181
	c6.325,0.965,12.637,2.015,18.936,3.15c6.296,1.135,12.575,2.356,18.838,3.662c6.266,1.305,12.513,2.694,18.74,4.165
	c6.224,1.475,12.428,3.032,18.613,4.673c6.185,1.641,12.347,3.364,18.486,5.171c6.136,1.807,12.248,3.696,18.335,5.669
	c6.087,1.973,12.147,4.027,18.179,6.162c6.032,2.139,12.033,4.355,18.003,6.65c5.973,2.298,11.914,4.678,17.822,7.139
	c5.905,2.458,11.777,4.995,17.617,7.612s11.642,5.313,17.407,8.086c5.768,2.773,11.496,5.623,17.183,8.55
	c5.69,2.93,11.339,5.934,16.948,9.014c5.609,3.083,11.174,6.239,16.694,9.468c5.524,3.232,11.003,6.538,16.436,9.917
	c5.433,3.379,10.82,6.829,16.162,10.352c5.342,3.525,10.633,7.122,15.874,10.791c5.244,3.665,10.438,7.402,15.581,11.211
	c5.143,3.805,10.233,7.681,15.269,11.626c5.039,3.945,10.023,7.957,14.951,12.036c4.932,4.082,9.806,8.228,14.624,12.436
	c4.814,4.212,9.574,8.488,14.277,12.827c4.704,4.339,9.347,8.74,13.931,13.203c4.583,4.466,9.105,8.992,13.564,13.579
	c4.46,4.587,8.857,9.233,13.193,13.94c4.336,4.704,8.608,9.466,12.817,14.287c4.206,4.821,8.346,9.699,12.422,14.634
	c4.076,4.932,8.084,9.919,12.026,14.961c3.939,5.039,7.811,10.132,11.616,15.278c3.802,5.146,7.534,10.342,11.196,15.586
	c3.665,5.247,7.257,10.542,10.776,15.884c3.519,5.345,6.966,10.736,10.342,16.172c35.908,56.821,60.376,121.816,100.752,175.395
	c-64.59-125.869-65.073-200.952-44.502-337.759c-53.354-58.823-120.708-127.134-154.853-199.197
	C1044.467,437.498,1041.464,430.954,1045.795,418.749z"/>
<path style="fill:#FEFEFE;" d="M2565.565,1659.638c2.276,1.538,3.067,1.958,5.264,4.141c9.209,9.155,28.321,32.061,27.832,44.585
	l-8.511,3.53c-0.723-0.395-1.499-0.703-2.168-1.182C2575.15,1701.474,2569.71,1674.623,2565.565,1659.638z"/>
<path style="fill:#FEFEFE;" d="M2022.387,2189.799l2.671,0.942c-6.934,14.121-36.211,31.963-49.155,42.334l-24.077-8.701
	c-4.469-1.856-8.957-3.667-13.462-5.435c7.227-5.927,24.819-6.938,34.429-9.912
	C1989.677,2203.808,2006.078,2196.591,2022.387,2189.799z"/>
<path style="fill:#FEFEFE;" d="M2555.672,1654.403c7.3,7.573,12.974,57.573,19.023,72.915c-15.898,12.09-30.654,25.21-45.483,38.574
	c-1.943,1.807-4.453,3.037-6.719,4.414C2518.895,1755.414,2548.895,1673.71,2555.672,1654.403z"/>
<path style="fill:#FEFEFE;" d="M2072.216,1897.846c81.787-5.659,154.897,25.576,217.314,76.743
	c-5.625,4.731-11.494,9.941-17.813,13.76c-15.317,9.248-38.271,11.763-55.742,14.648c-93.97,15.547-145.444,8.281-236.294-13.75
	c40.269,27.026,89.531,37.437,136.724,44.16c45.703,1.411,84.058-7.334,126.694-23.579c-17.954,16.26-33.467,26.997-57.49,32.314
	c-92.368,20.435-211.411-22.353-287.822-72.275C1944.936,1941.083,2017.816,1905.761,2072.216,1897.846z"/>
<path style="fill:#FEFEFE;" d="M1162.534,1078.383c35.322,5.356,68.965,16.45,103.086,26.68c-2.663,3.981-5.42,7.896-8.271,11.743
	c-2.855,3.848-5.801,7.622-8.838,11.323c-3.034,3.704-6.157,7.332-9.37,10.884c-3.213,3.555-6.51,7.028-9.893,10.42
	c-3.379,3.392-6.841,6.699-10.386,9.922c-3.542,3.226-7.158,6.362-10.85,9.409c-3.695,3.047-7.461,6.004-11.299,8.872
	c-3.838,2.865-7.742,5.635-11.714,8.311c-3.974,2.676-8.011,5.252-12.109,7.729c-4.095,2.481-8.249,4.86-12.461,7.139
	c-4.216,2.279-8.482,4.453-12.798,6.523c-4.32,2.07-8.687,4.035-13.101,5.894c-4.414,1.859-8.87,3.608-13.369,5.249
	c-4.499,1.644-9.035,3.177-13.608,4.6c-4.573,1.419-9.18,2.728-13.818,3.926c-4.635,1.198-9.298,2.284-13.989,3.257
	c-74.165,15.469-146.987,5.625-218.633-16.152c42.188-62.334,106.538-113.906,181.826-128.198
	c62.856-11.929,127.793-2.915,182.734,30.283c-27.471,15.112-53.027,33.32-81.006,47.642
	c-80.43,41.162-166.499,46.167-254.975,47.817c70.757,23.154,144.175,16.699,213.281-9.336
	c32.617-12.29,117.314-53.242,131.767-85.171l-2.822-4.937C1208.071,1102.221,1186.728,1087.797,1162.534,1078.383z"/>
<path style="fill:#FEFEFE;" d="M1225.952,675.014c47.319,27.808,90.503,74.204,117.3,121.924
	c43.047,76.65,45.508,157.212,22.271,240.493c-0.957,1.421-2.598,3.994-3.779,5.142c-1.982,1.924-4.238,3.374-7.022,2.778
	c-20.81-4.443-67.3-55.811-80.356-74.028C1213.847,886.884,1209.604,774.17,1225.952,675.014z"/>
<path style="fill:#232021;" d="M1231.523,692.353c24.39,9.204,48.672,40.215,63.442,61.23
	c43.584,62.017,80.923,185.786,67.959,260.708c-1.802-1.304-3.345-2.251-4.722-4.121c-6.484-8.809-12.09-58.174-14.771-71.06
	c-7.832-37.651-19.492-71.982-35.186-107.021c-13.271-29.499-28.75-57.788-46.435-84.868c-7.964-12.261-24.844-28.374-29.619-41.362
	C1230.395,700.966,1230.956,697.412,1231.523,692.353z"/>
<path style="fill:#FEFEFE;" d="M1476.225,873.208c7.689,3.581,15.326,7.266,22.91,11.055
	c64.214,32.358,114.277,86.787,136.538,155.718c13.979,43.291,18.662,127.793-2.49,168.725c1.162-14.769,1.907-29.557,2.236-44.365
	c1.914-80.752-17.436-169.858-74.971-230.181l-2.925,1.563c51.816,80.615,74.116,196.157,59.78,290.718
	c-48.091-32.217-101.343-78.555-129.599-129.189C1448.256,1026.567,1455.287,948.442,1476.225,873.208z"/>
<path style="fill:#FEFEFE;" d="M557.353,720.796c86.977-4.043,167.495,0.234,250.097,30.645
	c59.146,21.777,105.977,52.246,150.918,96.382c10.488,10.298,24.233,22.744,30.459,36.221l-3.003,3.33
	c-42.441,6.03-84.868,10.864-127.739,6.904C734.419,882.856,635.166,813.535,557.353,720.796z"/>
<path style="fill:#232021;" d="M583.452,728.691c17.451,3.555,31.533,22.197,46.475,32.012
	c75.205,49.399,159.512,98.032,251.059,105.264c23.52,1.86,46.475-1.011,69.893-0.606l1.772,3.052
	c-56.919,9.941-111.128,10.518-167.251-4.844C718.32,845.205,618.779,790.449,583.452,728.691z"/>
<path style="fill:#FEFEFE;" d="M1298.71,1253.281c84.663-7.686,150.962,20.459,227.251,52.695
	c-54.81,44.414-111.694,77.539-181.186,92.197c-80.098,12.886-161.191-10.527-231.958-47.578
	C1164.34,1298.881,1226.337,1264.496,1298.71,1253.281z"/>
<path style="fill:#232021;" d="M1460.405,1316.201l-0.474,3.867c-18.892,25.683-61.968,44.629-91.743,54.648
	c-68.516,23.052-136.592,16.616-201.138-15.044l-6.675-5.083c12.705-3.398,38.501,5.937,51.733,8.804
	C1307.011,1383.954,1375.595,1357.382,1460.405,1316.201z"/>
<path style="fill:#FEFEFE;" d="M1594.95,1436.435c0.4-0.068,0.791-0.171,1.192-0.21c72.671-7.598,137.368,21.885,194.824,63.755
	c-62.495,51.333-115.684,87.949-198.467,92.798c-72.588,0.645-135.923-27.075-199.478-59.219
	C1449.633,1482.138,1518.617,1446.381,1594.95,1436.435z"/>
<path style="fill:#232021;" d="M1707.484,1536.073c1.538,0.42,0.63-0.005,2.173,2.085c-9.912,6.587-20.181,12.3-31.182,16.846
	c-71.294,29.497-146.821,24.072-217.363-4.243c-3.896-1.816-4.975-2.129-7.534-5.752c22.09-1.284,48.896,7.969,70.879,11.924
	C1587.104,1568.197,1647.543,1553.393,1707.484,1536.073z"/>
<path style="fill:#FEFEFE;" d="M1790.976,1661.171c100.742-12.314,180.908,39.004,264.15,85.981
	c-48.784,36.738-117.466,53.233-177.095,58.853c-97.261,3.564-193.721-36.572-265.503-101.435
	c14.202-5.886,28.61-11.214,43.223-15.986c14.613-4.772,29.388-8.975,44.326-12.607c14.935-3.633,29.989-6.685,45.161-9.155
	C1760.411,1664.35,1775.657,1662.467,1790.976,1661.171z"/>
<path style="fill:#232021;" d="M1702.997,1747.573c16.851,1.157,34.897,8.164,51.235,12.656
	c38.398,10.561,75.425,17.5,115.391,16.494c10.337-0.264,20.713-0.415,30.889-2.383c13.857-2.686,68.037-18.496,76.377-16.045
	l-2.573,3.765c-11.904,6.1-24.245,11.126-37.021,15.078C1852.768,1803.764,1780.048,1787.797,1702.997,1747.573z"/>
<path style="fill:#FEFEFE;" d="M2307.059,1452.036c57.231,41.85,99.043,107.217,121.289,173.852
	c1.621,4.795,3.123,9.627,4.507,14.497s2.645,9.772,3.784,14.707c1.136,4.932,2.152,9.889,3.047,14.873
	c0.892,4.984,1.66,9.985,2.305,15.005c0.645,5.023,1.165,10.057,1.563,15.103c0.394,5.046,0.664,10.099,0.811,15.161
	c0.143,5.062,0.161,10.122,0.054,15.181c-0.107,5.062-0.34,10.119-0.698,15.171c-0.355,5.049-0.837,10.086-1.445,15.112
	c-0.609,5.026-1.341,10.034-2.197,15.024c-0.856,4.987-1.834,9.951-2.935,14.892c-1.104,4.941-2.328,9.852-3.672,14.731
	c-1.348,4.883-2.814,9.726-4.399,14.531c-1.588,4.808-3.294,9.573-5.117,14.297c-1.823,4.723-3.761,9.398-5.815,14.023
	c-2.054,4.629-4.222,9.203-6.504,13.721l-4.849,4.141c-0.688-0.107-1.392-0.117-2.056-0.313
	c-23.149-6.875-77.202-94.229-88.071-115.361C2269.608,1658.925,2276.957,1547.553,2307.059,1452.036z"/>
<path style="fill:#232021;" d="M2316.088,1471.274c27.021,15.313,52.974,58.96,67.734,85.762
	c51.133,92.876,54.941,180.728,26.216,280.786c-2.3,4.522-2.188,6.27-6.821,8.701
	C2422.089,1685.922,2391.874,1611.762,2316.088,1471.274z"/>
<path style="fill:#FEFEFE;" d="M1721.869,1014.75c55.269,32.285,99.687,74.053,132.851,129.111
	c52.407,87.017,56.445,180.166,32.446,276.548l-3.56,4.18c-20.083-6.553-66.987-49.541-81.045-65.303
	c-60.186-67.466-87.886-159.204-87.207-248.398C1715.6,1078.662,1719.97,1046.87,1721.869,1014.75z"/>
<path style="fill:#232021;" d="M1735.253,1031.792c28.018,9.624,71.729,65.112,88.535,89.639
	c47.798,69.761,75.454,153.535,59.292,237.881l-1.904,3.457c-6.484-13.569-4.077-36.86-7.002-52.363
	c-6.968-36.953-17.28-74.175-32.437-108.643c-7.051-16.208-14.915-32.01-23.594-47.407c-8.675-15.4-18.118-30.314-28.33-44.741
	C1771.747,1084.541,1747.602,1060.078,1735.253,1031.792z"/>
<path style="fill:#FEFEFE;" d="M2043.202,1205.385c22.476,18.789,41.748,45.854,58.56,69.688
	c65.371,92.676,94.648,181.821,74.81,294.888c-2.646,15.068-9.751,64.063-22.139,72.676l-4.814-1.396
	c-46.567-36.782-86.958-68.511-113.945-122.319C1981.791,1411.484,2007.401,1313.354,2043.202,1205.385z"/>
<path style="fill:#232021;" d="M2046.991,1222.612c21.045,13.726,47.056,54.243,60.195,76.616
	c51.216,87.222,72.324,196.211,46.675,295.005l-3.955,6.943c-5.972-20.688-2.778-55.083-4.287-77.661
	c-2.441-36.509-9.697-72.944-19.521-108.154c-7.686-27.819-17.414-54.904-29.185-81.255
	C2082.943,1303.241,2051.039,1254.311,2046.991,1222.612z"/>
<path style="fill:#232021;" d="M3821.819,1097.084c36.265-5.522,78.628-0.469,112.417,13.735
	c54.844,23.052,92.832,72.827,129.8,117.392c15.495,18.763,30.638,37.806,45.43,57.129c14.792,19.323,29.219,38.913,43.281,58.769
	c14.066,19.86,27.759,39.972,41.079,60.337c13.317,20.365,26.253,40.97,38.809,61.816c12.555,20.843,24.72,41.912,36.494,63.208
	c11.774,21.299,23.149,42.806,34.126,64.521c10.977,21.719,21.548,43.633,31.714,65.742c10.163,22.109,19.914,44.399,29.253,66.87
	c28.901,70.371,51.762,143.975,72.133,217.212c3.978,14.219,7.81,28.48,11.494,42.783c3.682,14.3,7.214,28.636,10.596,43.008
	c3.385,14.375,6.619,28.783,9.702,43.223c3.083,14.443,6.014,28.916,8.793,43.418c2.78,14.502,5.409,29.031,7.886,43.589
	c2.48,14.557,4.807,29.139,6.978,43.745c2.175,14.606,4.196,29.233,6.065,43.882c1.868,14.648,3.583,29.315,5.146,43.999
	c1.563,14.681,2.972,29.378,4.228,44.092c1.257,14.714,2.36,29.438,3.311,44.175c0.947,14.736,1.741,29.481,2.382,44.233
	c0.642,14.753,1.13,29.51,1.465,44.272c0.332,14.766,0.511,29.531,0.537,44.297c0.026,14.766-0.103,29.531-0.386,44.297
	c-0.28,14.763-0.716,29.522-1.309,44.277c-0.589,14.756-1.333,29.504-2.231,44.243c-0.898,14.74-1.95,29.468-3.154,44.185
	c-1.205,14.717-2.562,29.42-4.073,44.111c-1.514,14.687-3.178,29.358-4.995,44.013c-1.817,14.655-3.786,29.289-5.908,43.902
	c-2.125,14.612-4.401,29.202-6.827,43.769c-2.428,14.567-5.006,29.106-7.734,43.618c-2.731,14.512-5.613,28.993-8.647,43.443
	c-3.031,14.453-6.213,28.872-9.546,43.256c-3.333,14.388-6.816,28.739-10.45,43.052c-3.632,14.313-7.414,28.586-11.343,42.817
	c-3.932,14.235-8.011,28.428-12.236,42.578c-4.226,14.147-8.599,28.25-13.12,42.309c-4.521,14.056-9.188,28.065-14,42.026
	c-4.811,13.961-9.769,27.871-14.873,41.729c-5.101,13.858-10.347,27.66-15.737,41.406s-10.924,27.437-16.602,41.069
	c-6.396,15.778-12.989,31.475-19.78,47.09c-6.787,15.615-13.768,31.143-20.942,46.582c-7.178,15.439-14.544,30.788-22.1,46.045
	c-7.559,15.257-15.306,30.418-23.242,45.483c-7.933,15.062-16.055,30.025-24.365,44.888c-8.307,14.86-16.798,29.616-25.474,44.267
	c-8.679,14.648-17.536,29.188-26.572,43.618c-9.04,14.43-18.257,28.745-27.651,42.944c-9.395,14.199-18.965,28.28-28.711,42.241
	c-9.743,13.958-19.66,27.795-29.751,41.509c-10.091,13.714-20.352,27.302-30.781,40.762c-10.43,13.457-21.024,26.782-31.782,39.976
	c-10.762,13.196-21.686,26.255-32.773,39.175c-11.087,12.923-22.332,25.707-33.735,38.35c-11.406,12.64-22.967,25.137-34.683,37.49
	c-11.715,12.357-23.584,24.564-35.605,36.621c-12.021,12.057-24.189,23.963-36.504,35.718c-12.318,11.758-24.78,23.358-37.388,34.8
	c-12.604,11.445-25.35,22.731-38.237,33.857s-25.911,22.091-39.072,32.896c-13.161,10.801-26.455,21.437-39.883,31.909
	c-13.425,10.472-26.978,20.774-40.659,30.908c-13.682,10.133-27.488,20.095-41.421,29.883
	c-13.929,9.792-27.978,19.406-42.148,28.843c-14.17,9.44-28.456,18.703-42.856,27.788c-14.401,9.082-28.913,17.983-43.535,26.704
	c-14.623,8.724-29.352,17.262-44.189,25.615c-14.834,8.356-29.771,16.525-44.81,24.507c-15.039,7.985-30.174,15.78-45.406,23.384
	c-15.234,7.604-30.56,15.018-45.977,22.241c-15.42,7.227-30.926,14.257-46.518,21.094c-15.593,6.835-31.268,13.478-47.027,19.926
	c-339.258,139.297-736.186,179.424-1097.48,120.63c-40.684-6.777-81.135-14.733-121.353-23.867
	c-40.221-9.138-80.142-19.437-119.761-30.898s-78.87-24.069-117.754-37.823c-38.884-13.75-77.334-28.622-115.352-44.614
	c-38.115-16.344-75.713-33.8-112.793-52.369c-37.083-18.567-73.584-38.216-109.502-58.945
	c-35.921-20.729-71.196-42.5-105.825-65.313c-34.632-22.816-68.56-46.634-101.782-71.455c-30.352-22.721-60.046-46.27-89.082-70.645
	c-29.036-24.375-57.373-49.54-85.01-75.493c-27.634-25.954-54.525-52.658-80.674-80.112c-26.146-27.451-51.507-55.61-76.084-84.478
	c-25.347-29.385-52.759-58.955-72.026-92.807c-11.714-20.576-20.479-43.589-23.574-67.144
	c-6.909-52.583,17.656-110.674,49.404-151.567c25.947-33.418,60.82-62.026,92.119-90.41
	c45.068-41.328,90.714-82.008,136.938-122.041c162.288-141.602,325.454-282.181,489.497-421.738
	c492.825-430.163,990.841-854.233,1494.047-1272.211l398.232-335.073l126.025-104.092c31.738-26.548,62.754-54.873,96.436-78.896
	C3724.73,1118.505,3771.014,1103.11,3821.819,1097.084z"/>
<path style="fill:#FEFEFE;" d="M2565.448,2277.577c17.544,2.432,34.697,5.034,51.885,9.365
	c-26.924,18.618-58.398,33.897-88.325,47.071l-44.59,16.733C2512.294,2327.548,2538.734,2302.123,2565.448,2277.577z"/>
<path style="fill:#FEFEFE;" d="M2620.785,2289.408l6.567,0.171l2.271,2.607c-0.479,0.879-0.884,1.807-1.436,2.642
	c-5.747,8.652-16.436,16.001-24.468,22.515c-46.484,37.676-93.608,56.245-152.002,67.358l-6.997,0.576l-0.679-2.695
	c20.269-24.058,80.454-35.889,110.298-51.289C2577.699,2319.242,2599.169,2304.266,2620.785,2289.408z"/>
<path style="fill:#FEFEFE;" d="M2815.941,2072.299c4.345,13.296-2.007,40.718-2.598,55.41
	c-2.891,71.611,25.83,127.49,59.507,188.149c-18.003-18.296-37.046-35.708-55.63-53.423
	c-35.276-33.021-69.717-66.891-103.32-101.611C2749.037,2132.611,2783.05,2103.103,2815.941,2072.299z"/>
<path style="fill:#FEFEFE;" d="M2677.943,2281.483c27.656,14.004,172.71,141.777,192.471,166.875
	c-107.871-51.592-184.629-63.022-300.288-34.629c-66.714,18.457-132.563,40.986-202.52,39.321l31.597-31.138
	c10.697-0.094,21.387-0.389,32.07-0.884c79.614-3.95,172.871-32.148,226.811-94.653
	C2669.242,2313.451,2678.9,2299.022,2677.943,2281.483z"/>
<path style="fill:#FEFEFE;" d="M2921.083,1981.737c23.926,13.862,45.596,66.553,55.371,91.865
	c39.321,101.821,31.836,212.08-12.095,311.294c-38.276-38.33-76.416-99.932-98.276-149.326
	c-28.223-63.784-25.483-140.562-0.854-205.166c14.043-13.643,30.391-25.342,45.781-37.446
	c45.645,85.566,60.635,195.166,53.853,290.752c-2.207,31.094-8.789,61.596-10.625,92.705
	c54.575-101.689,39.312-232.876-5.449-334.765C2941.244,2024.477,2920.223,2000.463,2921.083,1981.737z"/>
<path style="fill:#FEFEFE;" d="M3447.459,2853.265l-2.432,1.401c-54.497-50.488-89.785-94.16-93.047-171.001
	c-3.897-91.782,34.565-174.492,54.531-262.031c64.297,90.591,119.878,207.769,100.029,321.689
	c-4.834,27.749-22.397,90.698-44.448,109.375c4.692-17.558,10.615-34.848,15.806-52.27c34.443-115.557,0.069-242.622-56.006-346.094
	c-2.021,3.438-1.528,4.565-1.338,8.584c1.469,30.952,16.699,63.53,25.503,93.11
	C3474.979,2653.192,3479.027,2756.317,3447.459,2853.265z"/>
<path style="fill:#FEFEFE;" d="M3145.965,2200.658c79.17,106.855,122.9,195.205,102.505,330.732
	c-4.536,30.137-10.371,72.432-28.315,97.808l-3.257-0.059c-0.801-5.469-1.777-9.326,0.166-14.658
	c5.658-17.962,10.111-36.219,13.36-54.77c3.252-18.551,5.272-37.235,6.059-56.05c3.931-83.77-16.211-159.712-55.639-233.193
	c-11.148-20.781-22.486-41.411-38.413-58.955c7.417,29.883,23.515,57.632,34.175,86.499
	c39.678,107.48,48.858,190.493,33.096,304.785l-2.793,10.332l-2.925,0.879c-18.717-17.022-37.272-34.217-55.664-51.587
	c-40.596-38.281-54.864-57.231-57.817-114.38C3086.141,2363.646,3121.815,2280.062,3145.965,2200.658z"/>
<path style="fill:#FEFEFE;" d="M3121.83,2874.623c80.146-2.788,143.427,23.808,215.82,52.7c-0.562,0.674-1.099,1.367-1.685,2.021
	c-49.487,55.044-134.175,82.578-205.732,87.969c-78.438,0.469-159.014-25.303-225.664-65.849
	C2970.199,2905.878,3042.284,2880.58,3121.83,2874.623z"/>
<path style="fill:#232021;" d="M3306.112,2934.535l3.862,1.48l-1.86,4.477c-49.707,38.003-124.024,54.585-185.674,54.658
	l-3.345-0.752c3.276-3.413,9.453-3.047,14.106-3.765c29.98-4.624,58.135-10.806,86.553-21.689
	C3248.666,2957.87,3276.454,2943.548,3306.112,2934.535z"/>
<path style="fill:#FEFEFE;" d="M2672.333,2432.67c74.326-1.724,171.992,19.941,235.893,59.565
	c-54.013,43.413-103.828,72.134-172.109,86.982c-11.226,1.235-22.417,2.241-33.711,2.5c-80.943,1.855-144.312-27.041-201.88-82.358
	C2554.584,2458.466,2604.574,2436.678,2672.333,2432.67z"/>
<path style="fill:#232021;" d="M2861.122,2507.338l1.905,1.768l-0.2,3.374c-5.368,3.968-10.872,7.733-16.514,11.294
	c-63.862,39.516-131.982,48.901-204.253,32.349l-7.398-3.062c17.534-5.967,46.939,0.332,66.573-0.649
	C2758.895,2549.535,2809.129,2530.682,2861.122,2507.338z"/>
<path style="fill:#FEFEFE;" d="M2878.9,2642.665c85.908,1.313,161.426,29.292,235.62,70.464
	c-70.933,59.873-137.817,85.957-230.742,85.044c-84.229-1.694-163.677-38.042-236.45-77.451
	C2720.194,2676.053,2793.036,2647.679,2878.9,2642.665z"/>
<path style="fill:#232021;" d="M3094.437,2712.386l1.333,0.332l1.196,2.705l-2.007-2.617l-0.044,4.766
	c-8.678,5.84-17.593,11.294-26.743,16.362c-81.606,45.2-172.871,57.769-262.632,31.69c-5.083-1.289-9.492-3.242-14.273-5.352
	c16.616-4.199,60.742,4.927,81.133,5.337C2948.915,2767.147,3024.369,2740.331,3094.437,2712.386z"/>
<path style="fill:#FEFEFE;" d="M3873.646,1146.503c21.343,4.312,43.34,8.296,61.836,20.42
	c47.822,31.343,94.375,97.114,129.023,142.93c11.556,14.99,22.887,30.15,33.994,45.478c11.106,15.329,21.984,30.819,32.632,46.47
	c10.645,15.651,21.055,31.457,31.23,47.417c10.175,15.964,20.11,32.074,29.805,48.33c9.697,16.256,19.15,32.655,28.359,49.194
	c9.209,16.536,18.168,33.208,26.88,50.015c8.711,16.803,17.171,33.734,25.381,50.791c8.209,17.057,16.162,34.232,23.857,51.523
	c7.698,17.295,15.136,34.699,22.314,52.212c7.181,17.513,14.1,35.13,20.757,52.852c6.653,17.721,13.043,35.537,19.17,53.447
	c6.126,17.91,11.984,35.908,17.573,53.994c5.589,18.083,10.908,36.247,15.957,54.492c5.049,18.242,9.826,36.556,14.331,54.942
	c4.505,18.385,8.735,36.832,12.69,55.342c3.955,18.512,7.635,37.079,11.04,55.698c3.096,16.601,5.989,33.239,8.682,49.912
	c2.692,16.67,5.182,33.372,7.47,50.107c2.289,16.732,4.374,33.488,6.255,50.269c1.882,16.784,3.56,33.587,5.034,50.41
	c1.475,16.823,2.746,33.662,3.814,50.517c1.067,16.855,1.93,33.721,2.588,50.596c0.657,16.875,1.11,33.755,1.357,50.64
	c0.251,16.888,0.296,33.776,0.137,50.664c-0.163,16.885-0.529,33.766-1.099,50.644c-0.57,16.878-1.343,33.749-2.32,50.611
	c-0.979,16.859-2.163,33.703-3.549,50.532c-1.387,16.833-2.977,33.646-4.771,50.439c-1.794,16.79-3.791,33.558-5.991,50.303
	c-2.201,16.745-4.603,33.46-7.207,50.146c-2.607,16.687-5.415,33.338-8.423,49.956c-3.008,16.618-6.218,33.196-9.629,49.736
	c-3.411,16.54-7.021,33.035-10.83,49.487c-3.812,16.452-7.822,32.855-12.032,49.209c-4.209,16.357-8.615,32.659-13.217,48.906
	c-4.603,16.25-9.401,32.441-14.395,48.574c-4.997,16.133-10.188,32.202-15.572,48.208c-5.384,16.006-10.961,31.945-16.733,47.818
	c-5.771,15.869-11.735,31.668-17.891,47.397c-6.152,15.726-12.495,31.375-19.028,46.948c-6.533,15.573-13.255,31.065-20.166,46.475
	c-6.908,15.41-14,30.734-21.279,45.972c-7.282,15.241-14.746,30.389-22.393,45.444c-7.646,15.058-15.475,30.021-23.486,44.887
	c-8.008,14.87-16.196,29.638-24.565,44.307c-8.366,14.668-16.909,29.233-25.63,43.696c-8.721,14.463-17.616,28.819-26.685,43.066
	c-9.069,14.245-18.309,28.379-27.72,42.403c-113.989-183.34-229.57-351.914-371.948-514.995
	c-45.645-52.431-92.342-103.906-140.093-154.424c-37.266-39.043-76.694-76.484-111.514-117.773
	c37.529-59.297,68.681-122.881,69.038-194.507c0.552-110.005-77.505-252.451-154.448-329.941
	c-12.363,28.618-21.753,58.931-31.816,88.428c-27.676,81.104-56.958,165.801-47.773,252.915c1.065,6.191,1.621,11.812,1.743,18.091
	c-9.634-2.344-64.604-60.01-76.269-71.777c30.4-49.36,57.715-116.367,61.03-174.634c112.129-131.064,31.572-312.217,28.642-464.341
	c-1.367-71.128,13.501-134.141,31.924-201.924c2.007-7.388,3.364-13.164-0.493-19.897l-4.785-0.806
	c-14.365,9.272-23.037,45.688-27.505,61.645c-30.439,108.701-26.206,202.671-8.052,312.251c7.158,43.183,15.767,85.986,15.005,130
	c-0.986,56.563-16.978,105.376-37.07,157.529c-7.304-48.667-15.874-95.84-36.308-140.971
	c-18.99-41.934-82.149-137.715-125.269-153.73c-4.165,1.348-4.946,1.147-8.115,4.555c-36.611,39.365-70.952,181.382-77.871,236.934
	c-3.14,25.176-3.252,49.746-2.617,75.044c-20.918-18.958-41.488-38.289-61.709-57.993c15.259-36.592,29.883-73.159,39.565-111.719
	c37.686-150.078,0.874-230.62-74.854-356.465c17.611-14.235,35.368-28.285,53.271-42.149
	c31.968,46.113,55.571,100.093,69.019,154.546c6.982,28.257,13.042,133.813,23.525,145.307l2.378-0.503
	c19.873-117.031-14.712-218.306-72.339-318.11c77.085-70.137,159.824-135.146,239.966-201.802l444.936-371.016
	c39.17-32.978,80.747-63.901,118.97-97.837C3869.246,1193.735,3871.375,1186.411,3873.646,1146.503z"/>
<path style="fill:#232021;" d="M3690.916,2299.872c66.748,13.237,136.855,66.137,175.703,120.864
	c54.673,77.021,63.389,168.066,47.93,259.043c-0.825,1.109-2.383,1.402-3.618,2.017c-56.025-20.865-104.756-50.518-145.512-94.937
	C3683.309,2497.362,3686.263,2413.153,3690.916,2299.872z"/>
<path style="fill:#FEFEFE;" d="M3808.504,2445.941c47.847,50.61,90.449,157.622,99.907,225.957
	c-25.19-18.618-54.053-119.937-67.485-152.715C3830.799,2494.476,3818.768,2470.604,3808.504,2445.941z"/>
<path style="fill:#232021;" d="M3893.382,1179.257c2.456,1.162,4.888,2.393,7.163,3.887c31.104,20.41,60.313,59.771,84.731,87.851
	c180.703,207.842,323.345,493.911,388.417,760.996c3.942,16.341,7.684,32.728,11.226,49.16c3.542,16.432,6.882,32.907,10.02,49.424
	c3.138,16.514,6.071,33.065,8.799,49.653c2.731,16.585,5.257,33.203,7.578,49.854c2.321,16.647,4.438,33.322,6.353,50.024
	c1.911,16.702,3.618,33.424,5.122,50.166c1.501,16.745,2.794,33.504,3.882,50.278c1.09,16.774,1.974,33.56,2.651,50.356
	c0.677,16.797,1.149,33.599,1.417,50.405c0.264,16.81,0.322,33.62,0.176,50.429c-0.15,16.81-0.505,33.615-1.064,50.415
	c-0.563,16.8-1.332,33.59-2.305,50.371c-0.974,16.784-2.152,33.551-3.535,50.302c-1.387,16.755-2.979,33.488-4.775,50.2
	c-1.797,16.716-3.799,33.405-6.006,50.069c-2.208,16.667-4.618,33.302-7.231,49.907c-2.614,16.604-5.433,33.175-8.457,49.712
	c-3.021,16.536-6.245,33.034-9.673,49.492c-3.427,16.455-7.056,32.866-10.884,49.233c-3.831,16.371-7.863,32.689-12.094,48.955
	c-4.232,16.27-8.662,32.486-13.291,48.648c-4.633,16.159-9.459,32.259-14.482,48.301c-5.026,16.042-10.248,32.018-15.664,47.93
	c-5.42,15.915-11.034,31.759-16.841,47.534s-11.807,31.476-17.998,47.105c-6.191,15.628-12.575,31.178-19.15,46.65
	c-6.576,15.472-13.34,30.86-20.293,46.162c-6.954,15.305-14.092,30.524-21.416,45.654c-7.328,15.13-14.839,30.168-22.534,45.112
	c-7.696,14.945-15.573,29.793-23.633,44.546c-8.063,14.75-16.304,29.399-24.722,43.95c-8.421,14.548-17.02,28.991-25.796,43.33
	c-2.49,3.613-2.988,5.825-7.183,7.441c-24.795-43.808-58.477-82.519-80.718-127.578c51.997-75.342,110.615-214.868,144.336-301.162
	c116.348-297.749,174.238-631.108,134.951-950.014c-13.579-110.21-39.297-217.461-71.392-323.618
	c-33.359-110.318-75.396-220.986-126.733-324.248c-42.207-84.456-88.968-166.312-140.283-245.566
	c-22.134-34.907-73.164-103.467-86.836-136.68C3894.578,1182.358,3893.992,1180.8,3893.382,1179.257z"/>
<path style="fill:#FEFEFE;" d="M2509.618,2453.973l3.462,0.098l0.322,1.704c-11.806,7.617-24.961,15.054-35.322,24.59
	c-5.645,5.19-9.419,11.313-8.887,19.326c1.108,16.636,24.604,39.922,36.523,51.264c54.272,51.68,123.476,75.601,198.027,73.052
	c95.362-3.261,169.272-50.517,232.686-117.861c64.824,64.829,135.234,124.248,197.803,191.284
	c-20.942-12.368-40.786-26.436-62.061-38.33c-7.363-4.069-14.845-7.904-22.446-11.504c-7.601-3.6-15.307-6.958-23.12-10.073
	c-7.813-3.118-15.714-5.99-23.706-8.613c-7.991-2.624-16.056-4.995-24.194-7.115c-8.141-2.119-16.339-3.981-24.595-5.586
	c-8.255-1.608-16.554-2.956-24.897-4.043c-8.34-1.087-16.706-1.912-25.098-2.475c-8.392-0.563-16.793-0.864-25.205-0.903
	c-93.609-0.107-237.949,53.818-304.761,120.4c91.465,61.309,216.646,111.479,327.256,110.063
	c104.932-1.348,182.553-48.818,254.165-121.836c60.967,58.257,132.862,125.513,185.908,190.259
	c-42.617-20.947-79.766-45.444-126.084-58.818c-102.529-29.604-195.635-7.393-287.056,42.793
	c-129.771-5.132-233.11-62.285-351.308-107.778c-72.222-27.793-157.715-36.782-234.287-26.855
	c-11.528,1.499-26.167,2.143-36.523,7.251c-6.909,3.408-12.5,6.885-15.264,14.36l2.397,4.683
	c11.026,7.11,97.944-5.288,117.285-5.415c19.214-0.127,38.428,2.329,57.393,5.219c148.34,22.622,277.539,127.583,429.585,130.259
	c-21.245,14.78-41.333,30.835-59.492,49.307c76.279,46.865,158.042,84.453,248.228,92.368
	c125.044,10.972,200.615-32.827,293.628-110.879c16.431,16.665,32.856,33.276,48.521,50.674
	c-100.82,36.289-200.576,76.133-309.35,79.004c-140.288,3.706-267.5-63.457-406.142-21.953
	c-30.762,9.209-146.338,52.3-160.454,78.33c0.786,6.186,0.688,6.797,4.844,11.353c5.659,1.309,9.624,0.552,14.893-1.626
	c11.304-4.673,21.851-12.5,32.983-17.886c55.263-26.733,115.615-53.93,177.256-59.463c60.684-5.444,122.559,12.158,181.787,23.789
	c190.337,37.383,315.273,6.348,488.305-66.987c45.293,40.864,86.46,86.899,127.09,132.324
	c82.998,92.808,159.946,188.916,236.152,287.295c75.996,102.026,167.51,228.491,223.589,340.81
	c-24.997,32.683-50.948,64.59-77.852,95.723c-26.904,31.13-54.715,61.427-83.432,90.894c-28.718,29.466-58.29,58.048-88.716,85.747
	c-30.427,27.699-61.654,54.462-93.682,80.293c-12.825,10.082-25.773,20.003-38.843,29.766
	c-13.069,9.766-26.256,19.368-39.561,28.809c-13.304,9.44-26.722,18.717-40.254,27.832c-13.529,9.111-27.17,18.057-40.923,26.836
	c-13.75,8.776-27.606,17.384-41.567,25.825c-13.962,8.437-28.024,16.704-42.187,24.8c-14.163,8.092-28.425,16.012-42.783,23.76
	c-14.355,7.744-28.805,15.311-43.35,22.7c-14.544,7.393-29.176,14.604-43.896,21.636c-14.72,7.035-29.523,13.887-44.409,20.556
	c-14.889,6.67-29.857,13.156-44.902,19.458c-15.046,6.302-30.168,12.42-45.366,18.355c-15.195,5.931-30.462,11.676-45.801,17.236
	c-15.338,5.56-30.742,10.931-46.211,16.114c-15.469,5.179-30.998,10.169-46.587,14.971c-15.593,4.801-31.24,9.411-46.943,13.828
	c-15.703,4.417-31.458,8.643-47.265,12.676c-15.808,4.03-31.662,7.868-47.564,11.514c-15.902,3.642-31.846,7.089-47.832,10.341
	c-15.986,3.255-32.01,6.312-48.071,9.17c-16.062,2.862-32.155,5.524-48.281,7.988c-16.127,2.468-32.281,4.737-48.462,6.807
	c-16.182,2.07-32.386,3.942-48.613,5.615c-16.227,1.673-32.473,3.148-48.735,4.424c-16.263,1.276-32.541,2.353-48.833,3.228
	c-16.289,0.879-32.586,1.556-48.892,2.032c-16.309,0.478-32.618,0.757-48.93,0.835c-16.315,0.078-32.627-0.044-48.936-0.366
	c-16.312-0.322-32.617-0.843-48.916-1.563c-16.296-0.723-32.581-1.644-48.857-2.764c-16.276-1.12-32.534-2.438-48.774-3.955
	c-16.244-1.52-32.466-3.237-48.667-5.151c-16.237-1.953-32.448-4.103-48.633-6.45c-16.188-2.347-32.344-4.889-48.467-7.627
	c-16.123-2.741-32.21-5.677-48.262-8.808c-16.052-3.128-32.064-6.452-48.037-9.971c-15.97-3.522-31.896-7.236-47.778-11.143
	c-15.879-3.906-31.711-8.004-47.495-12.295c-15.781-4.293-31.507-8.777-47.178-13.452c-15.674-4.674-31.287-9.538-46.841-14.589
	c-15.553-5.052-31.043-10.293-46.47-15.723c-15.43-5.433-30.789-11.05-46.079-16.851c-15.29-5.804-30.506-11.793-45.649-17.968
	c-15.147-6.172-30.215-12.528-45.205-19.067c-14.99-6.54-29.899-13.26-44.726-20.161c-14.828-6.904-29.567-13.986-44.219-21.246
	c-14.655-7.259-29.22-14.697-43.696-22.314c-14.473-7.614-28.851-15.402-43.135-23.364c-14.287-7.966-28.473-16.102-42.559-24.409
	c-14.089-8.307-28.073-16.786-41.953-25.435c-13.88-8.649-27.653-17.466-41.318-26.45c-13.669-8.984-27.225-18.132-40.669-27.441
	c-13.444-9.313-26.772-18.789-39.985-28.428c-13.213-9.636-26.307-19.432-39.282-29.39c-12.975-9.954-25.828-20.065-38.56-30.332
	s-25.334-20.688-37.808-31.265c-12.477-10.573-24.824-21.297-37.041-32.173c-12.217-10.872-24.299-21.893-36.245-33.061
	c-11.947-11.168-23.756-22.481-35.43-33.936c-11.673-11.455-23.206-23.05-34.6-34.785c-11.39-11.735-22.637-23.607-33.74-35.615
	c-11.1-12.008-22.054-24.15-32.861-36.426c-10.807-12.272-21.465-24.676-31.973-37.212c-10.505-12.532-20.856-25.192-31.055-37.979
	c-25.913-32.705-48.262-68.706-42.026-112.441c4.077-28.589,19.785-55.503,40.478-75.391
	c63.213-60.752,155.952-125.571,227.388-180.205l333.506-258.208c282.485-217.368,558.613-443.027,840.087-661.679
	c115.039,51.391,187.91,131.767,324.775,127.476c-30.84-10.264-61.968-19.604-91.816-32.593
	c-72.002-31.333-138.887-74.077-207.349-112.363c8.188-7.778,16.138-15.83,24.18-23.76
	C2399.828,2479.55,2451.044,2471.259,2509.618,2453.973z"/>
<path style="fill:#070605;" d="M2545.956,3982.645c-10.234-1.303-20.967-1.504-28.443-9.302l2.607-3.565
	c12.295-4.829,24.043-3.189,36.865-2.221l-13.247,3.965C2543.666,3975.931,2544.305,3978.563,2545.956,3982.645z"/>
<path style="fill:#232021;" d="M3131.512,3750.75l0.069,2.168l-17.378,4.751l-1.455,2.676c1.196,0.903,2.378,1.831,3.594,2.715
	c26.27,19.219,32.065-16.738,50.425-20.034l5.781,5.029c9.59-0.84,2.964-3.222,9.419-6.289c1.153,1.519,3.638,4.937,5.015,6.128
	c3.809,3.306,14.17-1.001,20.356-0.688c13.877,4.019,30.166,5.884,42.779,12.661l-0.84,3.008
	c-14.575,6.758-123.97,8.755-138.354,4.746c-3.584-1.001-4.61-3.135-6.636-6.05c3.281-5.522,6.924-7.656,13.266-9.248
	C3121.986,3751.209,3126.952,3751.063,3131.512,3750.75z"/>
<path style="fill:#232021;" d="M1522.221,4065.228c11.274-0.752,22.51,0.122,32.959,4.707c1.898,0.846,3.747,1.785,5.547,2.817
	c1.8,1.035,3.543,2.158,5.23,3.369c1.686,1.214,3.307,2.51,4.863,3.887c1.553,1.377,3.032,2.831,4.438,4.36
	c1.406,1.53,2.729,3.126,3.97,4.79c1.244,1.664,2.398,3.387,3.462,5.171c1.068,1.781,2.039,3.612,2.915,5.493
	c0.879,1.885,1.66,3.807,2.344,5.767c0.768,2.129,1.426,4.292,1.973,6.489c0.55,2.197,0.986,4.417,1.309,6.66
	c0.322,2.243,0.532,4.495,0.63,6.758c0.094,2.262,0.075,4.523-0.059,6.782c-0.134,2.263-0.381,4.51-0.742,6.743
	c-0.361,2.237-0.833,4.448-1.416,6.636c-0.586,2.191-1.279,4.344-2.08,6.46c-0.804,2.119-1.712,4.191-2.724,6.216
	c-9.468,18.564-24.019,27.192-43.213,33.423c-8.35,0.391-16.123,0.293-24.16-2.3c-16.338-5.278-29.976-16.011-37.5-31.602
	c-0.924-1.931-1.75-3.903-2.475-5.918c-0.726-2.012-1.349-4.056-1.87-6.133c-0.521-2.077-0.938-4.175-1.25-6.294
	c-0.309-2.116-0.513-4.243-0.61-6.382c-0.101-2.139-0.093-4.277,0.024-6.416c0.117-2.135,0.34-4.261,0.669-6.377
	c0.329-2.116,0.763-4.209,1.304-6.279s1.182-4.11,1.924-6.118C1485.839,4085.931,1501.762,4074.534,1522.221,4065.228z"/>
<path style="fill:#232021;" d="M3356.825,4050.77c9.721,0.054,19.648,0.967,28.818,4.36c15.845,5.859,28.506,17.5,35.068,33.125
	c7.046,16.782,6.875,36.797-0.918,53.296c-9.512,20.142-24.907,29.233-45.235,36.328c-15.22,0.298-29.121-0.566-42.646-8.32
	c-15.122-8.672-25.581-22.554-29.658-39.502c-4.014-16.685-1.538-35.313,7.573-49.956
	C3321.146,4061.907,3336.737,4055.384,3356.825,4050.77z"/>
<path style="fill:#232021;" d="M1783.759,3330.326c23.428-1.338,47.549,1.865,71.104,1.982c22.349,0.107,44.854-2.803,67.144-1.006
	c3.896,3.647,4.219,4.165,5.537,9.336c-7.705,6.333-19.448,6.182-29.097,9.57c-12.134,14.629-8.393,83.755-8.525,104.375
	c-0.342,57.021-0.337,114.041,0.015,171.059c0.171,24.263-2.407,53.149,2.002,76.865c1.133,6.074,3.198,11.025,7.852,15.293
	c16.138,14.81,48.882,15.625,69.932,14.858c74.082-2.705,45.439-37.231,66.089-59.131c4.907-0.508,4.209-1.426,8.374,1.934
	c2.632,14.624,0.02,30.977-1.074,45.806c-1.587,11.851-2.602,25.576-9.653,35.693c-6.567,9.428-16.362,13.96-27.495,15.391
	c-15.776,2.031-32.783-0.879-48.623-1.865c-32.446-2.016-65.703-4.37-98.208-3.823c-16.953,0.283-61.865,6.67-74.78-2.891
	l-0.054-4.204c6.938-2.837,14.502-3.721,21.582-6.226c8.53-3.022,13.945-10.068,16.875-18.345
	c8.696-24.556,5.542-306.577,2.861-349.76c-0.522-8.428-0.337-20.083-5.2-27.236c-5.908-8.691-17.129-11.562-26.86-13.125
	c-4.79-0.766-8.271-1.118-12.563-3.535C1779.765,3334.871,1780.624,3335.643,1783.759,3330.326z"/>
<path style="fill:#232021;" d="M1830.033,3965.608c72.3,3.218,164.316,9.023,235.068-2.002
	c-4.497,29.741-6.182,60.688-15.332,89.438c-3.955-13.496-6.646-27.559-17.441-37.437c-23.345-21.357-68.179-14.331-97.578-13.975
	c0.22,39.781-1.709,79.385-0.776,119.199c26.587,3.892,74.741,8.765,100.288-1.943c7.183-3.008,14.009-8.359,20.347-12.847
	c-2.329,29.214-5.962,58.33-8.984,87.48c-7.227,2.554-13.208-23.394-20.063-28.804c-4.575-3.613-10.244-5.903-15.557-8.213
	l-2.959-1.26c-24.391-0.511-48.784-0.884-73.179-1.118c-0.327,23.823-4.888,148.062,4.907,163.896
	c6.65,10.752,33.223,11.792,40.869,24.322c-1.279,0.771-2.441,1.777-3.833,2.31c-1.519,0.571-137.246,1.26-138.374,0.981l-2.28-5.03
	c4.326-8.022,14.731-12.153,22.456-16.503c10.801-24.297,12.266-315.996,3.54-330.654c-3.687-6.187-14.6-9.985-20.889-12.149
	c-5.342-1.841-9.78-3.447-14.609-6.499l-0.625-4.658L1830.033,3965.608z"/>
<path style="fill:#232021;" d="M2459.735,3324.803c64.517,15.381,256.006,12.627,322.666,0.386
	c-5.239,22.485-8.232,44.072-10.4,67.002c-0.645,6.846-0.469,24.839-3.369,30.718c-0.654,1.323-2.007,2.173-3.008,3.257
	l-4.463-1.665c-3.819-14.194-8.545-30.698-19.624-41.01c-20.425-19.009-69.458-11.778-95.415-11.524
	c-3.653,42.119-2.261,85.562-2.334,127.871c-0.113,69.116-0.503,139.116,4.443,208.061c0.816,64.8,41.104,37.149,53.179,53.95
	l-3.774,4.902c-8.774,2.925-130.156,1.968-141.734,0.107l-2.3-3.872c3.105-8.979,18.052-11.484,23.843-20.933
	c3.364-5.488,4.99-11.44,5.752-17.783c5.449-45.503,6.655-311.65-3.027-348.96c-2.212-2.041-2.075-2.158-5.244-3.701
	c-9.795-4.78-30.63-2.871-41.455-2.436c-89.282,3.589-54.907,29.995-81.187,41.543l-3.442-4.648
	C2444.921,3380.594,2454.569,3349.911,2459.735,3324.803z"/>
<path style="fill:#232021;" d="M3064.764,3958.924c1.465,0.097,2.495,1.543,3.691,2.392c1.255,11.338-7.08,64.233-8.55,80.781
	c-0.371,4.209-5.039,6.475-8.237,9.121l5.444,1.006c-17.754-4.272-5.493-31.953-18.213-41.909
	c-18.569-14.536-72.715-9.092-95.962-8.496c-2.578,41.021-0.566,83.218-0.21,124.36c19.658,1.504,79.458,5.439,95.761-3.296
	c3.096-1.66,6.118-3.403,9.238-5.034c5.303-2.778,4.531-2.231,9.941-1.597c4.805,20.933-2.759,82.944-8.032,105.005
	c-7.085-19.243-3.789-35.171-18.75-52.212c-12.686-14.453-68.433-8.447-88.296-8.677c-0.278,29.951-9.751,115.776,7.666,137.598
	c8.404,10.532,22.627,14.38,35.483,15.493c26.597,2.31,55.762,0.772,76.943-17.036c5.396-13.081,6.05-29.819,16.763-39.927
	c4.478,14.419-1.748,66.323-8.257,80.122c-2.861,6.074-7.964,10.01-14.316,11.968c-10.088,3.105-207.373-3.511-209.36-4.604
	c3.677-10.405,19.907-16.265,26.079-27.524c10.81-19.702,11.304-300.649,3.774-323.818c-6.787-20.884-27.407-9.395-41.865-16.748
	l1.997-5.356c26.494-14.878,177.969,9.375,225.122-10.659C3063.338,3959.573,3064.046,3959.241,3064.764,3958.924z"/>
<path style="fill:#232021;" d="M2556.986,3967.557c63.555,0.581,129.712,8.232,191.279-9.527
	c-3.677,23.433-5.776,73.237-17.89,91.436l-3.14-0.234c-2.886-10.352-6.318-34.321-16.289-39.766
	c-19.937-10.884-63.716-5.742-86.934-5.596c-1.514,40.156-2.059,80.325-1.636,120.508c44.58,1.719,76.133,7.554,115.415-18.218
	c-2.988,28.018-2.246,64.604-10.777,90.854l-3.237,2.339c-9.688-8.13-11.118-15.347-13.057-27.393
	c-4.776-7.065-10.234-8.887-18.271-10.356c-22.671-4.131-47.984-2.329-71.026-1.851c-0.263,30.015-7.466,121.909,12.569,140.645
	c14.731,13.779,40.151,14.263,59.204,12.9c13.477-0.962,34.36-3.911,43.774-15.035c8.901-10.517,6.939-25.278,15.269-35.214
	l5.557,0.02c2.227,15.718-1.592,62.329-10.888,75.336c-5.181,7.251-11.113,9.473-19.609,10.557
	c-49.292,6.313-111.46-7.588-164.624-3.457c-11.929,0.928-28.813,4.395-39.785-1.221l-0.742-2.203
	c5.234-6.455,9.014-8.198,16.567-11.308l10.073-4.214c4.458-15.02,6.626-29.336,7.9-44.932c3.262-39.917,9.175-263.242-3.97-289.731
	c-1.699-3.428-4.204-6.445-6.763-9.253c-1.651-4.082-2.29-6.714-2.217-11.123L2556.986,3967.557z"/>
<path style="fill:#232021;" d="M2947.513,3334.574c38.359-1.035,75.684-0.982,113.545-8.257
	c-1.338,20.435-5.171,78.54-16.167,94.175l-3.506,0.122c-11.567-18.53,2.945-36.831-27.051-44.302
	c-21.509-5.361-63.301-11.587-83.638-2.788c-8.32,16.924-4.424,113.755-3.559,137.969c39.97,3.013,91.333,9.502,125.556-14.663
	c-2.495,19.863-5.454,99.927-15.82,108.818c-15.596-14.448,3.008-43.55-32.339-51.211c-15.225-3.296-31.226-2.407-46.631-4.282
	c-9.927,1.426-20.327,1.548-30.352,2.212c-0.43,33.179-8.472,141.021,8.701,163.545c6.548,8.589,19.531,11.314,29.639,13.213
	c23.457,4.414,56.904,4.224,76.47-10.649c11.162-8.486,15.615-19.322,16.914-32.954c0.352-3.672,0.522-7.231,1.382-10.83
	c1.294-5.42,1.479-5.611,6.055-8.306l2.622,1.592c0.313,1.396,0.659,2.788,0.938,4.189c4.682,23.506,2.114,70.346-10.767,90.317
	c-8.115,6.094-17.988,6.948-27.856,7.661c-42.915,3.11-87.886-2.788-130.986-3.306c-22.271-0.269-47.31,3.76-68.926,1.543
	c-4.619-0.474-3.877-1.074-6.582-4.453l1.108-4.727c6.592-4.966,12.866-5.62,20.903-6.992l3.53-0.576
	c0.899-2.559,1.685-5.088,2.485-7.671c12.437-40.146,16.939-340.786,5.767-382.119c-5.927-21.909-36.308-13.887-51.636-23.291
	l0.21-3.76C2829.193,3325.14,2920.336,3332.596,2947.513,3334.574z"/>
<path style="fill:#232021;" d="M2308.314,3327.777c18.554,2.412,36.826,4.365,55.566,4.282c13.535-0.059,46.768-6.694,57.861-1.699
	c2.783,1.255,2.583,3.384,3.428,6.025c-5.576,8.692-21.729,11.24-25.137,18.413c-6.909,14.546-4.497,40.039-4.673,56.294
	c-0.913,85.161,12.363,220.659-27.891,296.05c-16.513,30.923-43.271,54.521-77.422,63.921
	c-37.945,10.444-89.805,8.892-124.395-10.972c-120.581-69.243-48.506-293.945-79.067-405.601c-0.273-1.001-0.571-2.002-0.854-3.003
	c-12.739-7.461-30.996-3.101-40.542-14.541l1.484-2.813c6.563-2.832,11.978-3.847,19.121-4.194
	c12.871-0.625,123.433,0.117,128.042,2.027c4.365,1.807,2.768,0.752,4.878,5.776c-8.238,7.969-24.883,5.352-34.082,14.448
	c-13.159,13.008-10.644,46.606-10.639,64.077c0.015,36.963,0.835,73.94,1.279,110.903c0.674,55.952-7.632,147.52,37.026,189.785
	c16.44,15.557,39.057,19.58,60.938,19.36c24.741-0.254,45.479-6.421,62.71-25.088c12.217-13.233,19.766-30.176,24.116-47.505
	c17.969-71.602,8.809-199.927,7.359-277.832c-0.938-50.435-35.488-30.996-48.863-48.638
	C2300.721,3330.643,2302.079,3331.121,2308.314,3327.777z"/>
<path style="fill:#232021;" d="M3131.512,3750.75c5.845-9.77,8.701-18.384,10.469-29.688c7.28-46.548,5.566-95.469,6.309-142.505
	c0.625-71.442,2.71-142.842,6.255-214.199c0.62-10.849-0.703-36.347,5.283-44.99c2.051-2.959,2.363-1.978,6.396-2.383
	c15.205,8.643,85.893,110.347,101.675,130.908c32.832,42.763,67.637,83.945,100.85,126.396
	c21.528,27.524,41.323,56.548,64.126,83.027c-4.453-60.371-3.564-121.499-4.472-182.026c-0.498-33.105,3.969-79.307-6.523-110.454
	c-5.41-16.065-26.626-20.376-40.049-27.471l-0.342-3.335c6.064-3.892,114.233-4.966,122.988-2.91
	c5.415,1.27,5.596,1.108,8.501,6.094c-9.077,9.805-29.575,5.156-35.928,18.018c-8.457,17.114-5.42,53.33-6.001,72.91
	c-1.24,42.1,2.388,329.321-9.785,347.304c-2.158,3.188-1.992,2.275-6.143,3.291c-33.369-12.891-237.192-280.986-268.227-320.825
	c-0.2,40.742,3.452,81.997,4.263,122.827c0.903,45.659-1.108,92.651,2.231,138.066c1.026,13.931,3.438,19.185,13.95,28.398
	c-6.186-0.312-16.548,3.994-20.356,0.688c-1.377-1.191-3.862-4.609-5.015-6.128c-6.455,3.066,0.171,5.449-9.419,6.289l-5.781-5.029
	c-18.359,3.296-24.155,39.253-50.425,20.034c-1.216-0.884-2.397-1.811-3.594-2.715l1.455-2.676l17.378-4.751L3131.512,3750.75z"/>
<path style="fill:#232021;" d="M1524.867,3299.075c44.604-4.795,143.462,2.441,186.509,18.252
	c-8.262,30.503-9.893,58.501-12.09,89.849c-0.806,11.431-1.128,33.027-9.946,40.64c-11.128-10.107-11.074-41.919-15.381-56.914
	c-4.438-15.449-22.617-30.132-36.147-37.437c-36.553-19.746-93.521-23.725-132.832-10.884
	c-31.973,10.445-58.076,34.595-72.685,64.678c-28.667,59.014-23.13,144.473-1.484,204.804
	c16.816,46.865,48.066,86.782,93.97,107.774c23.892,10.927,70.171,23.228,95.112,12.534c5.454-2.339,8.789-6.089,10.898-11.538
	c7.691-19.834,6.318-127.632-2.529-148.315c-0.298-0.698-0.63-1.382-0.942-2.07c-11.225-9.702-36.597-12.915-42.627-25.596
	c3.642-5.273,6.045-6.367,12.402-7.598c17.49-3.379,36.665,1.523,54.414,1.558c25.083,0.049,50.874-3.526,75.83-2.119
	c6.528,0.366,11.773,0.542,17.466,4.092l0.083,5.781c-7.505,7.564-21.099,9.204-30.723,13.574
	c-4.009,1.826-8.745,4.614-10.786,8.716c-15.307,30.732,6.753,151.26-9.243,181.084c-7.637,14.234-29.766,19.731-44.302,21.992
	c-74.414,11.562-156.47,4.492-218.559-41.206c-50.054-36.841-75.532-92.641-84.624-153.037
	c-10.562-70.176,0.889-144.336,44.097-202.036C1424.95,3329.979,1469.047,3307.489,1524.867,3299.075z"/>
<path style="fill:#232021;" d="M2126.986,3968.221c34.604-4.204,147.544-3.633,181.655,1.665c16.153,2.505,32.3,7.183,46.299,15.811
	c18.398,11.347,31.216,28.447,35.615,49.736c11.128,53.862-22.612,85.513-48.691,126.729l-1.587,2.549
	c19.39,45.293,84.751,133.638,125.786,159.594c11.963,7.569,26.748,7.92,39.688,13.643l1.372,4.399l-3.135,3.267
	c-21.138,7.397-52.827,1.348-75.112-1.006c-37.085-3.912-55.205-26.27-77.309-53.76c-26.026-33.882-48.662-70.82-72.476-106.294
	c-17.689-1.23-35.399-1.968-53.13-2.212c-2.109,32.642-5.025,110.645,11.167,137.319c7.71,12.705,23.252,9.507,35.85,12.368
	c5.073,1.152,6.328,0.723,9.282,5.264l-2.651,5.161c-6.147,3.203-11.45,3.823-18.365,4.072c-19.854,0.703-40.21-2.891-60.224-2.993
	c-20.952-0.107-42.53,3.398-63.335,1.89l-1.553-3.491c1.973-4.336,1.548-4.375,5.742-7.403c8.921-6.43,20.127-12.749,21.621-24.711
	c4.39-35.215,9.809-295.815-0.068-313.188c-9.424-16.577-30.239-11.406-38.804-22.285L2126.986,3968.221z"/>
<path style="fill:#FEFEFE;" d="M2231.171,3997.229c24.302-1.802,46.396-3.218,67.612,11.313
	c18.081,12.383,28.198,32.012,31.592,53.32c0.3,1.852,0.555,3.713,0.767,5.581c0.212,1.865,0.378,3.735,0.498,5.61
	c0.121,1.872,0.196,3.747,0.225,5.625c0.032,1.878,0.018,3.756-0.044,5.635c-0.058,1.875-0.164,3.748-0.317,5.62
	c-0.15,1.871-0.345,3.738-0.586,5.601c-0.241,1.862-0.528,3.717-0.859,5.566c-0.329,1.849-0.703,3.689-1.123,5.522
	c-0.42,1.829-0.884,3.647-1.392,5.454c-0.504,1.81-1.055,3.605-1.65,5.386c-0.592,1.78-1.229,3.546-1.909,5.298
	c-0.677,1.751-1.396,3.486-2.158,5.205c-0.765,1.715-1.569,3.412-2.412,5.088c-0.843,1.677-1.727,3.332-2.651,4.966
	c-0.924,1.637-1.888,3.25-2.89,4.839c-1.003,1.589-2.043,3.151-3.12,4.688c-6.88,4.683-13.276,8.335-21.646,9.614
	c-15.317,2.329-42.578,1.89-55.283-7.515c-6.011-4.448-7.876-8.877-8.955-16.089
	C2221.908,4113.826,2220.682,4010.647,2231.171,3997.229z"/>
</svg>
