<?xml version="1.0" encoding="utf-8"?>
<!-- Generator: Adobe Illustrator 27.5.0, SVG Export Plug-In . SVG Version: 6.00 Build 0)  -->
<svg version="1.1" id="Layer_1" xmlns="http://www.w3.org/2000/svg" xmlns:xlink="http://www.w3.org/1999/xlink" x="0px" y="0px"
	 viewBox="0 0 5000 5000" style="enable-background:new 0 0 5000 5000;" xml:space="preserve">
<g>
	<radialGradient id="SVGID_1_" cx="2500" cy="2500" r="6351.2002" gradientUnits="userSpaceOnUse">
		<stop  offset="0" style="stop-color:#FFFFFF"/>
		<stop  offset="0.1611" style="stop-color:#FCFFFF"/>
		<stop  offset="0.2914" style="stop-color:#F2FFFF"/>
		<stop  offset="0.411" style="stop-color:#E1FFFF"/>
		<stop  offset="0.5241" style="stop-color:#C9FFFF"/>
		<stop  offset="0.6328" style="stop-color:#AAFFFF"/>
		<stop  offset="0.738" style="stop-color:#84FFFF"/>
		<stop  offset="0.8406" style="stop-color:#57FFFF"/>
		<stop  offset="0.9385" style="stop-color:#24FFFF"/>
		<stop  offset="1" style="stop-color:#00FFFF"/>
	</radialGradient>
	<rect x="0" y="0" style="fill:url(#SVGID_1_);" width="5000" height="5000"/>
	<defs>
		<filter id="Adobe_OpacityMaskFilter" filterUnits="userSpaceOnUse" x="827" y="4160.824" width="3346" height="364.391">
			<feFlood  style="flood-color:white;flood-opacity:1" result="back"/>
			<feBlend  in="SourceGraphic" in2="back" mode="normal"/>
		</filter>
	</defs>
	
		<mask maskUnits="userSpaceOnUse" x="827" y="4160.824" width="3346" height="364.391" id="SVGID_00000021826839716875711530000001987136015221500600_">
		<g style="filter:url(#Adobe_OpacityMaskFilter);">
			<defs>
				
					<filter id="Adobe_OpacityMaskFilter_00000018202357107107183380000001553169317306018695_" filterUnits="userSpaceOnUse" x="827" y="4160.824" width="3346" height="364.391">
					<feFlood  style="flood-color:white;flood-opacity:1" result="back"/>
					<feBlend  in="SourceGraphic" in2="back" mode="normal"/>
				</filter>
			</defs>
			
				<mask maskUnits="userSpaceOnUse" x="827" y="4160.824" width="3346" height="364.391" id="SVGID_00000021826839716875711530000001987136015221500600_">
				<g style="filter:url(#Adobe_OpacityMaskFilter_00000018202357107107183380000001553169317306018695_);">
				</g>
			</mask>
			
				<radialGradient id="SVGID_00000155141666074233702200000015078710981473799075_" cx="2500.1802" cy="18947.75" r="1377.215" gradientTransform="matrix(1.2864 0 0 0.1401 -716.2318 1688.4395)" gradientUnits="userSpaceOnUse">
				<stop  offset="0" style="stop-color:#FFFFFF"/>
				<stop  offset="0.658" style="stop-color:#585858"/>
				<stop  offset="1" style="stop-color:#000000"/>
			</radialGradient>
			
				<ellipse style="mask:url(#SVGID_00000021826839716875711530000001987136015221500600_);fill:url(#SVGID_00000155141666074233702200000015078710981473799075_);" cx="2500" cy="4343.019" rx="1673" ry="182.196"/>
		</g>
	</mask>
	<g>
		<defs>
			
				<filter id="Adobe_OpacityMaskFilter_00000180351253874732363100000017788437594621025177_" filterUnits="userSpaceOnUse" x="827" y="4160.824" width="3346" height="364.391">
				<feFlood  style="flood-color:white;flood-opacity:1" result="back"/>
				<feBlend  in="SourceGraphic" in2="back" mode="normal"/>
			</filter>
		</defs>
		
			<mask maskUnits="userSpaceOnUse" x="827" y="4160.824" width="3346" height="364.391" id="SVGID_00000080175371991759693780000005855698696068200107_">
			<g style="filter:url(#Adobe_OpacityMaskFilter_00000180351253874732363100000017788437594621025177_);">
				<defs>
					
						<filter id="Adobe_OpacityMaskFilter_00000165217749246366156400000008917671833965558429_" filterUnits="userSpaceOnUse" x="827" y="4160.824" width="3346" height="364.391">
						<feFlood  style="flood-color:white;flood-opacity:1" result="back"/>
						<feBlend  in="SourceGraphic" in2="back" mode="normal"/>
					</filter>
				</defs>
				
					<mask maskUnits="userSpaceOnUse" x="827" y="4160.824" width="3346" height="364.391" id="SVGID_00000080175371991759693780000005855698696068200107_">
					<g style="filter:url(#Adobe_OpacityMaskFilter_00000165217749246366156400000008917671833965558429_);">
					</g>
				</mask>
				
					<radialGradient id="SVGID_00000160186062259208161520000017995255423744799629_" cx="2500.1802" cy="18947.75" r="1377.215" gradientTransform="matrix(1.2864 0 0 0.1401 -716.2318 1688.4395)" gradientUnits="userSpaceOnUse">
					<stop  offset="0" style="stop-color:#FFFFFF"/>
					<stop  offset="0.0635" style="stop-color:#EAEAEA"/>
					<stop  offset="0.3301" style="stop-color:#989898"/>
					<stop  offset="0.5664" style="stop-color:#575757"/>
					<stop  offset="0.7635" style="stop-color:#282828"/>
					<stop  offset="0.914" style="stop-color:#0B0B0B"/>
					<stop  offset="1" style="stop-color:#000000"/>
				</radialGradient>
				
					<ellipse style="mask:url(#SVGID_00000080175371991759693780000005855698696068200107_);fill:url(#SVGID_00000160186062259208161520000017995255423744799629_);" cx="2500" cy="4343.019" rx="1673" ry="182.196"/>
			</g>
		</mask>
		<g>
			<defs>
				
					<filter id="Adobe_OpacityMaskFilter_00000034066461207755655930000012699829734976913571_" filterUnits="userSpaceOnUse" x="827" y="4160.824" width="3346" height="364.391">
					<feFlood  style="flood-color:white;flood-opacity:1" result="back"/>
					<feBlend  in="SourceGraphic" in2="back" mode="normal"/>
				</filter>
			</defs>
			
				<mask maskUnits="userSpaceOnUse" x="827" y="4160.824" width="3346" height="364.391" id="SVGID_00000150798363591347415720000010596848327272037295_">
				<g style="filter:url(#Adobe_OpacityMaskFilter_00000034066461207755655930000012699829734976913571_);">
					<defs>
						
							<filter id="Adobe_OpacityMaskFilter_00000035519410021752788020000013130968810088137637_" filterUnits="userSpaceOnUse" x="827" y="4160.824" width="3346" height="364.391">
							<feFlood  style="flood-color:white;flood-opacity:1" result="back"/>
							<feBlend  in="SourceGraphic" in2="back" mode="normal"/>
						</filter>
					</defs>
					
						<mask maskUnits="userSpaceOnUse" x="827" y="4160.824" width="3346" height="364.391" id="SVGID_00000150798363591347415720000010596848327272037295_">
						<g style="filter:url(#Adobe_OpacityMaskFilter_00000035519410021752788020000013130968810088137637_);">
						</g>
					</mask>
					
						<radialGradient id="SVGID_00000181786881301283687570000002997267354814912944_" cx="2500.1802" cy="18947.75" r="1377.215" gradientTransform="matrix(1.2864 0 0 0.1401 -716.2318 1688.4395)" gradientUnits="userSpaceOnUse">
						<stop  offset="0" style="stop-color:#FFFFFF"/>
						<stop  offset="0.0635" style="stop-color:#EAEAEA"/>
						<stop  offset="0.3301" style="stop-color:#989898"/>
						<stop  offset="0.5664" style="stop-color:#575757"/>
						<stop  offset="0.7635" style="stop-color:#282828"/>
						<stop  offset="0.914" style="stop-color:#0B0B0B"/>
						<stop  offset="1" style="stop-color:#000000"/>
					</radialGradient>
					
						<ellipse style="mask:url(#SVGID_00000150798363591347415720000010596848327272037295_);fill:url(#SVGID_00000181786881301283687570000002997267354814912944_);" cx="2500" cy="4343.019" rx="1673" ry="182.196"/>
				</g>
			</mask>
			<g>
				<defs>
					
						<filter id="Adobe_OpacityMaskFilter_00000042725128211433304800000004981593742670859953_" filterUnits="userSpaceOnUse" x="827" y="4160.824" width="3346" height="364.391">
						<feFlood  style="flood-color:white;flood-opacity:1" result="back"/>
						<feBlend  in="SourceGraphic" in2="back" mode="normal"/>
					</filter>
				</defs>
				
					<mask maskUnits="userSpaceOnUse" x="827" y="4160.824" width="3346" height="364.391" id="SVGID_00000022543113442404304830000000319511799195774336_">
					<g style="filter:url(#Adobe_OpacityMaskFilter_00000042725128211433304800000004981593742670859953_);">
						<defs>
							
								<filter id="Adobe_OpacityMaskFilter_00000044150341741131448400000006988086741225250229_" filterUnits="userSpaceOnUse" x="827" y="4160.824" width="3346" height="364.391">
								<feFlood  style="flood-color:white;flood-opacity:1" result="back"/>
								<feBlend  in="SourceGraphic" in2="back" mode="normal"/>
							</filter>
						</defs>
						
							<mask maskUnits="userSpaceOnUse" x="827" y="4160.824" width="3346" height="364.391" id="SVGID_00000022543113442404304830000000319511799195774336_">
							<g style="filter:url(#Adobe_OpacityMaskFilter_00000044150341741131448400000006988086741225250229_);">
							</g>
						</mask>
						
							<radialGradient id="SVGID_00000037691240325090553250000008695317685807889560_" cx="2500.1802" cy="18947.75" r="1377.215" gradientTransform="matrix(1.2864 0 0 0.1401 -716.2318 1688.4395)" gradientUnits="userSpaceOnUse">
							<stop  offset="0" style="stop-color:#FFFFFF"/>
							<stop  offset="0.0635" style="stop-color:#EAEAEA"/>
							<stop  offset="0.3301" style="stop-color:#989898"/>
							<stop  offset="0.5664" style="stop-color:#575757"/>
							<stop  offset="0.7635" style="stop-color:#282828"/>
							<stop  offset="0.914" style="stop-color:#0B0B0B"/>
							<stop  offset="1" style="stop-color:#000000"/>
						</radialGradient>
						
							<ellipse style="mask:url(#SVGID_00000022543113442404304830000000319511799195774336_);fill:url(#SVGID_00000037691240325090553250000008695317685807889560_);" cx="2500" cy="4343.019" rx="1673" ry="182.196"/>
					</g>
				</mask>
				<g>
					<defs>
						
							<filter id="Adobe_OpacityMaskFilter_00000078755608675099464940000013536619463058589348_" filterUnits="userSpaceOnUse" x="827" y="4160.824" width="3346" height="364.391">
							<feFlood  style="flood-color:white;flood-opacity:1" result="back"/>
							<feBlend  in="SourceGraphic" in2="back" mode="normal"/>
						</filter>
					</defs>
					
						<mask maskUnits="userSpaceOnUse" x="827" y="4160.824" width="3346" height="364.391" id="SVGID_00000127762006715581649430000007947451681982063290_">
						<g style="filter:url(#Adobe_OpacityMaskFilter_00000078755608675099464940000013536619463058589348_);">
							<defs>
								
									<filter id="Adobe_OpacityMaskFilter_00000003814270126809153160000016804857238216461501_" filterUnits="userSpaceOnUse" x="827" y="4160.824" width="3346" height="364.391">
									<feFlood  style="flood-color:white;flood-opacity:1" result="back"/>
									<feBlend  in="SourceGraphic" in2="back" mode="normal"/>
								</filter>
							</defs>
							
								<mask maskUnits="userSpaceOnUse" x="827" y="4160.824" width="3346" height="364.391" id="SVGID_00000127762006715581649430000007947451681982063290_">
								<g style="filter:url(#Adobe_OpacityMaskFilter_00000003814270126809153160000016804857238216461501_);">
								</g>
							</mask>
							
								<radialGradient id="SVGID_00000065032762093966813720000004792634384300547005_" cx="2500.1802" cy="18947.75" r="1377.215" gradientTransform="matrix(1.2864 0 0 0.1401 -716.2318 1688.4395)" gradientUnits="userSpaceOnUse">
								<stop  offset="0" style="stop-color:#FFFFFF"/>
								<stop  offset="0.0635" style="stop-color:#EAEAEA"/>
								<stop  offset="0.3301" style="stop-color:#989898"/>
								<stop  offset="0.5664" style="stop-color:#575757"/>
								<stop  offset="0.7635" style="stop-color:#282828"/>
								<stop  offset="0.914" style="stop-color:#0B0B0B"/>
								<stop  offset="1" style="stop-color:#000000"/>
							</radialGradient>
							
								<ellipse style="mask:url(#SVGID_00000127762006715581649430000007947451681982063290_);fill:url(#SVGID_00000065032762093966813720000004792634384300547005_);" cx="2500" cy="4343.019" rx="1673" ry="182.196"/>
						</g>
					</mask>
					<g>
						<defs>
							
								<filter id="Adobe_OpacityMaskFilter_00000093883446126066873880000006756758358462302866_" filterUnits="userSpaceOnUse" x="827" y="4160.824" width="3346" height="364.391">
								<feFlood  style="flood-color:white;flood-opacity:1" result="back"/>
								<feBlend  in="SourceGraphic" in2="back" mode="normal"/>
							</filter>
						</defs>
						
							<mask maskUnits="userSpaceOnUse" x="827" y="4160.824" width="3346" height="364.391" id="SVGID_00000134208298464666962550000005323408901614538900_">
							<g style="filter:url(#Adobe_OpacityMaskFilter_00000093883446126066873880000006756758358462302866_);">
								<defs>
									
										<filter id="Adobe_OpacityMaskFilter_00000067952555865432113980000002559879462542615216_" filterUnits="userSpaceOnUse" x="827" y="4160.824" width="3346" height="364.391">
										<feFlood  style="flood-color:white;flood-opacity:1" result="back"/>
										<feBlend  in="SourceGraphic" in2="back" mode="normal"/>
									</filter>
								</defs>
								
									<mask maskUnits="userSpaceOnUse" x="827" y="4160.824" width="3346" height="364.391" id="SVGID_00000134208298464666962550000005323408901614538900_">
									<g style="filter:url(#Adobe_OpacityMaskFilter_00000067952555865432113980000002559879462542615216_);">
									</g>
								</mask>
								
									<radialGradient id="SVGID_00000173142959213557160260000006948568886450876290_" cx="2500.1802" cy="18947.75" r="1377.215" gradientTransform="matrix(1.2864 0 0 0.1401 -716.2318 1688.4395)" gradientUnits="userSpaceOnUse">
									<stop  offset="0" style="stop-color:#FFFFFF"/>
									<stop  offset="0.0635" style="stop-color:#EAEAEA"/>
									<stop  offset="0.3301" style="stop-color:#989898"/>
									<stop  offset="0.5664" style="stop-color:#575757"/>
									<stop  offset="0.7635" style="stop-color:#282828"/>
									<stop  offset="0.914" style="stop-color:#0B0B0B"/>
									<stop  offset="1" style="stop-color:#000000"/>
								</radialGradient>
								
									<ellipse style="mask:url(#SVGID_00000134208298464666962550000005323408901614538900_);fill:url(#SVGID_00000173142959213557160260000006948568886450876290_);" cx="2500" cy="4343.019" rx="1673" ry="182.196"/>
							</g>
						</mask>
						
							<radialGradient id="SVGID_00000133488374646974926330000010093520933020552584_" cx="2500.1802" cy="18947.75" r="1377.215" gradientTransform="matrix(1.2864 0 0 0.1401 -716.2318 1688.4395)" gradientUnits="userSpaceOnUse">
							<stop  offset="0" style="stop-color:#666666"/>
							<stop  offset="0.0096" style="stop-color:#686868"/>
							<stop  offset="0.3565" style="stop-color:#A8A8A8"/>
							<stop  offset="0.6489" style="stop-color:#D7D7D7"/>
							<stop  offset="0.8723" style="stop-color:#F4F4F4"/>
							<stop  offset="1" style="stop-color:#FFFFFF"/>
						</radialGradient>
						
							<ellipse style="fill:url(#SVGID_00000133488374646974926330000010093520933020552584_);" cx="2500" cy="4343.019" rx="1673" ry="182.196"/>
					</g>
				</g>
			</g>
		</g>
	</g>
</g>
<g>
	<g>
		<g>
			<path style="fill:#72B41A;" d="M1219.492,1725.835C1083.393,1951.632,1005,2216.139,1005,2499
				c0,828.427,671.574,1500,1500.001,1500c729.012,0,1336.317-520.147,1471.634-1209.507
				c-400.011-281.425-878.973-533.466-1413.402-729.366C2103.382,1891.565,1648,1781.284,1219.492,1725.835z"/>
			<path style="fill:#4A9529;" d="M2505.001,999c-545.567,0-1023.008,291.326-1285.509,726.835
				c428.507,55.45,883.889,165.73,1343.74,334.292c534.429,195.9,1013.391,447.941,1413.402,729.366
				C3995.088,2695.485,4005,2598.415,4005,2499C4005,1670.572,3333.427,999,2505.001,999z"/>
		</g>
		<g>
			<path style="opacity:0.7;fill:none;stroke:#FFFFFF;stroke-width:0.5;stroke-miterlimit:10;" d="M1211.896,2499
				c0-257.436,75.217-497.5,205.12-699.066c230.192-357.33,631.548-594.037,1087.984-594.037
				c714.267,0,1293.103,579.034,1293.103,1293.103c0,72.255-5.922,143.13-17.373,212.227
				C3679.651,3324.414,3147.011,3792.103,2505,3792.103C1790.93,3792.103,1211.896,3213.266,1211.896,2499z"/>
			<path style="opacity:0.6931;fill:none;stroke:#FFFFFF;stroke-width:0.4975;stroke-miterlimit:10;" d="M1213.189,2499
				c0-257.178,75.142-497.002,204.915-698.367C1648.065,1443.66,2049.02,1207.19,2505,1207.19
				c713.552,0,1291.81,578.455,1291.81,1291.81c0,72.183-5.917,142.987-17.356,212.014
				C3678.476,3323.589,3146.369,3790.81,2505,3790.81C1791.644,3790.81,1213.189,3212.552,1213.189,2499z"/>
			<path style="opacity:0.6861;fill:none;stroke:#FFFFFF;stroke-width:0.4951;stroke-miterlimit:10;" d="M1214.482,2499
				c0-256.921,75.067-496.505,204.71-697.668c229.731-356.616,630.285-592.849,1085.807-592.849
				c712.838,0,1290.517,577.876,1290.517,1290.517c0,72.111-5.91,142.844-17.338,211.802
				C3677.301,3322.763,3145.727,3789.517,2505,3789.517C1792.358,3789.517,1214.482,3211.838,1214.482,2499z"/>
			<path style="opacity:0.6792;fill:none;stroke:#FFFFFF;stroke-width:0.4926;stroke-miterlimit:10;" d="M1215.775,2499
				c0-256.663,74.991-496.007,204.505-696.969c229.501-356.258,629.653-592.255,1084.719-592.255
				c712.124,0,1289.224,577.297,1289.224,1289.224c0,72.039-5.905,142.7-17.321,211.59
				C3676.127,3321.938,3145.085,3788.224,2505,3788.224C1793.073,3788.224,1215.775,3211.124,1215.775,2499z"/>
			<path style="opacity:0.6723;fill:none;stroke:#FFFFFF;stroke-width:0.4901;stroke-miterlimit:10;" d="M1217.068,2499
				c0-256.406,74.916-495.51,204.3-696.27c229.271-355.901,629.021-591.661,1083.631-591.661
				c711.41,0,1287.931,576.718,1287.931,1287.931c0,71.966-5.899,142.557-17.304,211.378
				C3674.952,3321.113,3144.443,3786.93,2505,3786.93C1793.786,3786.93,1217.068,3210.409,1217.068,2499z"/>
			<path style="opacity:0.6653;fill:none;stroke:#FFFFFF;stroke-width:0.4876;stroke-miterlimit:10;" d="M1218.361,2499
				c0-256.148,74.841-495.012,204.094-695.571c229.041-355.544,628.39-591.067,1082.544-591.067
				c710.695,0,1286.638,576.139,1286.638,1286.637c0,71.894-5.893,142.414-17.286,211.166
				C3673.777,3320.287,3143.801,3785.637,2505,3785.637C1794.501,3785.637,1218.361,3209.695,1218.361,2499z"/>
			<path style="opacity:0.6584;fill:none;stroke:#FFFFFF;stroke-width:0.4851;stroke-miterlimit:10;" d="M1219.655,2499
				c0-255.891,74.766-494.515,203.889-694.872c228.81-355.186,627.758-590.473,1081.456-590.473
				c709.981,0,1285.345,575.56,1285.345,1285.344c0,71.822-5.887,142.271-17.269,210.953
				C3672.603,3319.462,3143.159,3784.344,2505,3784.344C1795.215,3784.344,1219.655,3208.981,1219.655,2499z"/>
			<path style="opacity:0.6515;fill:none;stroke:#FFFFFF;stroke-width:0.4827;stroke-miterlimit:10;" d="M1220.948,2499
				c0-255.634,74.691-494.017,203.684-694.173c228.58-354.829,627.127-589.879,1080.368-589.879
				c709.267,0,1284.052,574.981,1284.052,1284.051c0,71.75-5.881,142.128-17.251,210.741
				c-100.372,608.895-629.283,1073.31-1266.8,1073.31C1795.929,3783.051,1220.948,3208.267,1220.948,2499z"/>
			<path style="opacity:0.6446;fill:none;stroke:#FFFFFF;stroke-width:0.4802;stroke-miterlimit:10;" d="M1222.241,2499
				c0-255.376,74.615-493.52,203.479-693.474c228.35-354.472,626.495-589.285,1079.28-589.285
				c708.552,0,1282.759,574.402,1282.759,1282.758c0,71.677-5.875,141.985-17.234,210.529
				C3670.253,3317.811,3141.875,3781.758,2505,3781.758C1796.643,3781.758,1222.241,3207.552,1222.241,2499z"/>
			<path style="opacity:0.6376;fill:none;stroke:#FFFFFF;stroke-width:0.4777;stroke-miterlimit:10;" d="M1223.534,2499
				c0-255.119,74.54-493.022,203.274-692.774c228.12-354.114,625.864-588.691,1078.192-588.691
				c707.838,0,1281.465,573.823,1281.465,1281.465c0,71.605-5.869,141.842-17.217,210.317
				C3669.079,3316.985,3141.233,3780.465,2505,3780.465C1797.357,3780.465,1223.534,3206.838,1223.534,2499z"/>
			<path style="opacity:0.6307;fill:none;stroke:#FFFFFF;stroke-width:0.4752;stroke-miterlimit:10;" d="M1224.827,2499
				c0-254.861,74.465-492.525,203.069-692.075c227.89-353.757,625.232-588.097,1077.104-588.097
				c707.124,0,1280.172,573.244,1280.172,1280.172c0,71.533-5.863,141.698-17.199,210.104
				C3667.904,3316.16,3140.591,3779.172,2505,3779.172C1798.071,3779.172,1224.827,3206.124,1224.827,2499z"/>
			<path style="opacity:0.6238;fill:none;stroke:#FFFFFF;stroke-width:0.4728;stroke-miterlimit:10;" d="M1226.12,2499
				c0-254.604,74.39-492.027,202.864-691.376c227.66-353.4,624.601-587.503,1076.016-587.503
				c706.41,0,1278.879,572.665,1278.879,1278.879c0,71.46-5.857,141.555-17.182,209.892
				C3666.729,3315.335,3139.949,3777.879,2505,3777.879C1798.785,3777.879,1226.12,3205.409,1226.12,2499z"/>
			<path style="opacity:0.6168;fill:none;stroke:#FFFFFF;stroke-width:0.4703;stroke-miterlimit:10;" d="M1227.413,2499
				c0-254.346,74.314-491.53,202.659-690.677c227.429-353.042,623.969-586.909,1074.928-586.909
				c705.696,0,1277.586,572.086,1277.586,1277.586c0,71.388-5.851,141.412-17.165,209.68
				C3665.555,3314.509,3139.307,3776.586,2505,3776.586C1799.499,3776.586,1227.413,3204.695,1227.413,2499z"/>
			<path style="opacity:0.6099;fill:none;stroke:#FFFFFF;stroke-width:0.4678;stroke-miterlimit:10;" d="M1228.706,2499
				c0-254.089,74.239-491.032,202.453-689.978c227.199-352.685,623.338-586.315,1073.84-586.315
				c704.981,0,1276.293,571.507,1276.293,1276.293c0,71.316-5.845,141.269-17.147,209.468
				C3664.38,3313.684,3138.665,3775.292,2505,3775.292C1800.213,3775.292,1228.706,3203.981,1228.706,2499z"/>
			<path style="opacity:0.603;fill:none;stroke:#FFFFFF;stroke-width:0.4653;stroke-miterlimit:10;" d="M1229.999,2499
				c0-253.832,74.164-490.535,202.248-689.279C1659.217,1457.393,2054.954,1224,2505,1224c704.267,0,1275,570.928,1275,1275
				c0,71.244-5.84,141.126-17.13,209.256C3663.206,3312.858,3138.023,3774,2505,3774C1800.927,3774,1229.999,3203.267,1229.999,2499
				z"/>
			<path style="opacity:0.596;fill:none;stroke:#FFFFFF;stroke-width:0.4629;stroke-miterlimit:10;" d="M1231.292,2499
				c0-253.574,74.089-490.037,202.043-688.58c226.739-351.97,622.074-585.127,1071.664-585.127
				c703.553,0,1273.707,570.349,1273.707,1273.707c0,71.171-5.833,140.983-17.113,209.043
				c-99.563,603.99-624.213,1064.663-1256.594,1064.663C1801.641,3772.706,1231.292,3202.552,1231.292,2499z"/>
			<path style="opacity:0.5891;fill:none;stroke:#FFFFFF;stroke-width:0.4604;stroke-miterlimit:10;" d="M1232.586,2499
				c0-253.317,74.014-489.54,201.838-687.881c226.508-351.613,621.443-584.532,1070.576-584.532
				c702.838,0,1272.414,569.77,1272.414,1272.413c0,71.099-5.827,140.84-17.095,208.831
				C3660.856,3311.208,3136.739,3771.413,2505,3771.413C1802.355,3771.413,1232.586,3201.838,1232.586,2499z"/>
			<path style="opacity:0.5822;fill:none;stroke:#FFFFFF;stroke-width:0.4579;stroke-miterlimit:10;" d="M1233.879,2499
				c0-253.059,73.938-489.042,201.633-687.182C1661.79,1460.563,2056.323,1227.88,2505,1227.88
				c702.124,0,1271.121,569.19,1271.121,1271.12c0,71.027-5.822,140.697-17.078,208.619
				C3659.682,3310.382,3136.097,3770.12,2505,3770.12C1803.069,3770.12,1233.879,3201.124,1233.879,2499z"/>
			<path style="opacity:0.5752;fill:none;stroke:#FFFFFF;stroke-width:0.4554;stroke-miterlimit:10;" d="M1235.172,2499
				c0-252.802,73.863-488.545,201.428-686.483c226.048-350.898,620.18-583.344,1068.4-583.344
				c701.41,0,1269.827,568.611,1269.827,1269.827c0,70.955-5.816,140.553-17.06,208.407
				c-99.26,602.15-622.312,1061.42-1252.767,1061.42C1803.783,3768.827,1235.172,3200.41,1235.172,2499z"/>
			<path style="opacity:0.5683;fill:none;stroke:#FFFFFF;stroke-width:0.453;stroke-miterlimit:10;" d="M1236.465,2499
				c0-252.544,73.788-488.047,201.223-685.784c225.818-350.541,619.548-582.75,1067.312-582.75
				c700.696,0,1268.534,568.032,1268.534,1268.534c0,70.882-5.81,140.41-17.043,208.195
				C3657.332,3308.731,3134.813,3767.534,2505,3767.534C1804.498,3767.534,1236.465,3199.695,1236.465,2499z"/>
			<path style="opacity:0.5614;fill:none;stroke:#FFFFFF;stroke-width:0.4505;stroke-miterlimit:10;" d="M1237.758,2499
				c0-252.287,73.713-487.55,201.018-685.085c225.588-350.184,618.917-582.156,1066.224-582.156
				c699.981,0,1267.241,567.453,1267.241,1267.241c0,70.81-5.804,140.267-17.026,207.982
				C3656.158,3307.906,3134.171,3766.241,2505,3766.241C1805.212,3766.241,1237.758,3198.981,1237.758,2499z"/>
			<path style="opacity:0.5545;fill:none;stroke:#FFFFFF;stroke-width:0.448;stroke-miterlimit:10;" d="M1239.051,2499
				c0-252.03,73.638-487.052,200.813-684.386c225.358-349.826,618.285-581.562,1065.136-581.562
				c699.267,0,1265.948,566.874,1265.948,1265.948c0,70.738-5.798,140.124-17.008,207.77
				c-98.957,600.311-620.411,1058.178-1248.94,1058.178C1805.926,3764.948,1239.051,3198.267,1239.051,2499z"/>
			<path style="opacity:0.5475;fill:none;stroke:#FFFFFF;stroke-width:0.4455;stroke-miterlimit:10;" d="M1240.344,2499
				c0-251.772,73.562-486.554,200.607-683.687c225.127-349.469,617.654-580.968,1064.048-580.968
				c698.553,0,1264.655,566.295,1264.655,1264.655c0,70.666-5.792,139.981-16.991,207.558
				C3653.808,3306.255,3132.887,3763.655,2505,3763.655C1806.64,3763.655,1240.344,3197.552,1240.344,2499z"/>
			<path style="opacity:0.5406;fill:none;stroke:#FFFFFF;stroke-width:0.4431;stroke-miterlimit:10;" d="M1241.637,2499
				c0-251.515,73.487-486.057,200.402-682.988c224.897-349.112,617.022-580.374,1062.96-580.374
				c697.838,0,1263.362,565.716,1263.362,1263.362c0,70.594-5.786,139.838-16.974,207.345
				C3652.634,3305.43,3132.245,3762.362,2505,3762.362C1807.354,3762.362,1241.637,3196.838,1241.637,2499z"/>
			<path style="opacity:0.5337;fill:none;stroke:#FFFFFF;stroke-width:0.4406;stroke-miterlimit:10;" d="M1242.93,2499
				c0-251.257,73.412-485.559,200.197-682.288c224.667-348.754,616.391-579.78,1061.872-579.78
				c697.124,0,1262.069,565.137,1262.069,1262.068c0,70.521-5.78,139.695-16.956,207.133
				c-98.653,598.471-618.51,1054.935-1245.113,1054.935C1808.068,3761.068,1242.93,3196.124,1242.93,2499z"/>
			<path style="opacity:0.5267;fill:none;stroke:#FFFFFF;stroke-width:0.4381;stroke-miterlimit:10;" d="M1244.224,2499
				c0-251,73.337-485.062,199.992-681.589c224.437-348.397,615.759-579.186,1060.784-579.186
				c696.41,0,1260.776,564.558,1260.776,1260.775c0,70.449-5.774,139.552-16.939,206.921
				C3650.284,3303.779,3130.961,3759.775,2505,3759.775C1808.782,3759.775,1244.224,3195.41,1244.224,2499z"/>
			<path style="opacity:0.5198;fill:none;stroke:#FFFFFF;stroke-width:0.4356;stroke-miterlimit:10;" d="M1245.517,2499
				c0-250.742,73.261-484.564,199.787-680.89c224.207-348.04,615.127-578.592,1059.696-578.592
				c695.696,0,1259.483,563.979,1259.483,1259.482c0,70.377-5.768,139.408-16.921,206.709
				C3649.11,3302.953,3130.319,3758.482,2505,3758.482C1809.496,3758.482,1245.517,3194.696,1245.517,2499z"/>
			<path style="opacity:0.5129;fill:none;stroke:#FFFFFF;stroke-width:0.4332;stroke-miterlimit:10;" d="M1246.81,2499
				c0-250.485,73.186-484.067,199.582-680.191c223.976-347.682,614.496-577.998,1058.608-577.998
				c694.981,0,1258.19,563.4,1258.19,1258.189c0,70.304-5.763,139.265-16.904,206.497
				c-98.35,596.631-616.608,1051.693-1241.285,1051.693C1810.21,3757.189,1246.81,3193.981,1246.81,2499z"/>
			<path style="opacity:0.5059;fill:none;stroke:#FFFFFF;stroke-width:0.4307;stroke-miterlimit:10;" d="M1248.103,2499
				c0-250.228,73.111-483.569,199.377-679.492c223.746-347.325,613.864-577.404,1057.52-577.404
				c694.267,0,1256.896,562.821,1256.896,1256.896c0,70.232-5.757,139.122-16.887,206.284
				C3646.76,3301.302,3129.034,3755.896,2505,3755.896C1810.924,3755.896,1248.103,3193.267,1248.103,2499z"/>
			<path style="opacity:0.499;fill:none;stroke:#FFFFFF;stroke-width:0.4282;stroke-miterlimit:10;" d="M1249.396,2499
				c0-249.97,73.036-483.072,199.172-678.793c223.516-346.968,613.233-576.81,1056.432-576.81
				c693.553,0,1255.603,562.242,1255.603,1255.603c0,70.16-5.75,138.979-16.869,206.072
				C3645.586,3300.477,3128.393,3754.603,2505,3754.603C1811.638,3754.603,1249.396,3192.553,1249.396,2499z"/>
			<path style="opacity:0.4921;fill:none;stroke:#FFFFFF;stroke-width:0.4257;stroke-miterlimit:10;" d="M1250.689,2499
				c0-249.713,72.961-482.574,198.966-678.094c223.286-346.61,612.601-576.216,1055.344-576.216
				c692.839,0,1254.31,561.663,1254.31,1254.31c0,70.088-5.745,138.836-16.852,205.86
				C3644.411,3299.652,3127.75,3753.31,2505,3753.31C1812.352,3753.31,1250.689,3191.838,1250.689,2499z"/>
			<path style="opacity:0.4851;fill:none;stroke:#FFFFFF;stroke-width:0.4233;stroke-miterlimit:10;" d="M1251.982,2499
				c0-249.455,72.885-482.077,198.761-677.395c223.056-346.253,611.97-575.622,1054.256-575.622
				c692.124,0,1253.017,561.084,1253.017,1253.017c0,70.015-5.739,138.693-16.834,205.648
				C3643.236,3298.826,3127.108,3752.017,2505,3752.017C1813.066,3752.017,1251.982,3191.124,1251.982,2499z"/>
			<path style="opacity:0.4782;fill:none;stroke:#FFFFFF;stroke-width:0.4208;stroke-miterlimit:10;" d="M1253.275,2499
				c0-249.198,72.81-481.579,198.556-676.696c222.825-345.896,611.338-575.028,1053.168-575.028
				c691.41,0,1251.724,560.505,1251.724,1251.724c0,69.943-5.733,138.55-16.817,205.436
				c-97.845,593.565-613.44,1046.288-1234.907,1046.288C1813.781,3750.724,1253.275,3190.41,1253.275,2499z"/>
			<path style="opacity:0.4713;fill:none;stroke:#FFFFFF;stroke-width:0.4183;stroke-miterlimit:10;" d="M1254.568,2499
				c0-248.94,72.735-481.082,198.351-675.997c222.595-345.538,610.706-574.434,1052.08-574.434
				c690.696,0,1250.431,559.926,1250.431,1250.431c0,69.871-5.727,138.406-16.8,205.223
				C3640.887,3297.176,3125.824,3749.43,2505,3749.43C1814.495,3749.43,1254.568,3189.696,1254.568,2499z"/>
			<path style="opacity:0.4644;fill:none;stroke:#FFFFFF;stroke-width:0.4158;stroke-miterlimit:10;" d="M1255.861,2499
				c0-248.683,72.66-480.584,198.146-675.298c222.365-345.181,610.075-573.84,1050.992-573.84
				c689.982,0,1249.138,559.347,1249.138,1249.137c0,69.799-5.721,138.263-16.782,205.011
				C3639.712,3296.35,3125.183,3748.137,2505,3748.137C1815.209,3748.137,1255.861,3188.981,1255.861,2499z"/>
			<path style="opacity:0.4574;fill:none;stroke:#FFFFFF;stroke-width:0.4134;stroke-miterlimit:10;" d="M1257.155,2499
				c0-248.425,72.585-480.087,197.941-674.599c222.135-344.824,609.443-573.246,1049.904-573.246
				c689.267,0,1247.845,558.768,1247.845,1247.844c0,69.726-5.715,138.12-16.765,204.799
				C3638.538,3295.525,3124.54,3746.844,2505,3746.844C1815.923,3746.844,1257.155,3188.267,1257.155,2499z"/>
			<path style="opacity:0.4505;fill:none;stroke:#FFFFFF;stroke-width:0.4109;stroke-miterlimit:10;" d="M1258.448,2499
				c0-248.168,72.509-479.589,197.736-673.9c221.905-344.466,608.812-572.652,1048.816-572.652
				c688.553,0,1246.552,558.189,1246.552,1246.551c0,69.654-5.709,137.977-16.748,204.587
				c-97.44,591.113-610.905,1041.965-1229.804,1041.965C1816.637,3745.551,1258.448,3187.553,1258.448,2499z"/>
			<path style="opacity:0.4436;fill:none;stroke:#FFFFFF;stroke-width:0.4084;stroke-miterlimit:10;" d="M1259.741,2499
				c0-247.911,72.434-479.092,197.531-673.201c221.675-344.109,608.18-572.058,1047.728-572.058
				c687.839,0,1245.259,557.61,1245.259,1245.258c0,69.582-5.703,137.834-16.73,204.375
				C3636.188,3293.874,3123.256,3744.258,2505,3744.258C1817.351,3744.258,1259.741,3186.839,1259.741,2499z"/>
			<path style="opacity:0.4366;fill:none;stroke:#FFFFFF;stroke-width:0.4059;stroke-miterlimit:10;" d="M1261.034,2499
				c0-247.653,72.359-478.594,197.325-672.501c221.444-343.752,607.549-571.464,1046.64-571.464
				c687.125,0,1243.965,557.031,1243.965,1243.965c0,69.51-5.697,137.691-16.713,204.162
				C3635.014,3293.048,3122.615,3742.965,2505,3742.965C1818.065,3742.965,1261.034,3186.124,1261.034,2499z"/>
			<path style="opacity:0.4297;fill:none;stroke:#FFFFFF;stroke-width:0.4035;stroke-miterlimit:10;" d="M1262.327,2499
				c0-247.396,72.284-478.097,197.12-671.802c221.214-343.394,606.917-570.87,1045.552-570.87
				c686.41,0,1242.672,556.452,1242.672,1242.672c0,69.437-5.691,137.548-16.696,203.95
				C3633.839,3292.223,3121.972,3741.672,2505,3741.672C1818.779,3741.672,1262.327,3185.41,1262.327,2499z"/>
			<path style="opacity:0.4228;fill:none;stroke:#FFFFFF;stroke-width:0.401;stroke-miterlimit:10;" d="M1263.62,2499
				c0-247.138,72.208-477.599,196.915-671.103c220.984-343.037,606.286-570.276,1044.464-570.276
				c685.696,0,1241.379,555.873,1241.379,1241.379c0,69.365-5.686,137.405-16.678,203.738
				c-97.036,588.66-608.37,1037.641-1224.701,1037.641C1819.493,3740.379,1263.62,3184.696,1263.62,2499z"/>
			<path style="opacity:0.4158;fill:none;stroke:#FFFFFF;stroke-width:0.3985;stroke-miterlimit:10;" d="M1264.913,2499
				c0-246.881,72.133-477.102,196.71-670.404c220.754-342.68,605.654-569.682,1043.376-569.682
				c684.982,0,1240.086,555.294,1240.086,1240.086c0,69.293-5.68,137.261-16.661,203.525
				c-96.935,588.047-607.736,1036.56-1223.425,1036.56C1820.207,3739.086,1264.913,3183.981,1264.913,2499z"/>
			<path style="opacity:0.4089;fill:none;stroke:#FFFFFF;stroke-width:0.396;stroke-miterlimit:10;" d="M1266.206,2499
				c0-246.623,72.058-476.604,196.505-669.705c220.524-342.322,605.023-569.088,1042.288-569.088
				c684.268,0,1238.793,554.715,1238.793,1238.793c0,69.22-5.674,137.118-16.643,203.313
				c-96.834,587.434-607.103,1035.479-1222.15,1035.479C1820.921,3737.792,1266.206,3183.267,1266.206,2499z"/>
			<path style="opacity:0.402;fill:none;stroke:#FFFFFF;stroke-width:0.3936;stroke-miterlimit:10;" d="M1267.499,2499
				c0-246.366,71.983-476.107,196.3-669.006C1684.093,1488.029,2068.19,1261.5,2505,1261.5c683.553,0,1237.5,554.136,1237.5,1237.5
				c0,69.148-5.668,136.975-16.626,203.101C3629.141,3288.921,3119.404,3736.5,2505,3736.5
				C1821.635,3736.5,1267.499,3182.553,1267.499,2499z"/>
			<path style="opacity:0.395;fill:none;stroke:#FFFFFF;stroke-width:0.3911;stroke-miterlimit:10;" d="M1268.792,2499
				c0-246.108,71.908-475.609,196.095-668.307c220.063-341.608,603.759-567.899,1040.112-567.899
				c682.839,0,1236.207,553.557,1236.207,1236.207c0,69.076-5.662,136.832-16.609,202.889
				C3627.966,3288.096,3118.762,3735.206,2505,3735.206C1822.349,3735.206,1268.792,3181.839,1268.792,2499z"/>
			<path style="opacity:0.3881;fill:none;stroke:#FFFFFF;stroke-width:0.3886;stroke-miterlimit:10;" d="M1270.086,2499
				c0-245.851,71.832-475.112,195.89-667.608c219.833-341.25,603.128-567.305,1039.024-567.305
				c682.125,0,1234.914,552.978,1234.914,1234.913c0,69.004-5.656,136.689-16.591,202.677
				C3626.791,3287.271,3118.12,3733.913,2505,3733.913C1823.063,3733.913,1270.086,3181.125,1270.086,2499z"/>
			<path style="opacity:0.3812;fill:none;stroke:#FFFFFF;stroke-width:0.3861;stroke-miterlimit:10;" d="M1271.379,2499
				c0-245.594,71.757-474.615,195.685-666.909C1686.666,1491.198,2069.56,1265.38,2505,1265.38
				c681.41,0,1233.621,552.398,1233.621,1233.62c0,68.931-5.65,136.546-16.574,202.464
				C3625.617,3286.445,3117.478,3732.62,2505,3732.62C1823.777,3732.62,1271.379,3180.41,1271.379,2499z"/>
			<path style="opacity:0.3743;fill:none;stroke:#FFFFFF;stroke-width:0.3837;stroke-miterlimit:10;" d="M1272.672,2499
				c0-245.336,71.682-474.117,195.479-666.21c219.373-340.536,601.865-566.117,1036.848-566.117
				c680.696,0,1232.327,551.819,1232.327,1232.327c0,68.859-5.644,136.403-16.556,202.252
				C3624.442,3285.62,3116.836,3731.327,2505,3731.327C1824.491,3731.327,1272.672,3179.696,1272.672,2499z"/>
			<path style="opacity:0.3673;fill:none;stroke:#FFFFFF;stroke-width:0.3812;stroke-miterlimit:10;" d="M1273.965,2499
				c0-245.079,71.607-473.62,195.274-665.511c219.142-340.179,601.233-565.523,1035.76-565.523
				c679.982,0,1231.034,551.24,1231.034,1231.034c0,68.787-5.638,136.26-16.539,202.04
				c-96.227,583.754-603.3,1028.994-1214.495,1028.994C1825.206,3730.034,1273.965,3178.982,1273.965,2499z"/>
			<path style="opacity:0.3604;fill:none;stroke:#FFFFFF;stroke-width:0.3787;stroke-miterlimit:10;" d="M1275.258,2499
				c0-244.821,71.531-473.122,195.069-664.812c218.912-339.821,600.602-564.929,1034.672-564.929
				c679.268,0,1229.741,550.661,1229.741,1229.741c0,68.715-5.632,136.116-16.522,201.828
				C3622.093,3283.969,3115.552,3728.741,2505,3728.741C1825.92,3728.741,1275.258,3178.267,1275.258,2499z"/>
			<path style="opacity:0.3535;fill:none;stroke:#FFFFFF;stroke-width:0.3762;stroke-miterlimit:10;" d="M1276.551,2499
				c0-244.564,71.456-472.625,194.864-664.113c218.682-339.464,599.97-564.335,1033.584-564.335
				c678.553,0,1228.448,550.082,1228.448,1228.448c0,68.643-5.626,135.973-16.505,201.615
				C3620.918,3283.144,3114.91,3727.448,2505,3727.448C1826.634,3727.448,1276.551,3177.553,1276.551,2499z"/>
			<path style="opacity:0.3465;fill:none;stroke:#FFFFFF;stroke-width:0.3738;stroke-miterlimit:10;" d="M1277.844,2499
				c0-244.306,71.381-472.127,194.659-663.414c218.452-339.107,599.339-563.741,1032.496-563.741
				c677.839,0,1227.155,549.503,1227.155,1227.155c0,68.57-5.62,135.83-16.487,201.403
				C3619.743,3282.318,3114.268,3726.155,2505,3726.155C1827.348,3726.155,1277.844,3176.839,1277.844,2499z"/>
			<path style="opacity:0.3396;fill:none;stroke:#FFFFFF;stroke-width:0.3713;stroke-miterlimit:10;" d="M1279.137,2499
				c0-244.049,71.306-471.63,194.454-662.715c218.222-338.749,598.707-563.147,1031.408-563.147
				c677.125,0,1225.862,548.924,1225.862,1225.862c0,68.498-5.615,135.687-16.47,201.191
				C3618.569,3281.493,3113.626,3724.862,2505,3724.862C1828.062,3724.862,1279.137,3176.125,1279.137,2499z"/>
			<path style="opacity:0.3327;fill:none;stroke:#FFFFFF;stroke-width:0.3688;stroke-miterlimit:10;" d="M1280.43,2499
				c0-243.792,71.231-471.132,194.249-662.016c217.992-338.392,598.076-562.553,1030.32-562.553
				c676.41,0,1224.569,548.345,1224.569,1224.569c0,68.426-5.608,135.544-16.452,200.979
				c-95.722,580.688-600.132,1023.59-1208.117,1023.59C1828.776,3723.568,1280.43,3175.41,1280.43,2499z"/>
			<path style="opacity:0.3257;fill:none;stroke:#FFFFFF;stroke-width:0.3663;stroke-miterlimit:10;" d="M1281.724,2499
				c0-243.534,71.155-470.635,194.044-661.317c217.761-338.034,597.444-561.959,1029.232-561.959
				c675.696,0,1223.276,547.766,1223.276,1223.276c0,68.354-5.603,135.401-16.435,200.767
				C3616.219,3279.842,3112.342,3722.275,2505,3722.275C1829.49,3722.275,1281.724,3174.696,1281.724,2499z"/>
			<path style="opacity:0.3188;fill:none;stroke:#FFFFFF;stroke-width:0.3639;stroke-miterlimit:10;" d="M1283.017,2499
				c0-243.277,71.08-470.137,193.839-660.617c217.531-337.677,596.812-561.365,1028.144-561.365
				c674.982,0,1221.983,547.187,1221.983,1221.982c0,68.281-5.597,135.258-16.417,200.554
				C3615.045,3279.016,3111.7,3720.982,2505,3720.982C1830.204,3720.982,1283.017,3173.982,1283.017,2499z"/>
			<path style="opacity:0.3119;fill:none;stroke:#FFFFFF;stroke-width:0.3614;stroke-miterlimit:10;" d="M1284.31,2499
				c0-243.019,71.005-469.64,193.633-659.918c217.301-337.32,596.181-560.771,1027.056-560.771
				c674.268,0,1220.69,546.608,1220.69,1220.689c0,68.209-5.591,135.115-16.4,200.342
				C3613.87,3278.191,3111.058,3719.689,2505,3719.689C1830.918,3719.689,1284.31,3173.268,1284.31,2499z"/>
			<path style="opacity:0.3049;fill:none;stroke:#FFFFFF;stroke-width:0.3589;stroke-miterlimit:10;" d="M1285.603,2499
				c0-242.762,70.93-469.142,193.428-659.219c217.071-336.962,595.549-560.177,1025.968-560.177
				c673.553,0,1219.396,546.029,1219.396,1219.396c0,68.137-5.585,134.971-16.383,200.13
				C3612.696,3277.365,3110.416,3718.396,2505,3718.396C1831.632,3718.396,1285.603,3172.553,1285.603,2499z"/>
			<path style="opacity:0.298;fill:none;stroke:#FFFFFF;stroke-width:0.3564;stroke-miterlimit:10;" d="M1286.896,2499
				c0-242.504,70.854-468.645,193.223-658.52c216.84-336.605,594.918-559.583,1024.88-559.583
				c672.839,0,1218.103,545.45,1218.103,1218.103c0,68.064-5.579,134.828-16.365,199.917
				C3611.521,3276.54,3109.774,3717.103,2505,3717.103C1832.346,3717.103,1286.896,3171.839,1286.896,2499z"/>
			<path style="opacity:0.2911;fill:none;stroke:#FFFFFF;stroke-width:0.354;stroke-miterlimit:10;" d="M1288.189,2499
				c0-242.247,70.779-468.147,193.018-657.821c216.61-336.248,594.286-558.989,1023.792-558.989
				c672.125,0,1216.81,544.871,1216.81,1216.81c0,67.992-5.573,134.685-16.348,199.705
				C3610.346,3275.715,3109.132,3715.81,2505,3715.81C1833.06,3715.81,1288.189,3171.125,1288.189,2499z"/>
			<path style="opacity:0.2842;fill:none;stroke:#FFFFFF;stroke-width:0.3515;stroke-miterlimit:10;" d="M1289.482,2499
				c0-241.99,70.704-467.65,192.813-657.122c216.38-335.89,593.655-558.395,1022.704-558.395
				c671.411,0,1215.517,544.292,1215.517,1215.517c0,67.92-5.567,134.542-16.331,199.493
				C3609.172,3274.889,3108.49,3714.517,2505,3714.517C1833.774,3714.517,1289.482,3170.41,1289.482,2499z"/>
			<path style="opacity:0.2772;fill:none;stroke:#FFFFFF;stroke-width:0.349;stroke-miterlimit:10;" d="M1290.775,2499
				c0-241.732,70.629-467.152,192.608-656.423c216.15-335.533,593.023-557.801,1021.616-557.801
				c670.696,0,1214.224,543.713,1214.224,1214.224c0,67.848-5.561,134.399-16.313,199.281
				C3607.997,3274.064,3107.848,3713.224,2505,3713.224C1834.489,3713.224,1290.775,3169.696,1290.775,2499z"/>
			<path style="opacity:0.2703;fill:none;stroke:#FFFFFF;stroke-width:0.3465;stroke-miterlimit:10;" d="M1292.068,2499
				c0-241.475,70.554-466.655,192.403-655.724c215.92-335.176,592.392-557.207,1020.529-557.207
				c669.982,0,1212.931,543.134,1212.931,1212.931c0,67.775-5.555,134.256-16.296,199.069
				C3606.822,3273.239,3107.206,3711.93,2505,3711.93C1835.203,3711.93,1292.068,3168.982,1292.068,2499z"/>
			<path style="opacity:0.2634;fill:none;stroke:#FFFFFF;stroke-width:0.3441;stroke-miterlimit:10;" d="M1293.361,2499
				c0-241.217,70.478-466.157,192.198-655.025c215.69-334.818,591.76-556.613,1019.441-556.613
				c669.268,0,1211.638,542.555,1211.638,1211.637c0,67.703-5.549,134.113-16.278,198.856
				C3605.648,3272.413,3106.564,3710.637,2505,3710.637C1835.917,3710.637,1293.361,3168.268,1293.361,2499z"/>
			<path style="opacity:0.2564;fill:none;stroke:#FFFFFF;stroke-width:0.3416;stroke-miterlimit:10;" d="M1294.655,2499
				c0-240.96,70.403-465.66,191.992-654.326c215.459-334.461,591.128-556.019,1018.353-556.019
				c668.553,0,1210.345,541.976,1210.345,1210.344c0,67.631-5.543,133.969-16.261,198.644
				c-94.61,573.943-593.161,1011.7-1194.083,1011.7C1836.631,3709.344,1294.655,3167.553,1294.655,2499z"/>
			<path style="opacity:0.2495;fill:none;stroke:#FFFFFF;stroke-width:0.3391;stroke-miterlimit:10;" d="M1295.948,2499
				c0-240.702,70.328-465.162,191.787-653.627c215.229-334.104,590.497-555.425,1017.265-555.425
				c667.839,0,1209.052,541.397,1209.052,1209.051c0,67.559-5.537,133.826-16.244,198.432
				C3603.298,3270.762,3105.28,3708.051,2505,3708.051C1837.345,3708.051,1295.948,3166.839,1295.948,2499z"/>
			<path style="opacity:0.2426;fill:none;stroke:#FFFFFF;stroke-width:0.3366;stroke-miterlimit:10;" d="M1297.241,2499
				c0-240.445,70.253-464.665,191.582-652.928c214.999-333.746,589.866-554.83,1016.177-554.83
				c667.125,0,1207.759,540.818,1207.759,1207.758c0,67.486-5.531,133.683-16.227,198.22
				C3602.124,3269.937,3104.638,3706.758,2505,3706.758C1838.059,3706.758,1297.241,3166.125,1297.241,2499z"/>
			<path style="opacity:0.2356;fill:none;stroke:#FFFFFF;stroke-width:0.3342;stroke-miterlimit:10;" d="M1298.534,2499
				c0-240.188,70.178-464.167,191.377-652.229c214.769-333.389,589.234-554.236,1015.089-554.236
				c666.411,0,1206.465,540.239,1206.465,1206.465c0,67.414-5.525,133.54-16.209,198.008
				c-94.307,572.104-591.26,1008.458-1190.256,1008.458C1838.773,3705.465,1298.534,3165.411,1298.534,2499z"/>
			<path style="opacity:0.2287;fill:none;stroke:#FFFFFF;stroke-width:0.3317;stroke-miterlimit:10;" d="M1299.827,2499
				c0-239.93,70.102-463.67,191.172-651.53c214.539-333.032,588.602-553.642,1014.001-553.642
				c665.697,0,1205.172,539.66,1205.172,1205.172c0,67.342-5.52,133.397-16.192,197.795
				c-94.206,571.49-590.626,1007.376-1188.98,1007.376C1839.487,3704.172,1299.827,3164.696,1299.827,2499z"/>
			<path style="opacity:0.2218;fill:none;stroke:#FFFFFF;stroke-width:0.3292;stroke-miterlimit:10;" d="M1301.12,2499
				c0-239.673,70.027-463.172,190.967-650.83c214.308-332.674,587.971-553.048,1012.913-553.048
				c664.982,0,1203.879,539.081,1203.879,1203.879c0,67.27-5.514,133.254-16.174,197.583
				C3598.6,3267.461,3102.712,3702.879,2505,3702.879C1840.201,3702.879,1301.12,3163.982,1301.12,2499z"/>
			<path style="opacity:0.2149;fill:none;stroke:#FFFFFF;stroke-width:0.3267;stroke-miterlimit:10;" d="M1302.413,2499
				c0-239.415,69.952-462.675,190.762-650.131c214.078-332.317,587.339-552.454,1011.825-552.454
				c664.268,0,1202.586,538.502,1202.586,1202.586c0,67.198-5.508,133.111-16.157,197.371
				C3597.425,3266.635,3102.07,3701.586,2505,3701.586C1840.915,3701.586,1302.413,3163.268,1302.413,2499z"/>
			<path style="opacity:0.2079;fill:none;stroke:#FFFFFF;stroke-width:0.3243;stroke-miterlimit:10;" d="M1303.706,2499
				c0-239.158,69.877-462.177,190.557-649.432c213.848-331.96,586.708-551.86,1010.737-551.86
				c663.554,0,1201.293,537.923,1201.293,1201.293c0,67.125-5.502,132.967-16.14,197.159
				C3596.25,3265.81,3101.428,3700.292,2505,3700.292C1841.629,3700.292,1303.706,3162.553,1303.706,2499z"/>
			<path style="opacity:0.201;fill:none;stroke:#FFFFFF;stroke-width:0.3218;stroke-miterlimit:10;" d="M1304.999,2499
				c0-238.9,69.802-461.679,190.351-648.733C1708.969,1518.664,2081.427,1299,2505,1299c662.84,0,1200,537.344,1200,1200
				c0,67.053-5.496,132.824-16.122,196.946C3595.076,3264.984,3100.786,3699,2505,3699
				C1842.343,3699,1304.999,3161.839,1304.999,2499z"/>
			<path style="opacity:0.1941;fill:none;stroke:#FFFFFF;stroke-width:0.3193;stroke-miterlimit:10;" d="M1306.292,2499
				c0-238.643,69.726-461.182,190.146-648.034c213.388-331.245,585.444-550.672,1008.561-550.672
				c662.125,0,1198.707,536.765,1198.707,1198.707c0,66.981-5.49,132.681-16.105,196.734
				c-93.7,568.425-587.458,1001.972-1182.602,1001.972C1843.057,3697.706,1306.292,3161.125,1306.292,2499z"/>
			<path style="opacity:0.1871;fill:none;stroke:#FFFFFF;stroke-width:0.3168;stroke-miterlimit:10;" d="M1307.586,2499
				c0-238.385,69.651-460.684,189.941-647.335c213.157-330.888,584.813-550.078,1007.473-550.078
				c661.411,0,1197.414,536.186,1197.414,1197.413c0,66.908-5.484,132.538-16.087,196.522
				C3592.726,3263.333,3099.502,3696.413,2505,3696.413C1843.771,3696.413,1307.586,3160.411,1307.586,2499z"/>
			<path style="opacity:0.1802;fill:none;stroke:#FFFFFF;stroke-width:0.3144;stroke-miterlimit:10;" d="M1308.879,2499
				c0-238.128,69.576-460.187,189.736-646.636C1711.542,1521.833,2082.796,1302.88,2505,1302.88
				c660.697,0,1196.121,535.606,1196.121,1196.12c0,66.836-5.478,132.395-16.07,196.31
				c-93.498,567.198-586.19,999.81-1180.051,999.81C1844.485,3695.12,1308.879,3159.697,1308.879,2499z"/>
			<path style="opacity:0.1733;fill:none;stroke:#FFFFFF;stroke-width:0.3119;stroke-miterlimit:10;" d="M1310.172,2499
				c0-237.871,69.501-459.689,189.531-645.937c212.697-330.173,583.55-548.89,1005.297-548.89
				c659.982,0,1194.827,535.027,1194.827,1194.827c0,66.764-5.472,132.252-16.052,196.097
				c-93.397,566.585-585.556,998.73-1178.775,998.73C1845.199,3693.827,1310.172,3158.982,1310.172,2499z"/>
			<path style="opacity:0.1663;fill:none;stroke:#FFFFFF;stroke-width:0.3094;stroke-miterlimit:10;" d="M1311.465,2499
				c0-237.613,69.425-459.192,189.326-645.238c212.467-329.816,582.919-548.296,1004.209-548.296
				c659.268,0,1193.534,534.448,1193.534,1193.534c0,66.692-5.467,132.109-16.035,195.885
				c-93.296,565.972-584.923,997.649-1177.499,997.649C1845.914,3692.534,1311.465,3158.268,1311.465,2499z"/>
			<path style="opacity:0.1594;fill:none;stroke:#FFFFFF;stroke-width:0.3069;stroke-miterlimit:10;" d="M1312.758,2499
				c0-237.356,69.35-458.694,189.121-644.539c212.237-329.458,582.287-547.702,1003.121-547.702
				c658.554,0,1192.241,533.869,1192.241,1192.241c0,66.619-5.46,131.966-16.018,195.673
				c-93.195,565.359-584.289,996.568-1176.223,996.568C1846.628,3691.241,1312.758,3157.554,1312.758,2499z"/>
			<path style="opacity:0.1525;fill:none;stroke:#FFFFFF;stroke-width:0.3045;stroke-miterlimit:10;" d="M1314.051,2499
				c0-237.098,69.275-458.197,188.916-643.84c212.006-329.101,581.655-547.108,1002.033-547.108
				c657.84,0,1190.948,533.29,1190.948,1190.948c0,66.547-5.455,131.823-16.001,195.461
				c-93.094,564.746-583.655,995.487-1174.948,995.487C1847.342,3689.948,1314.051,3156.839,1314.051,2499z"/>
			<path style="opacity:0.1455;fill:none;stroke:#FFFFFF;stroke-width:0.302;stroke-miterlimit:10;" d="M1315.344,2499
				c0-236.841,69.2-457.699,188.71-643.141c211.776-328.744,581.024-546.514,1000.945-546.514
				c657.125,0,1189.655,532.711,1189.655,1189.655c0,66.475-5.448,131.679-15.983,195.249
				c-92.993,564.133-583.021,994.406-1173.672,994.406C1848.056,3688.655,1315.344,3156.125,1315.344,2499z"/>
			<path style="opacity:0.1386;fill:none;stroke:#FFFFFF;stroke-width:0.2995;stroke-miterlimit:10;" d="M1316.637,2499
				c0-236.583,69.125-457.202,188.505-642.442c211.546-328.387,580.392-545.92,999.857-545.92
				c656.411,0,1188.362,532.132,1188.362,1188.362c0,66.403-5.443,131.536-15.966,195.036
				c-92.892,563.519-582.388,993.325-1172.396,993.325C1848.77,3687.362,1316.637,3155.411,1316.637,2499z"/>
			<path style="opacity:0.1317;fill:none;stroke:#FFFFFF;stroke-width:0.297;stroke-miterlimit:10;" d="M1317.93,2499
				c0-236.326,69.049-456.704,188.3-641.743c211.316-328.029,579.76-545.326,998.769-545.326
				c655.697,0,1187.069,531.553,1187.069,1187.069c0,66.33-5.437,131.393-15.948,194.824
				c-92.791,562.906-581.754,992.244-1171.12,992.244C1849.484,3686.069,1317.93,3154.697,1317.93,2499z"/>
			<path style="opacity:0.1248;fill:none;stroke:#FFFFFF;stroke-width:0.2946;stroke-miterlimit:10;" d="M1319.224,2499
				c0-236.069,68.974-456.207,188.095-641.043c211.086-327.672,579.129-544.732,997.681-544.732
				c654.982,0,1185.776,530.974,1185.776,1185.776c0,66.258-5.431,131.25-15.931,194.612
				c-92.689,562.293-581.12,991.164-1169.844,991.164C1850.198,3684.775,1319.224,3153.982,1319.224,2499z"/>
			<path style="opacity:0.1178;fill:none;stroke:#FFFFFF;stroke-width:0.2921;stroke-miterlimit:10;" d="M1320.517,2499
				c0-235.811,68.899-455.709,187.89-640.344c210.856-327.315,578.498-544.138,996.593-544.138
				c654.268,0,1184.483,530.395,1184.483,1184.482c0,66.186-5.425,131.107-15.914,194.4
				c-92.588,561.68-580.487,990.083-1168.569,990.083C1850.912,3683.482,1320.517,3153.268,1320.517,2499z"/>
			<path style="opacity:0.1109;fill:none;stroke:#FFFFFF;stroke-width:0.2896;stroke-miterlimit:10;" d="M1321.81,2499
				c0-235.554,68.824-455.212,187.685-639.645c210.625-326.957,577.866-543.544,995.505-543.544
				c653.554,0,1183.19,529.816,1183.19,1183.189c0,66.114-5.419,130.964-15.896,194.188
				c-92.487,561.066-579.853,989.002-1167.293,989.002C1851.626,3682.189,1321.81,3152.554,1321.81,2499z"/>
			<path style="opacity:0.104;fill:none;stroke:#FFFFFF;stroke-width:0.2871;stroke-miterlimit:10;" d="M1323.103,2499
				c0-235.296,68.748-454.714,187.48-638.946c210.395-326.6,577.234-542.95,994.417-542.95
				c652.84,0,1181.896,529.237,1181.896,1181.896c0,66.041-5.413,130.821-15.879,193.975
				c-92.386,560.453-579.219,987.921-1166.018,987.921C1852.34,3680.896,1323.103,3151.84,1323.103,2499z"/>
			<path style="opacity:0.097;fill:none;stroke:#FFFFFF;stroke-width:0.2847;stroke-miterlimit:10;" d="M1324.396,2499
				c0-235.039,68.673-454.217,187.275-638.247c210.165-326.242,576.603-542.356,993.329-542.356
				c652.125,0,1180.603,528.658,1180.603,1180.603c0,65.969-5.407,130.677-15.862,193.763
				c-92.285,559.84-578.585,986.84-1164.742,986.84C1853.054,3679.603,1324.396,3151.125,1324.396,2499z"/>
			<path style="opacity:0.0901;fill:none;stroke:#FFFFFF;stroke-width:0.2822;stroke-miterlimit:10;" d="M1325.689,2499
				c0-234.781,68.598-453.719,187.069-637.548C1722.693,1535.567,2088.73,1319.69,2505,1319.69
				c651.411,0,1179.31,528.079,1179.31,1179.31c0,65.897-5.401,130.534-15.844,193.551
				C3576.281,3251.778,3090.514,3678.31,2505,3678.31C1853.768,3678.31,1325.689,3150.411,1325.689,2499z"/>
			<path style="opacity:0.0832;fill:none;stroke:#FFFFFF;stroke-width:0.2797;stroke-miterlimit:10;" d="M1326.982,2499
				c0-234.524,68.523-453.222,186.864-636.849c209.705-325.528,575.34-541.168,991.153-541.168
				c650.697,0,1178.017,527.5,1178.017,1178.017c0,65.824-5.395,130.391-15.827,193.339
				c-92.083,558.614-577.318,984.678-1162.19,984.678C1854.482,3677.017,1326.982,3149.697,1326.982,2499z"/>
			<path style="opacity:0.0762;fill:none;stroke:#FFFFFF;stroke-width:0.2772;stroke-miterlimit:10;" d="M1328.275,2499
				c0-234.267,68.448-452.724,186.659-636.15c209.474-325.17,574.708-540.574,990.065-540.574
				c649.983,0,1176.724,526.921,1176.724,1176.724c0,65.752-5.389,130.248-15.809,193.126
				c-91.982,558-576.684,983.597-1160.915,983.597C1855.197,3675.724,1328.275,3148.982,1328.275,2499z"/>
			<path style="opacity:0.0693;fill:none;stroke:#FFFFFF;stroke-width:0.2748;stroke-miterlimit:10;" d="M1329.568,2499
				c0-234.009,68.372-452.227,186.454-635.451c209.244-324.813,574.077-539.979,988.977-539.979
				c649.268,0,1175.431,526.342,1175.431,1175.431c0,65.68-5.383,130.105-15.792,192.914
				c-91.881,557.387-576.05,982.516-1159.639,982.516C1855.911,3674.43,1329.568,3148.268,1329.568,2499z"/>
			<path style="opacity:0.0624;fill:none;stroke:#FFFFFF;stroke-width:0.2723;stroke-miterlimit:10;" d="M1330.861,2499
				c0-233.752,68.297-451.729,186.249-634.752c209.014-324.456,573.445-539.385,987.889-539.385
				c648.554,0,1174.138,525.763,1174.138,1174.137c0,65.608-5.377,129.962-15.775,192.702
				c-91.78,556.774-575.417,981.436-1158.363,981.436C1856.625,3673.137,1330.861,3147.554,1330.861,2499z"/>
			<path style="opacity:0.0554;fill:none;stroke:#FFFFFF;stroke-width:0.2698;stroke-miterlimit:10;" d="M1332.155,2499
				c0-233.494,68.222-451.232,186.044-634.053c208.784-324.099,572.814-538.792,986.801-538.792
				c647.84,0,1172.845,525.184,1172.845,1172.844c0,65.535-5.372,129.819-15.757,192.49
				c-91.679,556.161-574.783,980.354-1157.087,980.354C1857.339,3671.844,1332.155,3146.84,1332.155,2499z"/>
			<path style="opacity:0.0485;fill:none;stroke:#FFFFFF;stroke-width:0.2673;stroke-miterlimit:10;" d="M1333.448,2499
				c0-233.237,68.147-450.735,185.839-633.354c208.554-323.741,572.182-538.198,985.713-538.198
				c647.125,0,1171.552,524.605,1171.552,1171.551c0,65.463-5.365,129.676-15.74,192.277
				c-91.578,555.548-574.149,979.274-1155.812,979.274C1858.053,3670.551,1333.448,3146.125,1333.448,2499z"/>
			<path style="opacity:0.0416;fill:none;stroke:#FFFFFF;stroke-width:0.2649;stroke-miterlimit:10;" d="M1334.741,2499
				c0-232.979,68.071-450.237,185.634-632.655c208.323-323.384,571.551-537.604,984.625-537.604
				c646.411,0,1170.259,524.026,1170.259,1170.258c0,65.391-5.36,129.532-15.723,192.065
				C3568.059,3246,3086.02,3669.258,2505,3669.258C1858.767,3669.258,1334.741,3145.411,1334.741,2499z"/>
			<path style="opacity:0.0347;fill:none;stroke:#FFFFFF;stroke-width:0.2624;stroke-miterlimit:10;" d="M1336.034,2499
				c0-232.722,67.996-449.74,185.428-631.956c208.093-323.026,570.919-537.009,983.537-537.009
				c645.697,0,1168.965,523.447,1168.965,1168.965c0,65.319-5.354,129.389-15.705,191.853
				c-91.376,554.321-572.882,977.112-1153.26,977.112C1859.481,3667.965,1336.034,3144.697,1336.034,2499z"/>
			<path style="opacity:0.0277;fill:none;stroke:#FFFFFF;stroke-width:0.2599;stroke-miterlimit:10;" d="M1337.327,2499
				c0-232.464,67.921-449.242,185.223-631.257c207.863-322.669,570.287-536.415,982.449-536.415
				c644.983,0,1167.672,522.868,1167.672,1167.672c0,65.247-5.348,129.246-15.688,191.641
				c-91.274,553.708-572.248,976.031-1151.984,976.031C1860.195,3666.672,1337.327,3143.983,1337.327,2499z"/>
			<path style="opacity:0.0208;fill:none;stroke:#FFFFFF;stroke-width:0.2574;stroke-miterlimit:10;" d="M1338.62,2499
				c0-232.207,67.846-448.744,185.018-630.557c207.633-322.312,569.656-535.821,981.361-535.821
				c644.269,0,1166.379,522.289,1166.379,1166.379c0,65.174-5.342,129.103-15.67,191.428
				c-91.173,553.095-571.615,974.95-1150.709,974.95C1860.909,3665.379,1338.62,3143.268,1338.62,2499z"/>
			<path style="opacity:0.0139;fill:none;stroke:#FFFFFF;stroke-width:0.2549;stroke-miterlimit:10;" d="M1339.913,2499
				c0-231.95,67.771-448.247,184.813-629.859c207.403-321.954,569.024-535.227,980.273-535.227
				c643.554,0,1165.086,521.71,1165.086,1165.086c0,65.102-5.336,128.96-15.653,191.216
				c-91.073,552.482-570.981,973.869-1149.433,973.869C1861.623,3664.086,1339.913,3142.554,1339.913,2499z"/>
			<path style="opacity:0.0069;fill:none;stroke:#FFFFFF;stroke-width:0.2525;stroke-miterlimit:10;" d="M1341.206,2499
				c0-231.692,67.695-447.75,184.608-629.159c207.172-321.597,568.393-534.633,979.185-534.633
				c642.84,0,1163.793,521.131,1163.793,1163.793c0,65.03-5.33,128.817-15.636,191.004
				c-90.971,551.869-570.347,972.788-1148.157,972.788C1862.337,3662.792,1341.206,3141.84,1341.206,2499z"/>
			<path style="opacity:0;fill:none;stroke:#FFFFFF;stroke-width:0.25;stroke-miterlimit:10;" d="M1342.499,2499
				c0-231.435,67.62-447.252,184.403-628.46C1733.845,1549.3,2094.664,1336.5,2505,1336.5c642.126,0,1162.5,520.552,1162.5,1162.5
				c0,64.958-5.324,128.674-15.618,190.792C3561.011,3241.047,3082.168,3661.5,2505,3661.5
				C1863.051,3661.5,1342.499,3141.125,1342.499,2499z"/>
		</g>
		<path style="fill:#FFFFFF;" d="M1349.999,2499c0-229.942,67.184-444.366,183.213-624.406
			C1738.82,1555.427,2097.311,1344,2505,1344c637.983,0,1155,517.193,1155,1155c0,64.538-5.29,127.844-15.518,189.561
			C3554.198,3236.26,3078.444,3654,2505,3654C1867.193,3654,1349.999,3136.983,1349.999,2499z"/>
	</g>
	<g>
		<g>
			<g>
				<g>
					<g>
						<path style="fill:#4A9529;" d="M2016.109,2890.94c-104.672,0-189.829-85.154-189.829-189.823c0-1.507,0.048-3.065,0.103-4.672
							c0.049-1.453,0.1-2.957,0.1-4.512c0-44.897,18.317-89.261,36.032-132.163c14.981-36.272,30.467-73.78,34.571-110.969
							c4.564-42.089-6.907-77.896-17.998-112.527c-8.374-26.14-16.282-50.831-16.282-75.912
							c0-84.531,68.771-153.303,153.303-153.303c84.532,0,153.303,68.771,153.303,153.303c0,11.453-1.741,24.151-5.477,39.96
							l-22.753-5.377c3.308-14.002,4.849-24.99,4.849-34.583c0-71.64-58.283-129.922-129.922-129.922
							c-71.64,0-129.922,58.283-129.922,129.922c0,21.428,7.366,44.429,15.166,68.78c11.285,35.231,24.077,75.162,18.974,122.202
							c-4.469,40.505-20.601,79.571-36.201,117.35c-17.621,42.671-34.263,82.979-34.263,123.238c0,1.824-0.057,3.585-0.114,5.289
							c-0.043,1.338-0.089,2.64-0.089,3.896c0,91.775,74.668,166.443,166.449,166.443c55.363,0,106.959-27.439,138.019-73.406
							l19.373,13.094C2138.085,2859.654,2079.249,2890.94,2016.109,2890.94z"/>
					</g>
					<g>
						<path style="fill:#4A9529;" d="M2019.816,2824.772c-72.216,0-130.97-61.042-130.97-136.076l0.174-8.559
							c-0.003-33.196,13.899-68.32,28.618-105.506c3.824-9.652,7.563-19.091,11.136-28.652c2.263-6.045,8.99-9.104,15.044-6.858
							c6.048,2.26,9.119,8.996,6.858,15.044c-3.628,9.704-7.421,19.285-11.182,28.783c-13.991,35.342-27.096,68.452-27.096,97.429
							l-0.174,8.559c0.003,61.899,48.268,112.456,107.592,112.456c26.511,0,52.004-10.24,71.782-28.826
							c4.698-4.43,12.095-4.19,16.525,0.508c4.421,4.703,4.193,12.107-0.514,16.525
							C2083.482,2812.283,2052.301,2824.772,2019.816,2824.772z"/>
					</g>
					<g>
						<path style="fill:#4A9529;" d="M2104.824,2290.892c-0.705,0-1.416-0.066-2.132-0.197c-6.347-1.167-10.549-7.264-9.378-13.614
							c0.999-5.423,1.504-10.063,1.504-13.794c0-43.898-35.713-79.611-79.611-79.611c-11.67,0-22.912,2.474-33.418,7.358
							c-5.854,2.72-12.809,0.177-15.529-5.677c-2.72-5.856-0.177-12.806,5.677-15.529c13.614-6.325,28.172-9.533,43.27-9.533
							c56.79,0,102.992,46.202,102.992,102.991c0,5.22-0.619,11.117-1.892,18.029
							C2115.27,2286.951,2110.353,2290.892,2104.824,2290.892z"/>
					</g>
					<g>
						<path style="fill:#4A9529;" d="M2170.365,2813.424c-71.774,0-130.168-58.394-130.168-130.168c0-1.042,0.034-2.121,0.071-3.234
							c0.029-0.925,0.063-1.884,0.063-2.874c0-30.638,12.332-60.509,24.262-89.395c9.858-23.874,20.05-48.559,22.718-72.741
							c2.945-27.159-4.555-50.574-11.807-73.215c-5.665-17.687-11.017-34.391-11.017-51.684c0-58.38,47.497-105.877,105.877-105.877
							c58.38,0,105.877,47.497,105.877,105.877c0,17.102-5.731,36.05-11.802,56.108c-8.077,26.7-16.431,54.31-13.385,81.709
							c2.612,23.68,12.681,43.556,23.344,64.599c12.783,25.236,26,51.327,26,84.62c0,0.99,0.034,1.949,0.063,2.874
							c0.037,1.113,0.071,2.192,0.071,3.234C2300.533,2755.03,2242.139,2813.424,2170.365,2813.424z M2170.365,2307.617
							c-45.488,0-82.497,37.009-82.497,82.496c0,13.64,4.809,28.655,9.901,44.552c7.626,23.8,16.268,50.779,12.783,82.89
							c-3.034,27.499-13.871,53.742-24.348,79.123c-11.568,28.012-22.493,54.469-22.493,80.47c0,1.256-0.037,2.472-0.077,3.645
							c-0.029,0.848-0.057,1.67-0.057,2.463c0,58.885,47.906,106.787,106.788,106.787c58.882,0,106.787-47.903,106.787-106.787
							c0-0.793-0.029-1.615-0.057-2.463c-0.04-1.173-0.077-2.389-0.077-3.645c0-27.71-11.405-50.22-23.477-74.054
							c-11.134-21.976-22.647-44.703-25.724-72.593c-3.573-32.151,5.894-63.443,14.245-91.05c5.554-18.357,10.8-35.696,10.8-49.338
							C2252.861,2344.625,2215.853,2307.617,2170.365,2307.617z"/>
					</g>
					<g>
						<path style="fill:#4A9529;" d="M2229.37,2411.413c-0.528,0-1.062-0.049-1.598-0.148c-4.763-0.876-7.912-5.448-7.035-10.209
							c0.654-3.553,0.985-6.579,0.985-8.996c0-28.649-23.306-51.958-51.955-51.958c-7.609,0-14.947,1.615-21.813,4.801
							c-4.387,2.043-9.604,0.134-11.642-4.261c-2.041-4.392-0.131-9.604,4.261-11.642c9.193-4.27,19.017-6.433,29.194-6.433
							c38.319,0,69.491,31.175,69.491,69.493c0,3.528-0.417,7.509-1.276,12.17
							C2237.204,2408.457,2233.517,2411.413,2229.37,2411.413z"/>
					</g>
				</g>
				<g>
					<g>
						<path style="fill:#4A9529;" d="M2546.368,2462.563h-39.397l-105.168-173.053l-0.979,0.328v172.725h-39.558v-237.033h39.558
							l105.168,172.893l0.979-0.328v-172.566h39.397V2462.563z"/>
						<path style="fill:#4A9529;" d="M2778.352,2225.531v158.893c0,26.262-8.574,46.42-25.721,60.474
							c-17.151,14.061-39.561,21.088-67.234,21.088c-27.135,0-49.114-7.057-65.934-21.164
							c-16.824-14.107-25.234-34.242-25.234-60.397v-158.893h39.557v158.764c0,16.599,4.668,29.067,14.004,37.42
							c9.332,8.345,21.865,12.521,37.606,12.521c16.279,0,29.246-4.177,38.906-12.521c9.66-8.353,14.492-20.821,14.492-37.42
							v-158.764H2778.352z"/>
						<path style="fill:#4A9529;" d="M2987.548,2257.28h-71.631v205.283h-39.561V2257.28h-71.631v-31.75h182.823V2257.28z"/>
						<path style="fill:#4A9529;" d="M3144.159,2401.495c0-9.831-3.662-17.879-10.99-24.151
							c-7.324-6.265-20.269-11.881-38.826-16.858c-26.483-6.943-46.862-16.142-61.129-27.589
							c-14.274-11.447-21.408-26.453-21.408-45.01c0-19.106,7.896-34.844,23.687-47.213c15.791-12.377,36.166-18.558,61.129-18.558
							c26.049,0,46.969,7.027,62.76,21.08c15.791,14.053,23.412,30.904,22.871,50.551l-0.324,0.976h-37.934
							c0-12.156-4.123-22.002-12.373-29.547c-8.246-7.545-20.021-11.317-35.324-11.317c-14.438,0-25.535,3.14-33.293,9.42
							c-7.762,6.287-11.641,14.404-11.641,24.365c0,8.993,4.207,16.462,12.617,22.421c8.41,5.952,22.33,11.584,41.76,16.888
							c25.5,6.836,44.873,16.279,58.115,28.328s19.865,27.406,19.865,46.07c0,19.754-7.896,35.469-23.687,47.129
							c-15.795,11.668-36.551,17.506-62.272,17.506c-24.746,0-46.455-6.6-65.119-19.784c-18.668-13.185-27.729-31.178-27.188-53.965
							l0.328-0.975h38.094c0,14.434,4.992,25.203,14.975,32.313s22.955,10.662,38.91,10.662c14.652,0,26.049-2.942,34.188-8.833
							C3140.089,2419.519,3144.159,2411.547,3144.159,2401.495z"/>
					</g>
					<g>
						<path style="fill:#4A9529;" d="M2515.008,2674.789h-111.34v101.094h-42.403v-237.033h171.54v31.742h-129.137v72.447h111.34
							V2674.789z"/>
						<path style="fill:#4A9529;" d="M2610.981,2677.556v98.328h-42.403v-237.033h93.886c28.384,0,50.315,5.968,65.788,17.91
							c15.473,11.935,23.209,28.976,23.209,51.115c0,12.27-3.402,22.818-10.208,31.666c-6.805,8.848-16.727,15.928-29.753,21.248
							c14.309,4.229,24.606,11.15,30.888,20.752c6.282,9.603,9.423,21.408,9.423,35.408v19.701c0,6.943,0.927,13.733,2.79,20.348
							c1.859,6.623,5,11.668,9.423,15.143v3.742h-43.624c-4.657-3.582-7.655-9.222-8.99-16.934
							c-1.336-7.705-2.005-15.242-2.005-22.627v-19.045c0-12.156-3.725-21.812-11.168-28.976
							c-7.446-7.164-17.687-10.746-30.712-10.746H2610.981z M2610.981,2645.806h49.212c16.984,0,29.377-3.033,37.17-9.115
							c7.793-6.074,11.694-15.356,11.694-27.84c0-11.935-3.84-21.293-11.519-28.084c-7.679-6.775-19.369-10.174-35.075-10.174
							h-51.483V2645.806z"/>
						<path style="fill:#4A9529;" d="M2958.778,2669.249h-111.164v74.893h128.965v31.742h-171.368v-237.033h170.142v31.742h-127.74
							v66.914h111.164V2669.249z"/>
						<path style="fill:#4A9529;" d="M3165.919,2669.249h-111.164v74.893h128.965v31.742h-171.368v-237.033h170.143v31.742h-127.74
							v66.914h111.164V2669.249z"/>
					</g>
				</g>
			</g>
			<g>
				<path style="fill:#4A9529;" d="M3192.073,2988.977H1817.927c-76.055,0-137.927-61.876-137.927-137.927v-704.094
					c0-76.055,61.872-137.931,137.927-137.931h1374.145c76.055,0,137.927,61.876,137.927,137.931v704.094
					C3330,2927.101,3268.128,2988.977,3192.073,2988.977z M1817.927,2040.24c-58.839,0-106.711,47.872-106.711,106.715v704.094
					c0,58.843,47.872,106.711,106.711,106.711h1374.145c58.839,0,106.711-47.868,106.711-106.711v-704.094
					c0-58.843-47.872-106.715-106.711-106.715H1817.927z"/>
			</g>
		</g>
	</g>
</g>
</svg>
